%TF.GenerationSoftware,KiCad,Pcbnew,7.0.7*%
%TF.CreationDate,2024-04-17T16:30:55-07:00*%
%TF.ProjectId,power_board_12V,706f7765-725f-4626-9f61-72645f313256,rev?*%
%TF.SameCoordinates,Original*%
%TF.FileFunction,Soldermask,Top*%
%TF.FilePolarity,Negative*%
%FSLAX46Y46*%
G04 Gerber Fmt 4.6, Leading zero omitted, Abs format (unit mm)*
G04 Created by KiCad (PCBNEW 7.0.7) date 2024-04-17 16:30:55*
%MOMM*%
%LPD*%
G01*
G04 APERTURE LIST*
G04 Aperture macros list*
%AMRoundRect*
0 Rectangle with rounded corners*
0 $1 Rounding radius*
0 $2 $3 $4 $5 $6 $7 $8 $9 X,Y pos of 4 corners*
0 Add a 4 corners polygon primitive as box body*
4,1,4,$2,$3,$4,$5,$6,$7,$8,$9,$2,$3,0*
0 Add four circle primitives for the rounded corners*
1,1,$1+$1,$2,$3*
1,1,$1+$1,$4,$5*
1,1,$1+$1,$6,$7*
1,1,$1+$1,$8,$9*
0 Add four rect primitives between the rounded corners*
20,1,$1+$1,$2,$3,$4,$5,0*
20,1,$1+$1,$4,$5,$6,$7,0*
20,1,$1+$1,$6,$7,$8,$9,0*
20,1,$1+$1,$8,$9,$2,$3,0*%
G04 Aperture macros list end*
%ADD10RoundRect,0.249999X1.450001X-0.450001X1.450001X0.450001X-1.450001X0.450001X-1.450001X-0.450001X0*%
%ADD11C,1.000000*%
%ADD12RoundRect,0.250000X-0.620000X-0.845000X0.620000X-0.845000X0.620000X0.845000X-0.620000X0.845000X0*%
%ADD13O,1.740000X2.190000*%
%ADD14RoundRect,0.150000X0.150000X0.625000X-0.150000X0.625000X-0.150000X-0.625000X0.150000X-0.625000X0*%
%ADD15RoundRect,0.250000X0.350000X0.650000X-0.350000X0.650000X-0.350000X-0.650000X0.350000X-0.650000X0*%
%ADD16C,3.200000*%
%ADD17RoundRect,0.250000X-0.325000X-0.650000X0.325000X-0.650000X0.325000X0.650000X-0.325000X0.650000X0*%
%ADD18C,3.000000*%
%ADD19RoundRect,0.250001X0.499999X0.759999X-0.499999X0.759999X-0.499999X-0.759999X0.499999X-0.759999X0*%
%ADD20O,1.500000X2.020000*%
%ADD21C,2.159000*%
%ADD22C,2.300000*%
%ADD23RoundRect,1.500000X1.500000X-1.500000X1.500000X1.500000X-1.500000X1.500000X-1.500000X-1.500000X0*%
%ADD24C,6.000000*%
%ADD25R,1.600000X1.600000*%
%ADD26C,1.600000*%
%ADD27R,2.755900X2.500000*%
%ADD28RoundRect,0.200000X0.275000X-0.200000X0.275000X0.200000X-0.275000X0.200000X-0.275000X-0.200000X0*%
%ADD29R,1.800000X1.800000*%
%ADD30C,1.800000*%
G04 APERTURE END LIST*
D10*
%TO.C,C3*%
X100965000Y-87503000D03*
X100965000Y-83403000D03*
%TD*%
D11*
%TO.C,FID1*%
X169722800Y-96875600D03*
%TD*%
D10*
%TO.C,C1*%
X81661000Y-79266000D03*
X81661000Y-75166000D03*
%TD*%
D12*
%TO.C,J4*%
X158623000Y-55118000D03*
D13*
X161163000Y-55118000D03*
X163703000Y-55118000D03*
X166243000Y-55118000D03*
%TD*%
D14*
%TO.C,J3*%
X128506000Y-56767000D03*
X127506000Y-56767000D03*
X126506000Y-56767000D03*
X125506000Y-56767000D03*
D15*
X129806000Y-52892000D03*
X124206000Y-52892000D03*
%TD*%
D16*
%TO.C,H1*%
X92862400Y-54996000D03*
%TD*%
D14*
%TO.C,J2*%
X119096000Y-56767000D03*
X118096000Y-56767000D03*
X117096000Y-56767000D03*
X116096000Y-56767000D03*
D15*
X120396000Y-52892000D03*
X114796000Y-52892000D03*
%TD*%
D16*
%TO.C,H4*%
X175412400Y-94996000D03*
%TD*%
%TO.C,H3*%
X175412400Y-54996000D03*
%TD*%
D17*
%TO.C,C5*%
X140433000Y-63246000D03*
X143383000Y-63246000D03*
%TD*%
D18*
%TO.C,J1*%
X79932400Y-93931200D03*
D19*
X81432400Y-89611200D03*
D20*
X78432400Y-89611200D03*
%TD*%
D21*
%TO.C,L1*%
X87249000Y-71378003D03*
X101748997Y-71378003D03*
X101748997Y-65278000D03*
X87249000Y-65278000D03*
%TD*%
D22*
%TO.C,PS1*%
X118953000Y-87565000D03*
X118953000Y-82485000D03*
X118953000Y-72325000D03*
X164673000Y-90105000D03*
X164673000Y-79945000D03*
X164673000Y-69785000D03*
%TD*%
D17*
%TO.C,C6*%
X139749000Y-96774000D03*
X142699000Y-96774000D03*
%TD*%
D23*
%TO.C,J5*%
X77343000Y-67227000D03*
D24*
X77343000Y-60027000D03*
%TD*%
D25*
%TO.C,C4*%
X109855000Y-86487000D03*
D26*
X109855000Y-83987000D03*
%TD*%
D27*
%TO.C,L2*%
X105962450Y-74041000D03*
X111715550Y-74041000D03*
%TD*%
D16*
%TO.C,H2*%
X92862400Y-94996000D03*
%TD*%
D28*
%TO.C,R4*%
X151956000Y-61912000D03*
X151956000Y-60262000D03*
%TD*%
D29*
%TO.C,D1*%
X151257000Y-53721000D03*
D30*
X151257000Y-56261000D03*
%TD*%
D11*
%TO.C,FID2*%
X84582000Y-53594000D03*
%TD*%
M02*
