%TF.GenerationSoftware,KiCad,Pcbnew,7.0.7*%
%TF.CreationDate,2024-04-17T16:30:55-07:00*%
%TF.ProjectId,power_board_12V,706f7765-725f-4626-9f61-72645f313256,rev?*%
%TF.SameCoordinates,Original*%
%TF.FileFunction,Copper,L2,Bot*%
%TF.FilePolarity,Positive*%
%FSLAX46Y46*%
G04 Gerber Fmt 4.6, Leading zero omitted, Abs format (unit mm)*
G04 Created by KiCad (PCBNEW 7.0.7) date 2024-04-17 16:30:55*
%MOMM*%
%LPD*%
G01*
G04 APERTURE LIST*
G04 Aperture macros list*
%AMRoundRect*
0 Rectangle with rounded corners*
0 $1 Rounding radius*
0 $2 $3 $4 $5 $6 $7 $8 $9 X,Y pos of 4 corners*
0 Add a 4 corners polygon primitive as box body*
4,1,4,$2,$3,$4,$5,$6,$7,$8,$9,$2,$3,0*
0 Add four circle primitives for the rounded corners*
1,1,$1+$1,$2,$3*
1,1,$1+$1,$4,$5*
1,1,$1+$1,$6,$7*
1,1,$1+$1,$8,$9*
0 Add four rect primitives between the rounded corners*
20,1,$1+$1,$2,$3,$4,$5,0*
20,1,$1+$1,$4,$5,$6,$7,0*
20,1,$1+$1,$6,$7,$8,$9,0*
20,1,$1+$1,$8,$9,$2,$3,0*%
G04 Aperture macros list end*
%TA.AperFunction,ComponentPad*%
%ADD10RoundRect,0.250000X-0.620000X-0.845000X0.620000X-0.845000X0.620000X0.845000X-0.620000X0.845000X0*%
%TD*%
%TA.AperFunction,ComponentPad*%
%ADD11O,1.740000X2.190000*%
%TD*%
%TA.AperFunction,ComponentPad*%
%ADD12RoundRect,0.250001X0.499999X0.759999X-0.499999X0.759999X-0.499999X-0.759999X0.499999X-0.759999X0*%
%TD*%
%TA.AperFunction,ComponentPad*%
%ADD13O,1.500000X2.020000*%
%TD*%
%TA.AperFunction,ComponentPad*%
%ADD14C,2.159000*%
%TD*%
%TA.AperFunction,ComponentPad*%
%ADD15C,2.300000*%
%TD*%
%TA.AperFunction,ComponentPad*%
%ADD16RoundRect,1.500000X1.500000X-1.500000X1.500000X1.500000X-1.500000X1.500000X-1.500000X-1.500000X0*%
%TD*%
%TA.AperFunction,ComponentPad*%
%ADD17C,6.000000*%
%TD*%
%TA.AperFunction,ComponentPad*%
%ADD18R,1.600000X1.600000*%
%TD*%
%TA.AperFunction,ComponentPad*%
%ADD19C,1.600000*%
%TD*%
%TA.AperFunction,ComponentPad*%
%ADD20R,1.800000X1.800000*%
%TD*%
%TA.AperFunction,ComponentPad*%
%ADD21C,1.800000*%
%TD*%
%TA.AperFunction,SMDPad,CuDef*%
%ADD22RoundRect,0.200000X0.275000X-0.200000X0.275000X0.200000X-0.275000X0.200000X-0.275000X-0.200000X0*%
%TD*%
%TA.AperFunction,SMDPad,CuDef*%
%ADD23RoundRect,0.200000X-0.275000X0.200000X-0.275000X-0.200000X0.275000X-0.200000X0.275000X0.200000X0*%
%TD*%
%TA.AperFunction,SMDPad,CuDef*%
%ADD24C,0.500000*%
%TD*%
%TA.AperFunction,SMDPad,CuDef*%
%ADD25RoundRect,0.225000X-0.225000X-0.250000X0.225000X-0.250000X0.225000X0.250000X-0.225000X0.250000X0*%
%TD*%
%TA.AperFunction,SMDPad,CuDef*%
%ADD26RoundRect,0.093750X0.093750X0.106250X-0.093750X0.106250X-0.093750X-0.106250X0.093750X-0.106250X0*%
%TD*%
%TA.AperFunction,SMDPad,CuDef*%
%ADD27R,1.000000X1.600000*%
%TD*%
%TA.AperFunction,SMDPad,CuDef*%
%ADD28RoundRect,0.200000X-0.200000X-0.275000X0.200000X-0.275000X0.200000X0.275000X-0.200000X0.275000X0*%
%TD*%
%TA.AperFunction,SMDPad,CuDef*%
%ADD29RoundRect,0.200000X0.200000X0.275000X-0.200000X0.275000X-0.200000X-0.275000X0.200000X-0.275000X0*%
%TD*%
%TA.AperFunction,ViaPad*%
%ADD30C,0.800000*%
%TD*%
%TA.AperFunction,Conductor*%
%ADD31C,2.500000*%
%TD*%
%TA.AperFunction,Conductor*%
%ADD32C,0.500000*%
%TD*%
%TA.AperFunction,Conductor*%
%ADD33C,1.000000*%
%TD*%
%TA.AperFunction,Conductor*%
%ADD34C,0.700000*%
%TD*%
%TA.AperFunction,Conductor*%
%ADD35C,0.250000*%
%TD*%
%TA.AperFunction,Conductor*%
%ADD36C,1.500000*%
%TD*%
%TA.AperFunction,Conductor*%
%ADD37C,0.600000*%
%TD*%
%TA.AperFunction,Conductor*%
%ADD38C,1.200000*%
%TD*%
G04 APERTURE END LIST*
D10*
%TO.P,J4,1,Pin_1*%
%TO.N,/+12V*%
X158623000Y-55118000D03*
D11*
%TO.P,J4,2,Pin_2*%
%TO.N,/GND_OUT*%
X161163000Y-55118000D03*
%TO.P,J4,3,Pin_3*%
%TO.N,/+12V*%
X163703000Y-55118000D03*
%TO.P,J4,4,Pin_4*%
%TO.N,/GND_OUT*%
X166243000Y-55118000D03*
%TD*%
D12*
%TO.P,J1,1,Pin_1*%
%TO.N,/+V_BATT*%
X81432400Y-89611200D03*
D13*
%TO.P,J1,2,Pin_2*%
%TO.N,/-V_BATT*%
X78432400Y-89611200D03*
%TD*%
D14*
%TO.P,L1,1,1*%
%TO.N,/+V_BATT*%
X87249000Y-71378003D03*
%TO.P,L1,2,2*%
%TO.N,Net-(L1-Pad2)*%
X101748997Y-71378003D03*
%TO.P,L1,3,3*%
%TO.N,Net-(PS1--VIN)*%
X101748997Y-65278000D03*
%TO.P,L1,4,4*%
%TO.N,/-V_BATT*%
X87249000Y-65278000D03*
%TD*%
D15*
%TO.P,PS1,1,+VIN*%
%TO.N,Net-(PS1-+VIN)*%
X118953000Y-87565000D03*
%TO.P,PS1,2,-VIN*%
%TO.N,Net-(PS1--VIN)*%
X118953000Y-82485000D03*
%TO.P,PS1,3,REMOTE_ON/OFF*%
%TO.N,unconnected-(PS1-REMOTE_ON{slash}OFF-Pad3)*%
X118953000Y-72325000D03*
%TO.P,PS1,4,+VOUT*%
%TO.N,/+12V*%
X164673000Y-90105000D03*
%TO.P,PS1,5,-VOUT*%
%TO.N,/GND_OUT*%
X164673000Y-79945000D03*
%TO.P,PS1,6,TRIM*%
%TO.N,unconnected-(PS1-TRIM-Pad6)*%
X164673000Y-69785000D03*
%TD*%
D16*
%TO.P,J5,1,Pin_1*%
%TO.N,/-V_BATT*%
X77343000Y-67227000D03*
D17*
%TO.P,J5,2,Pin_2*%
%TO.N,/+V_BATT*%
X77343000Y-60027000D03*
%TD*%
D18*
%TO.P,C4,1*%
%TO.N,Net-(PS1-+VIN)*%
X109855000Y-86487000D03*
D19*
%TO.P,C4,2*%
%TO.N,Net-(PS1--VIN)*%
X109855000Y-83987000D03*
%TD*%
D20*
%TO.P,D1,1,K*%
%TO.N,/GND_OUT*%
X151257000Y-53721000D03*
D21*
%TO.P,D1,2,A*%
%TO.N,Net-(D1-A)*%
X151257000Y-56261000D03*
%TD*%
D22*
%TO.P,0X49,1*%
%TO.N,Net-(U1-ADD0)*%
X120142000Y-64389000D03*
%TO.P,0X49,2*%
%TO.N,Net-(0X49-Pad2)*%
X120142000Y-62739000D03*
%TD*%
D23*
%TO.P,0X4A,1*%
%TO.N,/SDA*%
X116586000Y-62725800D03*
%TO.P,0X4A,2*%
%TO.N,Net-(U1-ADD0)*%
X116586000Y-64375800D03*
%TD*%
%TO.P,0X48,1*%
%TO.N,/Q_GND*%
X114808000Y-62725800D03*
%TO.P,0X48,2*%
%TO.N,Net-(U1-ADD0)*%
X114808000Y-64375800D03*
%TD*%
D24*
%TO.P,FID3,*%
%TO.N,*%
X169722800Y-96875600D03*
%TD*%
D25*
%TO.P,C2,1*%
%TO.N,/3V3*%
X123976800Y-61061600D03*
%TO.P,C2,2*%
%TO.N,/Q_GND*%
X125526800Y-61061600D03*
%TD*%
D26*
%TO.P,U1,1,SCL*%
%TO.N,Net-(U1-SCL)*%
X142873500Y-79214000D03*
%TO.P,U1,2,GND*%
%TO.N,/Q_GND*%
X142873500Y-79864000D03*
%TO.P,U1,3,ALERT*%
%TO.N,unconnected-(U1-ALERT-Pad3)*%
X142873500Y-80514000D03*
%TO.P,U1,4,ADD0*%
%TO.N,Net-(U1-ADD0)*%
X141098500Y-80514000D03*
%TO.P,U1,5,V+*%
%TO.N,/3V3*%
X141098500Y-79864000D03*
%TO.P,U1,6,SDA*%
%TO.N,Net-(U1-SDA)*%
X141098500Y-79214000D03*
D27*
%TO.P,U1,7*%
%TO.N,N/C*%
X141986000Y-79864000D03*
%TD*%
D28*
%TO.P,R2,1*%
%TO.N,/3V3*%
X127635000Y-64770000D03*
%TO.P,R2,2*%
%TO.N,Net-(U1-SCL)*%
X129285000Y-64770000D03*
%TD*%
D23*
%TO.P,0X4B,1*%
%TO.N,/SCL*%
X118364000Y-62739000D03*
%TO.P,0X4B,2*%
%TO.N,Net-(U1-ADD0)*%
X118364000Y-64389000D03*
%TD*%
D29*
%TO.P,R1,1*%
%TO.N,/3V3*%
X123952000Y-62738000D03*
%TO.P,R1,2*%
%TO.N,Net-(0X49-Pad2)*%
X122302000Y-62738000D03*
%TD*%
D24*
%TO.P,FID4,*%
%TO.N,*%
X84582000Y-53594000D03*
%TD*%
D28*
%TO.P,R3,1*%
%TO.N,/3V3*%
X127572000Y-62865000D03*
%TO.P,R3,2*%
%TO.N,Net-(U1-SDA)*%
X129222000Y-62865000D03*
%TD*%
D30*
%TO.N,/-V_BATT*%
X95828400Y-74441600D03*
X92828400Y-74441600D03*
X95828400Y-71441600D03*
X104902000Y-59436000D03*
X107828400Y-65441600D03*
X107828400Y-62441600D03*
X95828400Y-62441600D03*
X92828400Y-62441600D03*
X89828400Y-62441600D03*
X95828400Y-65441600D03*
X92828400Y-65441600D03*
%TO.N,/SDA*%
X126492000Y-58674000D03*
X116992400Y-58775600D03*
%TO.N,/SCL*%
X118364000Y-61468000D03*
%TO.N,/Q_GND*%
X130403600Y-60096400D03*
X114808000Y-60807600D03*
X122200800Y-52222400D03*
X122174000Y-54610000D03*
X122174000Y-56769000D03*
X128524000Y-60071000D03*
X130403600Y-58775600D03*
X114909600Y-58877200D03*
X128905000Y-58801000D03*
%TO.N,/-V_BATT*%
X95828400Y-86441600D03*
X89828400Y-65441600D03*
X89828400Y-89441600D03*
X86828400Y-86441600D03*
X89828400Y-86441600D03*
X86828400Y-56441600D03*
X89828400Y-83441600D03*
X110828400Y-65441600D03*
X101828400Y-53441600D03*
X74828400Y-83441600D03*
X77828400Y-74441600D03*
X74828400Y-77441600D03*
X98348800Y-91490800D03*
X92828400Y-68441600D03*
X101828400Y-56441600D03*
X92828400Y-86441600D03*
X86828400Y-83441600D03*
X107828400Y-53441600D03*
X86828400Y-80441600D03*
X92828400Y-80441600D03*
X104828400Y-53441600D03*
X92828400Y-89441600D03*
X74828400Y-80441600D03*
X86828400Y-95441600D03*
X77828400Y-80441600D03*
X95828400Y-68441600D03*
X74828400Y-74441600D03*
X107828400Y-56441600D03*
X92828400Y-83441600D03*
X110348800Y-91490800D03*
X110828400Y-53441600D03*
X107828400Y-59441600D03*
X89828400Y-80441600D03*
X107348800Y-91490800D03*
X86828400Y-92441600D03*
X110828400Y-56441600D03*
X92828400Y-71441600D03*
X83828400Y-56441600D03*
X95828400Y-89441600D03*
X95828400Y-83441600D03*
X101348800Y-91490800D03*
X101828400Y-80441600D03*
X104348800Y-91490800D03*
X77828400Y-83441600D03*
X86828400Y-89441600D03*
X98828400Y-56441600D03*
X110828400Y-62441600D03*
X86828400Y-53441600D03*
X98828400Y-53441600D03*
X104828400Y-56441600D03*
X77828400Y-77441600D03*
X110828400Y-59441600D03*
%TO.N,/3V3*%
X118096000Y-59551600D03*
X122555000Y-61087000D03*
%TO.N,Net-(PS1-+VIN)*%
X106934000Y-79756000D03*
X104648000Y-87503000D03*
%TO.N,/GND_OUT*%
X146608800Y-89478400D03*
X129037600Y-94442800D03*
X152608800Y-83478400D03*
X142922800Y-86114400D03*
X146608800Y-86478400D03*
X152608800Y-74478400D03*
X177904400Y-79214000D03*
X145807200Y-52273200D03*
X145807200Y-55273200D03*
X139922800Y-86114400D03*
X155608800Y-89478400D03*
X155608800Y-86478400D03*
X161812000Y-96774000D03*
X144526000Y-96774000D03*
X139807200Y-55273200D03*
X136807200Y-52273200D03*
X149608800Y-68478400D03*
X174904400Y-61214000D03*
X152608800Y-68478400D03*
X158608800Y-74478400D03*
X174904400Y-85214000D03*
X149812000Y-96774000D03*
X145807200Y-58273200D03*
X174904400Y-76214000D03*
X161608800Y-83478400D03*
X177904400Y-73214000D03*
X152501600Y-64770000D03*
X142807200Y-52273200D03*
X177904400Y-67214000D03*
X146608800Y-68478400D03*
X136922800Y-83114400D03*
X158812000Y-96774000D03*
X174904400Y-70214000D03*
X118922800Y-77114400D03*
X177904400Y-70214000D03*
X133922800Y-86114400D03*
X161608800Y-80478400D03*
X124922800Y-77114400D03*
X139922800Y-83114400D03*
X130922800Y-83114400D03*
X152608800Y-80478400D03*
X161137600Y-57404000D03*
X129037600Y-97442800D03*
X174904400Y-64214000D03*
X149608800Y-83478400D03*
X121922800Y-77114400D03*
X155812000Y-96774000D03*
X146608800Y-83478400D03*
X177904400Y-64214000D03*
X174904400Y-82214000D03*
X174904400Y-73214000D03*
X158608800Y-83478400D03*
X174904400Y-88214000D03*
X146608800Y-74478400D03*
X126037600Y-88442800D03*
X152608800Y-86478400D03*
X174904400Y-79214000D03*
X136807200Y-58273200D03*
X149608800Y-80478400D03*
X142922800Y-83114400D03*
X155608800Y-74478400D03*
X158608800Y-77478400D03*
X133922800Y-83114400D03*
X127922800Y-77114400D03*
X130922800Y-80114400D03*
X177904400Y-88214000D03*
X161608800Y-89478400D03*
X149608800Y-86478400D03*
X136922800Y-89114400D03*
X127922800Y-80114400D03*
X149608800Y-77478400D03*
X177904400Y-76214000D03*
X161608800Y-77478400D03*
X161608800Y-68478400D03*
X146608800Y-71478400D03*
X126037600Y-94442800D03*
X158608800Y-68478400D03*
X152812000Y-96774000D03*
X142807200Y-58273200D03*
X158501600Y-64770000D03*
X146608800Y-80478400D03*
X123037600Y-94442800D03*
X136922800Y-86114400D03*
X155608800Y-68478400D03*
X155501600Y-64770000D03*
X149608800Y-89478400D03*
X149608800Y-71478400D03*
X121922800Y-80114400D03*
X152608800Y-71478400D03*
X158608800Y-80478400D03*
X139807200Y-52273200D03*
X149608800Y-74478400D03*
X155608800Y-80478400D03*
X161608800Y-74478400D03*
X146812000Y-96774000D03*
X174904400Y-67214000D03*
X161501600Y-64770000D03*
X158608800Y-89478400D03*
X123037600Y-91442800D03*
X118922800Y-80114400D03*
X152608800Y-77478400D03*
X155608800Y-71478400D03*
X123037600Y-88442800D03*
X158608800Y-86478400D03*
X161608800Y-86478400D03*
X152608800Y-89478400D03*
X155608800Y-83478400D03*
X139922800Y-89114400D03*
X136807200Y-55273200D03*
X177904400Y-85214000D03*
X161608800Y-71478400D03*
X123037600Y-97442800D03*
X142922800Y-89114400D03*
X126037600Y-91442800D03*
X158608800Y-71478400D03*
X177904400Y-61214000D03*
X126037600Y-97442800D03*
X139807200Y-58273200D03*
X129037600Y-91442800D03*
X146608800Y-77478400D03*
X155608800Y-77478400D03*
X142807200Y-55273200D03*
X177904400Y-82214000D03*
X124922800Y-80114400D03*
X136807200Y-61273200D03*
%TO.N,Net-(U1-SDA)*%
X130860800Y-63652400D03*
X130860800Y-70053200D03*
%TD*%
D31*
%TO.N,/-V_BATT*%
X88519000Y-66548000D02*
X88519000Y-67945000D01*
X87249000Y-65278000D02*
X88519000Y-66548000D01*
X85725000Y-66802000D02*
X85725000Y-67183000D01*
X87249000Y-65278000D02*
X85725000Y-66802000D01*
X87249000Y-65278000D02*
X85090000Y-63119000D01*
X87249000Y-65278000D02*
X87249000Y-65021000D01*
X87249000Y-65021000D02*
X89828400Y-62441600D01*
X87249000Y-65278000D02*
X89664800Y-65278000D01*
X89664800Y-65278000D02*
X89828400Y-65441600D01*
D32*
%TO.N,/SDA*%
X116992400Y-58775600D02*
X117066400Y-58701600D01*
X126464400Y-58701600D02*
X126492000Y-58674000D01*
X117066400Y-58701600D02*
X126464400Y-58701600D01*
D33*
X116992400Y-58775600D02*
X116586000Y-59182000D01*
X116586000Y-59182000D02*
X116586000Y-62725800D01*
D34*
%TO.N,Net-(U1-ADD0)*%
X118364000Y-64389000D02*
X120142000Y-64389000D01*
D35*
X141098500Y-80514000D02*
X136267000Y-80514000D01*
D34*
X116586000Y-64375800D02*
X114808000Y-64375800D01*
X118364000Y-64389000D02*
X116599200Y-64389000D01*
D35*
X136267000Y-80514000D02*
X120142000Y-64389000D01*
D34*
X116599200Y-64389000D02*
X116586000Y-64375800D01*
D33*
%TO.N,/SCL*%
X118364000Y-62739000D02*
X118364000Y-61468000D01*
D35*
%TO.N,/Q_GND*%
X142873500Y-79864000D02*
X143015702Y-79864000D01*
X143814800Y-75184000D02*
X129692400Y-61061600D01*
D33*
X114808000Y-62725800D02*
X114808000Y-60807600D01*
D35*
X129692400Y-61061600D02*
X125526800Y-61061600D01*
X143814800Y-79064902D02*
X143814800Y-75184000D01*
X143015702Y-79864000D02*
X143814800Y-79064902D01*
D33*
%TO.N,Net-(0X49-Pad2)*%
X120142000Y-62739000D02*
X122301000Y-62739000D01*
X122301000Y-62739000D02*
X122302000Y-62738000D01*
D36*
%TO.N,/-V_BATT*%
X78432400Y-89614000D02*
X77571600Y-90474800D01*
X78384400Y-89611200D02*
X76403200Y-87630000D01*
X78432400Y-89611200D02*
X78432400Y-89614000D01*
D35*
%TO.N,/3V3*%
X127635000Y-70586600D02*
X127635000Y-64770000D01*
D33*
X123976800Y-62713200D02*
X123952000Y-62738000D01*
D37*
X119430800Y-61061600D02*
X122529600Y-61061600D01*
X119430800Y-61061600D02*
X118096000Y-59726800D01*
D35*
X140956298Y-79864000D02*
X140949898Y-79857600D01*
D33*
X125679200Y-62738000D02*
X127445000Y-62738000D01*
D37*
X122555000Y-61087000D02*
X122580400Y-61061600D01*
D33*
X127635000Y-62928000D02*
X127572000Y-62865000D01*
X123952000Y-62738000D02*
X125679200Y-62738000D01*
D37*
X118096000Y-59726800D02*
X118096000Y-59551600D01*
D35*
X141098500Y-79864000D02*
X140956298Y-79864000D01*
D37*
X122529600Y-61061600D02*
X122555000Y-61087000D01*
D33*
X127445000Y-62738000D02*
X127572000Y-62865000D01*
D37*
X122580400Y-61061600D02*
X123976800Y-61061600D01*
D35*
X140949898Y-79857600D02*
X136906000Y-79857600D01*
D33*
X123976800Y-61061600D02*
X123976800Y-62713200D01*
D35*
X136906000Y-79857600D02*
X127635000Y-70586600D01*
D33*
X127635000Y-64770000D02*
X127635000Y-62928000D01*
D36*
%TO.N,Net-(PS1-+VIN)*%
X104648000Y-82042000D02*
X106934000Y-79756000D01*
X104648000Y-87503000D02*
X104648000Y-82042000D01*
D38*
%TO.N,/GND_OUT*%
X164673000Y-79945000D02*
X166497000Y-81769000D01*
X166370000Y-78248000D02*
X166370000Y-78105000D01*
X163084000Y-81534000D02*
X162179000Y-81534000D01*
X164673000Y-79945000D02*
X166370000Y-78248000D01*
X166497000Y-81769000D02*
X166497000Y-82042000D01*
X164673000Y-79945000D02*
X163084000Y-81534000D01*
X162941000Y-78213000D02*
X162941000Y-77978000D01*
X164673000Y-79945000D02*
X162941000Y-78213000D01*
D35*
%TO.N,Net-(U1-SCL)*%
X142873500Y-79214000D02*
X142873500Y-75079504D01*
X129386600Y-64871600D02*
X129285000Y-64770000D01*
X142873500Y-75079504D02*
X132665596Y-64871600D01*
X132665596Y-64871600D02*
X129386600Y-64871600D01*
%TO.N,Net-(U1-SDA)*%
X130860800Y-70053200D02*
X130860800Y-70205600D01*
X137532400Y-79214000D02*
X130860800Y-72542400D01*
X130022600Y-62865000D02*
X129222000Y-62865000D01*
X130860800Y-63703200D02*
X130860800Y-63703200D01*
X141098500Y-79214000D02*
X137532400Y-79214000D01*
X130860800Y-63703200D02*
X130860800Y-63652400D01*
X130810000Y-63652400D02*
X130022600Y-62865000D01*
X130860800Y-63652400D02*
X130810000Y-63652400D01*
X130860800Y-72542400D02*
X130860800Y-70053200D01*
%TD*%
%TA.AperFunction,Conductor*%
%TO.N,/Q_GND*%
G36*
X131426155Y-50820185D02*
G01*
X131471910Y-50872989D01*
X131483116Y-50924182D01*
X131487994Y-52826500D01*
X131496800Y-56261001D01*
X131496803Y-56262302D01*
X131512711Y-62466438D01*
X131514196Y-62493149D01*
X131514196Y-62493155D01*
X131518477Y-62532483D01*
X131527060Y-62585231D01*
X131577342Y-62720040D01*
X131598458Y-62758711D01*
X131613625Y-62817748D01*
X131613703Y-62842585D01*
X131594229Y-62909686D01*
X131541569Y-62955606D01*
X131472443Y-62965767D01*
X131416819Y-62943292D01*
X131313534Y-62868251D01*
X131313529Y-62868248D01*
X131140607Y-62791257D01*
X131140602Y-62791255D01*
X130987485Y-62758710D01*
X130955446Y-62751900D01*
X130955445Y-62751900D01*
X130845453Y-62751900D01*
X130778414Y-62732215D01*
X130757772Y-62715581D01*
X130523403Y-62481212D01*
X130513580Y-62468950D01*
X130513359Y-62469134D01*
X130508386Y-62463123D01*
X130508385Y-62463122D01*
X130457964Y-62415773D01*
X130447519Y-62405328D01*
X130437075Y-62394883D01*
X130431586Y-62390625D01*
X130427161Y-62386847D01*
X130393182Y-62354938D01*
X130393180Y-62354936D01*
X130393177Y-62354935D01*
X130375629Y-62345288D01*
X130359363Y-62334604D01*
X130343533Y-62322325D01*
X130300768Y-62303818D01*
X130295522Y-62301248D01*
X130254693Y-62278803D01*
X130254692Y-62278802D01*
X130235293Y-62273822D01*
X130216881Y-62267518D01*
X130198498Y-62259562D01*
X130198492Y-62259560D01*
X130152474Y-62252272D01*
X130146752Y-62251087D01*
X130101621Y-62239500D01*
X130101619Y-62239500D01*
X130098602Y-62239500D01*
X130096325Y-62238831D01*
X130093882Y-62238523D01*
X130093931Y-62238128D01*
X130031563Y-62219815D01*
X129992485Y-62179650D01*
X129983727Y-62165162D01*
X129977472Y-62154815D01*
X129857185Y-62034528D01*
X129711606Y-61946522D01*
X129549196Y-61895914D01*
X129549194Y-61895913D01*
X129549192Y-61895913D01*
X129499778Y-61891423D01*
X129478616Y-61889500D01*
X128965384Y-61889500D01*
X128946145Y-61891248D01*
X128894807Y-61895913D01*
X128732393Y-61946522D01*
X128586811Y-62034530D01*
X128586810Y-62034531D01*
X128484681Y-62136661D01*
X128423358Y-62170146D01*
X128353666Y-62165162D01*
X128309319Y-62136661D01*
X128207188Y-62034530D01*
X128207185Y-62034528D01*
X128061606Y-61946522D01*
X128061603Y-61946521D01*
X128055190Y-61942644D01*
X128055655Y-61941873D01*
X128039924Y-61932155D01*
X128006060Y-61904542D01*
X127998404Y-61898299D01*
X127967959Y-61882397D01*
X127961251Y-61878334D01*
X127933049Y-61858705D01*
X127933046Y-61858703D01*
X127933045Y-61858703D01*
X127933041Y-61858701D01*
X127876680Y-61834514D01*
X127872424Y-61832493D01*
X127818057Y-61804094D01*
X127818050Y-61804091D01*
X127818049Y-61804091D01*
X127812008Y-61802362D01*
X127785030Y-61794642D01*
X127777630Y-61792008D01*
X127746057Y-61778459D01*
X127746058Y-61778459D01*
X127685966Y-61766109D01*
X127681391Y-61764986D01*
X127622420Y-61748113D01*
X127622425Y-61748113D01*
X127588158Y-61745503D01*
X127580380Y-61744412D01*
X127546742Y-61737500D01*
X127546741Y-61737500D01*
X127485402Y-61737500D01*
X127480695Y-61737321D01*
X127475121Y-61736896D01*
X127419524Y-61732662D01*
X127399589Y-61735201D01*
X127385440Y-61737003D01*
X127377611Y-61737500D01*
X126546159Y-61737500D01*
X126479120Y-61717815D01*
X126433365Y-61665011D01*
X126423421Y-61595853D01*
X126428453Y-61574496D01*
X126466655Y-61459206D01*
X126476799Y-61359922D01*
X126476800Y-61359909D01*
X126476800Y-61311600D01*
X125400800Y-61311600D01*
X125333761Y-61291915D01*
X125288006Y-61239111D01*
X125276800Y-61187600D01*
X125276800Y-60086600D01*
X125776800Y-60086600D01*
X125776800Y-60811600D01*
X126476799Y-60811600D01*
X126476799Y-60763292D01*
X126476798Y-60763277D01*
X126466655Y-60663992D01*
X126413347Y-60503118D01*
X126413342Y-60503107D01*
X126324375Y-60358871D01*
X126324372Y-60358867D01*
X126204532Y-60239027D01*
X126204528Y-60239024D01*
X126060292Y-60150057D01*
X126060281Y-60150052D01*
X125899406Y-60096744D01*
X125800122Y-60086600D01*
X125776800Y-60086600D01*
X125276800Y-60086600D01*
X125276800Y-60086599D01*
X125253493Y-60086600D01*
X125253474Y-60086601D01*
X125154192Y-60096744D01*
X124993318Y-60150052D01*
X124993307Y-60150057D01*
X124849071Y-60239024D01*
X124849065Y-60239028D01*
X124839831Y-60248263D01*
X124778507Y-60281746D01*
X124708815Y-60276759D01*
X124664472Y-60248260D01*
X124654844Y-60238632D01*
X124654840Y-60238629D01*
X124510505Y-60149601D01*
X124510499Y-60149598D01*
X124510497Y-60149597D01*
X124510494Y-60149596D01*
X124349509Y-60096251D01*
X124250152Y-60086100D01*
X124250145Y-60086100D01*
X124216574Y-60086100D01*
X124185494Y-60082142D01*
X124129087Y-60067537D01*
X123993604Y-60060666D01*
X123925864Y-60057231D01*
X123925863Y-60057231D01*
X123925859Y-60057231D01*
X123746744Y-60084670D01*
X123727972Y-60086100D01*
X123703464Y-60086100D01*
X123703443Y-60086101D01*
X123604092Y-60096250D01*
X123604089Y-60096251D01*
X123443105Y-60149596D01*
X123443094Y-60149601D01*
X123292609Y-60242423D01*
X123290931Y-60239703D01*
X123239334Y-60260509D01*
X123227240Y-60261100D01*
X122940318Y-60261100D01*
X122889882Y-60250379D01*
X122869749Y-60241415D01*
X122834802Y-60225855D01*
X122689001Y-60194865D01*
X122649646Y-60186500D01*
X122460354Y-60186500D01*
X122427897Y-60193398D01*
X122275197Y-60225855D01*
X122275196Y-60225855D01*
X122229205Y-60246333D01*
X122220117Y-60250379D01*
X122169682Y-60261100D01*
X119813740Y-60261100D01*
X119746701Y-60241415D01*
X119726059Y-60224781D01*
X119165059Y-59663781D01*
X119131574Y-59602458D01*
X119136558Y-59532766D01*
X119178430Y-59476833D01*
X119243894Y-59452416D01*
X119252740Y-59452100D01*
X125999321Y-59452100D01*
X126049757Y-59462821D01*
X126212192Y-59535142D01*
X126212197Y-59535144D01*
X126397354Y-59574500D01*
X126397355Y-59574500D01*
X126586644Y-59574500D01*
X126586646Y-59574500D01*
X126771803Y-59535144D01*
X126944730Y-59458151D01*
X127097871Y-59346888D01*
X127224533Y-59206216D01*
X127319179Y-59042284D01*
X127377674Y-58862256D01*
X127397460Y-58674000D01*
X127377674Y-58485744D01*
X127319179Y-58305716D01*
X127224533Y-58141784D01*
X127097871Y-58001112D01*
X127097870Y-58001111D01*
X126944734Y-57889851D01*
X126944729Y-57889848D01*
X126771807Y-57812857D01*
X126771802Y-57812855D01*
X126626001Y-57781865D01*
X126586646Y-57773500D01*
X126397354Y-57773500D01*
X126364897Y-57780398D01*
X126212197Y-57812855D01*
X126212192Y-57812857D01*
X126039270Y-57889848D01*
X126039265Y-57889851D01*
X125987560Y-57927418D01*
X125921754Y-57950898D01*
X125914675Y-57951100D01*
X117600603Y-57951100D01*
X117533564Y-57931415D01*
X117527210Y-57927047D01*
X117502567Y-57908951D01*
X117502564Y-57908949D01*
X117502562Y-57908948D01*
X117502563Y-57908948D01*
X117317674Y-57823997D01*
X117317661Y-57823992D01*
X117119453Y-57777997D01*
X116916038Y-57772844D01*
X116916035Y-57772844D01*
X116715750Y-57808740D01*
X116715745Y-57808742D01*
X116526783Y-57884223D01*
X116526771Y-57884229D01*
X116356882Y-57996196D01*
X116356877Y-57996200D01*
X115887530Y-58465548D01*
X115822949Y-58526938D01*
X115822946Y-58526942D01*
X115787899Y-58577294D01*
X115785062Y-58581056D01*
X115746302Y-58628592D01*
X115746299Y-58628597D01*
X115730392Y-58659047D01*
X115726324Y-58665761D01*
X115706702Y-58693954D01*
X115682509Y-58750330D01*
X115680488Y-58754584D01*
X115652091Y-58808951D01*
X115652090Y-58808952D01*
X115642640Y-58841975D01*
X115640007Y-58849371D01*
X115626459Y-58880943D01*
X115614113Y-58941019D01*
X115612990Y-58945595D01*
X115596113Y-59004577D01*
X115596113Y-59004579D01*
X115593503Y-59038841D01*
X115592414Y-59046608D01*
X115586980Y-59073052D01*
X115585500Y-59080258D01*
X115585500Y-59141597D01*
X115585321Y-59146306D01*
X115580662Y-59207474D01*
X115582707Y-59223527D01*
X115585003Y-59241560D01*
X115585500Y-59249388D01*
X115585500Y-61791748D01*
X115565815Y-61858787D01*
X115513011Y-61904542D01*
X115443853Y-61914486D01*
X115397352Y-61897866D01*
X115372398Y-61882781D01*
X115372396Y-61882780D01*
X115210105Y-61832209D01*
X115210106Y-61832209D01*
X115139572Y-61825800D01*
X115057999Y-61825800D01*
X115058000Y-62851800D01*
X115038316Y-62918839D01*
X114985512Y-62964594D01*
X114934000Y-62975800D01*
X114682000Y-62975800D01*
X114614961Y-62956115D01*
X114569206Y-62903311D01*
X114558000Y-62851800D01*
X114558000Y-61825800D01*
X114557999Y-61825799D01*
X114476417Y-61825800D01*
X114405897Y-61832208D01*
X114405892Y-61832209D01*
X114243601Y-61882781D01*
X114243599Y-61882782D01*
X114121008Y-61956891D01*
X114053454Y-61974727D01*
X113986980Y-61953209D01*
X113942693Y-61899168D01*
X113932861Y-61851169D01*
X113898610Y-50924889D01*
X113918084Y-50857788D01*
X113970744Y-50811868D01*
X114022609Y-50800500D01*
X131359116Y-50800500D01*
X131426155Y-50820185D01*
G37*
%TD.AperFunction*%
%TD*%
%TA.AperFunction,Conductor*%
%TO.N,/-V_BATT*%
G36*
X112211039Y-50820185D02*
G01*
X112256794Y-50872989D01*
X112268000Y-50924500D01*
X112268000Y-99087900D01*
X112248315Y-99154939D01*
X112195511Y-99200694D01*
X112144000Y-99211900D01*
X75121440Y-99211900D01*
X75118576Y-99211834D01*
X74947238Y-99203912D01*
X74747459Y-99194097D01*
X74741933Y-99193577D01*
X74556689Y-99167737D01*
X74370189Y-99140072D01*
X74365090Y-99139096D01*
X74180654Y-99095717D01*
X73999812Y-99050418D01*
X73995173Y-99049062D01*
X73814459Y-98988493D01*
X73639685Y-98925958D01*
X73635527Y-98924299D01*
X73460547Y-98847038D01*
X73293034Y-98767810D01*
X73289371Y-98765927D01*
X73121857Y-98672621D01*
X72963044Y-98577432D01*
X72959879Y-98575402D01*
X72850371Y-98500389D01*
X72801392Y-98466837D01*
X72652632Y-98356509D01*
X72649989Y-98354434D01*
X72501980Y-98231529D01*
X72364688Y-98107095D01*
X72362484Y-98104996D01*
X72227402Y-97969914D01*
X72225314Y-97967721D01*
X72100876Y-97830427D01*
X71977957Y-97682401D01*
X71975897Y-97679777D01*
X71865559Y-97531003D01*
X71756996Y-97372519D01*
X71754966Y-97369354D01*
X71659778Y-97210542D01*
X71632261Y-97161140D01*
X71566457Y-97043001D01*
X71564588Y-97039364D01*
X71485361Y-96871852D01*
X71408100Y-96696871D01*
X71406450Y-96692739D01*
X71343916Y-96517968D01*
X71283327Y-96337197D01*
X71281989Y-96332621D01*
X71236675Y-96151715D01*
X71231402Y-96129295D01*
X71193294Y-95967271D01*
X71192329Y-95962228D01*
X71164668Y-95775757D01*
X71138819Y-95590448D01*
X71138302Y-95584949D01*
X71128495Y-95385350D01*
X71120566Y-95213823D01*
X71120500Y-95210960D01*
X71120500Y-94062387D01*
X78181900Y-94062387D01*
X78194746Y-94147610D01*
X78221004Y-94321815D01*
X78221005Y-94321817D01*
X78221006Y-94321823D01*
X78298338Y-94572526D01*
X78412167Y-94808896D01*
X78412168Y-94808897D01*
X78412170Y-94808900D01*
X78412172Y-94808904D01*
X78493531Y-94928235D01*
X78559967Y-95025679D01*
X78738414Y-95218001D01*
X78738418Y-95218004D01*
X78738419Y-95218005D01*
X78943543Y-95381586D01*
X79170757Y-95512768D01*
X79414984Y-95608620D01*
X79670770Y-95667002D01*
X79670776Y-95667002D01*
X79670779Y-95667003D01*
X79866900Y-95681700D01*
X79866906Y-95681700D01*
X79997900Y-95681700D01*
X80194020Y-95667003D01*
X80194022Y-95667002D01*
X80194030Y-95667002D01*
X80449816Y-95608620D01*
X80694043Y-95512768D01*
X80921257Y-95381586D01*
X81126381Y-95218005D01*
X81130262Y-95213823D01*
X81269496Y-95063763D01*
X91008187Y-95063763D01*
X91037813Y-95333013D01*
X91037815Y-95333024D01*
X91103677Y-95584949D01*
X91106328Y-95595088D01*
X91212270Y-95844390D01*
X91275079Y-95947306D01*
X91353379Y-96075605D01*
X91353386Y-96075615D01*
X91526653Y-96283819D01*
X91526659Y-96283824D01*
X91581120Y-96332621D01*
X91728398Y-96464582D01*
X91954310Y-96614044D01*
X92199576Y-96729020D01*
X92199583Y-96729022D01*
X92199585Y-96729023D01*
X92458957Y-96807057D01*
X92458964Y-96807058D01*
X92458969Y-96807060D01*
X92726961Y-96846500D01*
X92726966Y-96846500D01*
X92930036Y-96846500D01*
X92981533Y-96842730D01*
X93132556Y-96831677D01*
X93245158Y-96806593D01*
X93396946Y-96772782D01*
X93396948Y-96772781D01*
X93396953Y-96772780D01*
X93649958Y-96676014D01*
X93886177Y-96543441D01*
X94100577Y-96377888D01*
X94288586Y-96182881D01*
X94446199Y-95962579D01*
X94520187Y-95818669D01*
X94570049Y-95721690D01*
X94570051Y-95721684D01*
X94570056Y-95721675D01*
X94657518Y-95465305D01*
X94706719Y-95198933D01*
X94716612Y-94928235D01*
X94686986Y-94658982D01*
X94618472Y-94396912D01*
X94512530Y-94147610D01*
X94371418Y-93916390D01*
X94282147Y-93809119D01*
X94198146Y-93708180D01*
X94198140Y-93708175D01*
X93996402Y-93527418D01*
X93770492Y-93377957D01*
X93770490Y-93377956D01*
X93525224Y-93262980D01*
X93525219Y-93262978D01*
X93525214Y-93262976D01*
X93265842Y-93184942D01*
X93265828Y-93184939D01*
X93150191Y-93167921D01*
X92997839Y-93145500D01*
X92794769Y-93145500D01*
X92794764Y-93145500D01*
X92592244Y-93160323D01*
X92592231Y-93160325D01*
X92327853Y-93219217D01*
X92327846Y-93219220D01*
X92074839Y-93315987D01*
X91838626Y-93448557D01*
X91624222Y-93614112D01*
X91436222Y-93809109D01*
X91436216Y-93809116D01*
X91278602Y-94029419D01*
X91278599Y-94029424D01*
X91154750Y-94270309D01*
X91154743Y-94270327D01*
X91067284Y-94526685D01*
X91067281Y-94526699D01*
X91018081Y-94793068D01*
X91018080Y-94793075D01*
X91008187Y-95063763D01*
X81269496Y-95063763D01*
X81304833Y-95025679D01*
X81452628Y-94808904D01*
X81566463Y-94572523D01*
X81643796Y-94321815D01*
X81682900Y-94062382D01*
X81682900Y-93800018D01*
X81643796Y-93540585D01*
X81566463Y-93289877D01*
X81553508Y-93262976D01*
X81452632Y-93053503D01*
X81452631Y-93053502D01*
X81452630Y-93053501D01*
X81452628Y-93053496D01*
X81304833Y-92836721D01*
X81294841Y-92825953D01*
X81126385Y-92644398D01*
X81086933Y-92612936D01*
X80921257Y-92480814D01*
X80694043Y-92349632D01*
X80449816Y-92253780D01*
X80449811Y-92253778D01*
X80449802Y-92253776D01*
X80232218Y-92204114D01*
X80194030Y-92195398D01*
X80194029Y-92195397D01*
X80194025Y-92195397D01*
X80194020Y-92195396D01*
X79997900Y-92180700D01*
X79997894Y-92180700D01*
X79866906Y-92180700D01*
X79866900Y-92180700D01*
X79670779Y-92195396D01*
X79670774Y-92195397D01*
X79414997Y-92253776D01*
X79414978Y-92253782D01*
X79170756Y-92349632D01*
X78943543Y-92480814D01*
X78738414Y-92644398D01*
X78559967Y-92836720D01*
X78412168Y-93053502D01*
X78412167Y-93053503D01*
X78298338Y-93289873D01*
X78221006Y-93540576D01*
X78221005Y-93540581D01*
X78221004Y-93540585D01*
X78206253Y-93638447D01*
X78181900Y-93800012D01*
X78181900Y-94062387D01*
X71120500Y-94062387D01*
X71120500Y-89927329D01*
X77182400Y-89927329D01*
X77197516Y-90095296D01*
X77197517Y-90095302D01*
X77257373Y-90312184D01*
X77257378Y-90312197D01*
X77354998Y-90514908D01*
X77355002Y-90514916D01*
X77487251Y-90696941D01*
X77487257Y-90696949D01*
X77649886Y-90852437D01*
X77837666Y-90976391D01*
X78044569Y-91064824D01*
X78044578Y-91064827D01*
X78182399Y-91096284D01*
X78182400Y-91096283D01*
X78182400Y-90233603D01*
X78202085Y-90166564D01*
X78254889Y-90120809D01*
X78324046Y-90110865D01*
X78395927Y-90121200D01*
X78395930Y-90121200D01*
X78468870Y-90121200D01*
X78468873Y-90121200D01*
X78540753Y-90110865D01*
X78609910Y-90120809D01*
X78662714Y-90166563D01*
X78682399Y-90233603D01*
X78682399Y-91098750D01*
X78711667Y-91094786D01*
X78711673Y-91094785D01*
X78925668Y-91025254D01*
X79123801Y-90918634D01*
X79123804Y-90918632D01*
X79299720Y-90778345D01*
X79447752Y-90608907D01*
X79447759Y-90608899D01*
X79559896Y-90421215D01*
X80181900Y-90421215D01*
X80192400Y-90523995D01*
X80192401Y-90523996D01*
X80247586Y-90690535D01*
X80247587Y-90690537D01*
X80339686Y-90839851D01*
X80339689Y-90839855D01*
X80463744Y-90963910D01*
X80463748Y-90963913D01*
X80613062Y-91056012D01*
X80613064Y-91056013D01*
X80613066Y-91056014D01*
X80779603Y-91111199D01*
X80882392Y-91121700D01*
X80882397Y-91121700D01*
X81982403Y-91121700D01*
X81982408Y-91121700D01*
X82085197Y-91111199D01*
X82251734Y-91056014D01*
X82401055Y-90963911D01*
X82525111Y-90839855D01*
X82617214Y-90690534D01*
X82672399Y-90523997D01*
X82682900Y-90421208D01*
X82682900Y-88801192D01*
X82672399Y-88698403D01*
X82617214Y-88531866D01*
X82613261Y-88525458D01*
X82525113Y-88382548D01*
X82525110Y-88382544D01*
X82401055Y-88258489D01*
X82401051Y-88258486D01*
X82251737Y-88166387D01*
X82251735Y-88166386D01*
X82130204Y-88126115D01*
X82085197Y-88111201D01*
X82085195Y-88111200D01*
X81982415Y-88100700D01*
X81982408Y-88100700D01*
X80882392Y-88100700D01*
X80882384Y-88100700D01*
X80779604Y-88111200D01*
X80779603Y-88111201D01*
X80613064Y-88166386D01*
X80613062Y-88166387D01*
X80463748Y-88258486D01*
X80463744Y-88258489D01*
X80339689Y-88382544D01*
X80339686Y-88382548D01*
X80247587Y-88531862D01*
X80247586Y-88531864D01*
X80192401Y-88698403D01*
X80192400Y-88698404D01*
X80181900Y-88801184D01*
X80181900Y-90421215D01*
X79559896Y-90421215D01*
X79563159Y-90415753D01*
X79563161Y-90415748D01*
X79642224Y-90205089D01*
X79642224Y-90205088D01*
X79682400Y-89983705D01*
X79682400Y-89861200D01*
X79056169Y-89861200D01*
X78989130Y-89841515D01*
X78943375Y-89788711D01*
X78933431Y-89719553D01*
X78937192Y-89702264D01*
X78942400Y-89684527D01*
X78942400Y-89537872D01*
X78937192Y-89520136D01*
X78937192Y-89450266D01*
X78974966Y-89391488D01*
X79038521Y-89362462D01*
X79056169Y-89361200D01*
X79682400Y-89361200D01*
X79682400Y-89295074D01*
X79682399Y-89295070D01*
X79667283Y-89127103D01*
X79667282Y-89127097D01*
X79607426Y-88910215D01*
X79607421Y-88910202D01*
X79509801Y-88707491D01*
X79509797Y-88707483D01*
X79377548Y-88525458D01*
X79377542Y-88525450D01*
X79214913Y-88369962D01*
X79027133Y-88246008D01*
X78820230Y-88157575D01*
X78820223Y-88157573D01*
X78682400Y-88126115D01*
X78682399Y-88126115D01*
X78682399Y-88988796D01*
X78662714Y-89055836D01*
X78609910Y-89101590D01*
X78540753Y-89111534D01*
X78468874Y-89101200D01*
X78468873Y-89101200D01*
X78395927Y-89101200D01*
X78395923Y-89101200D01*
X78324045Y-89111534D01*
X78254887Y-89101590D01*
X78202084Y-89055834D01*
X78182400Y-88988796D01*
X78182400Y-88123649D01*
X78182399Y-88123649D01*
X78153121Y-88127615D01*
X77939131Y-88197145D01*
X77740998Y-88303765D01*
X77740995Y-88303767D01*
X77565079Y-88444054D01*
X77417047Y-88613492D01*
X77417040Y-88613500D01*
X77301640Y-88806646D01*
X77301638Y-88806651D01*
X77222575Y-89017310D01*
X77222575Y-89017311D01*
X77182400Y-89238694D01*
X77182400Y-89361200D01*
X77808631Y-89361200D01*
X77875670Y-89380885D01*
X77921425Y-89433689D01*
X77931369Y-89502847D01*
X77927608Y-89520136D01*
X77922400Y-89537872D01*
X77922400Y-89684527D01*
X77927608Y-89702264D01*
X77927608Y-89772134D01*
X77889834Y-89830912D01*
X77826279Y-89859938D01*
X77808631Y-89861200D01*
X77182400Y-89861200D01*
X77182400Y-89927329D01*
X71120500Y-89927329D01*
X71120500Y-81957540D01*
X103395289Y-81957540D01*
X103397500Y-82056021D01*
X103397500Y-87559151D01*
X103412622Y-87727186D01*
X103412623Y-87727192D01*
X103472503Y-87944160D01*
X103472508Y-87944173D01*
X103570167Y-88146966D01*
X103570171Y-88146974D01*
X103702473Y-88329072D01*
X103702474Y-88329074D01*
X103702477Y-88329077D01*
X103702478Y-88329078D01*
X103758399Y-88382544D01*
X103865176Y-88484633D01*
X104053033Y-88608636D01*
X104260004Y-88697100D01*
X104260007Y-88697101D01*
X104260012Y-88697103D01*
X104479463Y-88747191D01*
X104704330Y-88757290D01*
X104927387Y-88727075D01*
X105141464Y-88657517D01*
X105339681Y-88550852D01*
X105515666Y-88410508D01*
X105663765Y-88240996D01*
X105779215Y-88047764D01*
X105858307Y-87837024D01*
X105877585Y-87730796D01*
X105898500Y-87615549D01*
X105898500Y-83987001D01*
X108549532Y-83987001D01*
X108569364Y-84213686D01*
X108569366Y-84213697D01*
X108628258Y-84433488D01*
X108628261Y-84433497D01*
X108724431Y-84639732D01*
X108724432Y-84639734D01*
X108854954Y-84826141D01*
X109012086Y-84983273D01*
X109045571Y-85044596D01*
X109040587Y-85114288D01*
X108998715Y-85170221D01*
X108952932Y-85191628D01*
X108947522Y-85192906D01*
X108812671Y-85243202D01*
X108812664Y-85243206D01*
X108697455Y-85329452D01*
X108697452Y-85329455D01*
X108611206Y-85444664D01*
X108611202Y-85444671D01*
X108560908Y-85579517D01*
X108554501Y-85639116D01*
X108554501Y-85639123D01*
X108554500Y-85639135D01*
X108554500Y-87334870D01*
X108554501Y-87334876D01*
X108560908Y-87394483D01*
X108611202Y-87529328D01*
X108611206Y-87529335D01*
X108697452Y-87644544D01*
X108697455Y-87644547D01*
X108812664Y-87730793D01*
X108812671Y-87730797D01*
X108947517Y-87781091D01*
X108947516Y-87781091D01*
X108954444Y-87781835D01*
X109007127Y-87787500D01*
X110702872Y-87787499D01*
X110762483Y-87781091D01*
X110897331Y-87730796D01*
X111012546Y-87644546D01*
X111098796Y-87529331D01*
X111149091Y-87394483D01*
X111155500Y-87334873D01*
X111155499Y-85639128D01*
X111149091Y-85579517D01*
X111098796Y-85444669D01*
X111098795Y-85444668D01*
X111098793Y-85444664D01*
X111012547Y-85329455D01*
X111012544Y-85329452D01*
X110897335Y-85243206D01*
X110897328Y-85243202D01*
X110762483Y-85192908D01*
X110757079Y-85191632D01*
X110696363Y-85157060D01*
X110663976Y-85095149D01*
X110670202Y-85025558D01*
X110697910Y-84983275D01*
X110855047Y-84826139D01*
X110985568Y-84639734D01*
X111081739Y-84433496D01*
X111140635Y-84213692D01*
X111160468Y-83987000D01*
X111140635Y-83760308D01*
X111081739Y-83540504D01*
X110985568Y-83334266D01*
X110855047Y-83147861D01*
X110855045Y-83147858D01*
X110694141Y-82986954D01*
X110507734Y-82856432D01*
X110507732Y-82856431D01*
X110301497Y-82760261D01*
X110301488Y-82760258D01*
X110081697Y-82701366D01*
X110081693Y-82701365D01*
X110081692Y-82701365D01*
X110081691Y-82701364D01*
X110081686Y-82701364D01*
X109855002Y-82681532D01*
X109854998Y-82681532D01*
X109628313Y-82701364D01*
X109628302Y-82701366D01*
X109408511Y-82760258D01*
X109408502Y-82760261D01*
X109202267Y-82856431D01*
X109202265Y-82856432D01*
X109015858Y-82986954D01*
X108854954Y-83147858D01*
X108724432Y-83334265D01*
X108724431Y-83334267D01*
X108628261Y-83540502D01*
X108628258Y-83540511D01*
X108569366Y-83760302D01*
X108569364Y-83760313D01*
X108549532Y-83986998D01*
X108549532Y-83987001D01*
X105898500Y-83987001D01*
X105898500Y-82611336D01*
X105918185Y-82544297D01*
X105934819Y-82523655D01*
X106842728Y-81615746D01*
X107857944Y-80600530D01*
X107966068Y-80471019D01*
X108077153Y-80275245D01*
X108151498Y-80062783D01*
X108186710Y-79840460D01*
X108181659Y-79615422D01*
X108136508Y-79394904D01*
X108052707Y-79185991D01*
X107932949Y-78995398D01*
X107932948Y-78995397D01*
X107932947Y-78995395D01*
X107781087Y-78829253D01*
X107781081Y-78829248D01*
X107601994Y-78692891D01*
X107601990Y-78692889D01*
X107401434Y-78590701D01*
X107401430Y-78590699D01*
X107185851Y-78525964D01*
X106962178Y-78500763D01*
X106962167Y-78500762D01*
X106737594Y-78515902D01*
X106519313Y-78570904D01*
X106314377Y-78663991D01*
X106314367Y-78663997D01*
X106129345Y-78792180D01*
X103815885Y-81105639D01*
X103810699Y-81110274D01*
X103780337Y-81134488D01*
X103780333Y-81134492D01*
X103735365Y-81185960D01*
X103732521Y-81189003D01*
X103724064Y-81197461D01*
X103724054Y-81197472D01*
X103697049Y-81229818D01*
X103632234Y-81304004D01*
X103632230Y-81304010D01*
X103629981Y-81307774D01*
X103618746Y-81323608D01*
X103615934Y-81326977D01*
X103615932Y-81326981D01*
X103567316Y-81412659D01*
X103539321Y-81459514D01*
X103516783Y-81497238D01*
X103515247Y-81501332D01*
X103507008Y-81518945D01*
X103504850Y-81522747D01*
X103504846Y-81522757D01*
X103472307Y-81615746D01*
X103437694Y-81707970D01*
X103437689Y-81707988D01*
X103436909Y-81712288D01*
X103431952Y-81731069D01*
X103430503Y-81735209D01*
X103430502Y-81735215D01*
X103415089Y-81832527D01*
X103397500Y-81929448D01*
X103397500Y-81933827D01*
X103395973Y-81953229D01*
X103395289Y-81957540D01*
X71120500Y-81957540D01*
X71120500Y-71378003D01*
X85664114Y-71378003D01*
X85683627Y-71625937D01*
X85741684Y-71867762D01*
X85836855Y-72097526D01*
X85966796Y-72309571D01*
X85966797Y-72309573D01*
X85966800Y-72309576D01*
X86128316Y-72498687D01*
X86274706Y-72623716D01*
X86317429Y-72660205D01*
X86317431Y-72660206D01*
X86529476Y-72790147D01*
X86759240Y-72885318D01*
X86759241Y-72885318D01*
X86759243Y-72885319D01*
X87001069Y-72943376D01*
X87249000Y-72962889D01*
X87496931Y-72943376D01*
X87738757Y-72885319D01*
X87968523Y-72790147D01*
X88180573Y-72660203D01*
X88369684Y-72498687D01*
X88531200Y-72309576D01*
X88661144Y-72097526D01*
X88756316Y-71867760D01*
X88814373Y-71625934D01*
X88833886Y-71378003D01*
X100164111Y-71378003D01*
X100183624Y-71625937D01*
X100241681Y-71867762D01*
X100336852Y-72097526D01*
X100466793Y-72309571D01*
X100466794Y-72309573D01*
X100466797Y-72309576D01*
X100628313Y-72498687D01*
X100774703Y-72623716D01*
X100817426Y-72660205D01*
X100817428Y-72660206D01*
X101029473Y-72790147D01*
X101259237Y-72885318D01*
X101259238Y-72885318D01*
X101259240Y-72885319D01*
X101501066Y-72943376D01*
X101748997Y-72962889D01*
X101996928Y-72943376D01*
X102238754Y-72885319D01*
X102468520Y-72790147D01*
X102680570Y-72660203D01*
X102869681Y-72498687D01*
X103031197Y-72309576D01*
X103161141Y-72097526D01*
X103256313Y-71867760D01*
X103314370Y-71625934D01*
X103333883Y-71378003D01*
X103314370Y-71130072D01*
X103256313Y-70888246D01*
X103161141Y-70658480D01*
X103161141Y-70658479D01*
X103031200Y-70446434D01*
X103031199Y-70446432D01*
X102994710Y-70403709D01*
X102869681Y-70257319D01*
X102744650Y-70150533D01*
X102680567Y-70095800D01*
X102680565Y-70095799D01*
X102468520Y-69965858D01*
X102238756Y-69870687D01*
X101996931Y-69812630D01*
X101748997Y-69793117D01*
X101501062Y-69812630D01*
X101259237Y-69870687D01*
X101029473Y-69965858D01*
X100817428Y-70095799D01*
X100817426Y-70095800D01*
X100628313Y-70257319D01*
X100466794Y-70446432D01*
X100466793Y-70446434D01*
X100336852Y-70658479D01*
X100241681Y-70888243D01*
X100183624Y-71130068D01*
X100164111Y-71378003D01*
X88833886Y-71378003D01*
X88814373Y-71130072D01*
X88756316Y-70888246D01*
X88661144Y-70658480D01*
X88661144Y-70658479D01*
X88531203Y-70446434D01*
X88531202Y-70446432D01*
X88494713Y-70403709D01*
X88369684Y-70257319D01*
X88244653Y-70150533D01*
X88180570Y-70095800D01*
X88180568Y-70095799D01*
X87968523Y-69965858D01*
X87738759Y-69870687D01*
X87496934Y-69812630D01*
X87310982Y-69797995D01*
X87249000Y-69793117D01*
X87248999Y-69793117D01*
X87001065Y-69812630D01*
X86759240Y-69870687D01*
X86529476Y-69965858D01*
X86317431Y-70095799D01*
X86317429Y-70095800D01*
X86128316Y-70257319D01*
X85966797Y-70446432D01*
X85966796Y-70446434D01*
X85836855Y-70658479D01*
X85741684Y-70888243D01*
X85683627Y-71130068D01*
X85664114Y-71378003D01*
X71120500Y-71378003D01*
X71120500Y-60027000D01*
X73837696Y-60027000D01*
X73856898Y-60393405D01*
X73914294Y-60755788D01*
X73914294Y-60755790D01*
X74009260Y-61110206D01*
X74140746Y-61452739D01*
X74307320Y-61779656D01*
X74507147Y-62087364D01*
X74507149Y-62087366D01*
X74738051Y-62372506D01*
X74997494Y-62631949D01*
X74997498Y-62631952D01*
X75282635Y-62862852D01*
X75590343Y-63062679D01*
X75590348Y-63062682D01*
X75917264Y-63229255D01*
X76259801Y-63360742D01*
X76614206Y-63455705D01*
X76770926Y-63480527D01*
X76834061Y-63510456D01*
X76870992Y-63569768D01*
X76869994Y-63639630D01*
X76831384Y-63697863D01*
X76767421Y-63725977D01*
X76751528Y-63727000D01*
X75771566Y-63727000D01*
X75557637Y-63742300D01*
X75278104Y-63803109D01*
X75010041Y-63903091D01*
X74758961Y-64040191D01*
X74758960Y-64040192D01*
X74529934Y-64211639D01*
X74529922Y-64211649D01*
X74327649Y-64413922D01*
X74327639Y-64413934D01*
X74156192Y-64642960D01*
X74156191Y-64642961D01*
X74019091Y-64894041D01*
X73919109Y-65162104D01*
X73858300Y-65441637D01*
X73843000Y-65655566D01*
X73843000Y-66977000D01*
X74971886Y-66977000D01*
X75038925Y-66996685D01*
X75084680Y-67049489D01*
X75095816Y-67105140D01*
X75095540Y-67113413D01*
X75089223Y-67302354D01*
X75093070Y-67340587D01*
X75080195Y-67409260D01*
X75032237Y-67460071D01*
X74969693Y-67477000D01*
X73843000Y-67477000D01*
X73843000Y-68798434D01*
X73858300Y-69012362D01*
X73919109Y-69291895D01*
X74019091Y-69559958D01*
X74156191Y-69811038D01*
X74156192Y-69811039D01*
X74327639Y-70040065D01*
X74327649Y-70040077D01*
X74529922Y-70242350D01*
X74529934Y-70242360D01*
X74758960Y-70413807D01*
X74758961Y-70413808D01*
X75010042Y-70550908D01*
X75010041Y-70550908D01*
X75278104Y-70650890D01*
X75557637Y-70711699D01*
X75771566Y-70727000D01*
X77093000Y-70727000D01*
X77093000Y-69601000D01*
X77112685Y-69533961D01*
X77165489Y-69488206D01*
X77217000Y-69477000D01*
X77418221Y-69477000D01*
X77418228Y-69477000D01*
X77460719Y-69474155D01*
X77528922Y-69489317D01*
X77578102Y-69538947D01*
X77593000Y-69597878D01*
X77593000Y-70727000D01*
X78914434Y-70727000D01*
X79128362Y-70711699D01*
X79407895Y-70650890D01*
X79675958Y-70550908D01*
X79927038Y-70413808D01*
X79927039Y-70413807D01*
X80156065Y-70242360D01*
X80156077Y-70242350D01*
X80358350Y-70040077D01*
X80358360Y-70040065D01*
X80529807Y-69811039D01*
X80529808Y-69811038D01*
X80666908Y-69559958D01*
X80766890Y-69291895D01*
X80827699Y-69012362D01*
X80843000Y-68798434D01*
X80843000Y-67477000D01*
X79714114Y-67477000D01*
X79647075Y-67457315D01*
X79601320Y-67404511D01*
X79590183Y-67348859D01*
X79596777Y-67151648D01*
X79592930Y-67113411D01*
X79605805Y-67044740D01*
X79653763Y-66993929D01*
X79716307Y-66977000D01*
X80843000Y-66977000D01*
X80843000Y-65655566D01*
X80827699Y-65441637D01*
X80792102Y-65277999D01*
X85664616Y-65277999D01*
X85684121Y-65525849D01*
X85742159Y-65767597D01*
X85837303Y-65997295D01*
X85966052Y-66207394D01*
X86405857Y-65767588D01*
X86467180Y-65734103D01*
X86536871Y-65739087D01*
X86588046Y-65774993D01*
X86677956Y-65880843D01*
X86747674Y-65933842D01*
X86789131Y-65990083D01*
X86793600Y-66059810D01*
X86760313Y-66120238D01*
X86319604Y-66560946D01*
X86529704Y-66689696D01*
X86759402Y-66784840D01*
X87001151Y-66842878D01*
X87001150Y-66842878D01*
X87249000Y-66862383D01*
X87496849Y-66842878D01*
X87738596Y-66784840D01*
X87968300Y-66689693D01*
X88178394Y-66560946D01*
X87741159Y-66123712D01*
X87707674Y-66062389D01*
X87712658Y-65992698D01*
X87748006Y-65945118D01*
X87746637Y-65943673D01*
X87881875Y-65815569D01*
X87902011Y-65785870D01*
X87955925Y-65741428D01*
X88025307Y-65733188D01*
X88088129Y-65763768D01*
X88092327Y-65767774D01*
X88531946Y-66207394D01*
X88660693Y-65997300D01*
X88755840Y-65767596D01*
X88813878Y-65525849D01*
X88833383Y-65278000D01*
X100164111Y-65278000D01*
X100183624Y-65525934D01*
X100241681Y-65767759D01*
X100336852Y-65997523D01*
X100466793Y-66209568D01*
X100466794Y-66209570D01*
X100466797Y-66209573D01*
X100628313Y-66398684D01*
X100774703Y-66523713D01*
X100817426Y-66560202D01*
X100817428Y-66560203D01*
X101029473Y-66690144D01*
X101259237Y-66785315D01*
X101259238Y-66785315D01*
X101259240Y-66785316D01*
X101501066Y-66843373D01*
X101748997Y-66862886D01*
X101996928Y-66843373D01*
X102238754Y-66785316D01*
X102468520Y-66690144D01*
X102680570Y-66560200D01*
X102869681Y-66398684D01*
X103031197Y-66209573D01*
X103161141Y-65997523D01*
X103256313Y-65767757D01*
X103314370Y-65525931D01*
X103333883Y-65278000D01*
X103314370Y-65030069D01*
X103256313Y-64788243D01*
X103236509Y-64740431D01*
X103161141Y-64558476D01*
X103031200Y-64346431D01*
X103031199Y-64346429D01*
X102994710Y-64303706D01*
X102869681Y-64157316D01*
X102732545Y-64040191D01*
X102680567Y-63995797D01*
X102680565Y-63995796D01*
X102468520Y-63865855D01*
X102238756Y-63770684D01*
X101996931Y-63712627D01*
X101748997Y-63693114D01*
X101501062Y-63712627D01*
X101259237Y-63770684D01*
X101029473Y-63865855D01*
X100817428Y-63995796D01*
X100817426Y-63995797D01*
X100628313Y-64157316D01*
X100466794Y-64346429D01*
X100466793Y-64346431D01*
X100336852Y-64558476D01*
X100241681Y-64788240D01*
X100183624Y-65030065D01*
X100164111Y-65278000D01*
X88833383Y-65278000D01*
X88813878Y-65030150D01*
X88755840Y-64788402D01*
X88660696Y-64558704D01*
X88531946Y-64348604D01*
X88092141Y-64788410D01*
X88030818Y-64821895D01*
X87961126Y-64816911D01*
X87909952Y-64781005D01*
X87820043Y-64675156D01*
X87750324Y-64622156D01*
X87708867Y-64565915D01*
X87704398Y-64496188D01*
X87737685Y-64435760D01*
X88178394Y-63995052D01*
X87968295Y-63866303D01*
X87738597Y-63771159D01*
X87496848Y-63713121D01*
X87496849Y-63713121D01*
X87249000Y-63693616D01*
X87001150Y-63713121D01*
X86759402Y-63771159D01*
X86529712Y-63866300D01*
X86529706Y-63866303D01*
X86319604Y-63995052D01*
X86756840Y-64432287D01*
X86790325Y-64493610D01*
X86785341Y-64563301D01*
X86750000Y-64610888D01*
X86751363Y-64612327D01*
X86616123Y-64740431D01*
X86616122Y-64740432D01*
X86595985Y-64770133D01*
X86542070Y-64814573D01*
X86472688Y-64822810D01*
X86409867Y-64792228D01*
X86405672Y-64788225D01*
X85966052Y-64348604D01*
X85837303Y-64558706D01*
X85837300Y-64558712D01*
X85742159Y-64788402D01*
X85684121Y-65030150D01*
X85664616Y-65277999D01*
X80792102Y-65277999D01*
X80766890Y-65162104D01*
X80666908Y-64894041D01*
X80529808Y-64642961D01*
X80529807Y-64642960D01*
X80358360Y-64413934D01*
X80358350Y-64413922D01*
X80156077Y-64211649D01*
X80156065Y-64211639D01*
X79927039Y-64040192D01*
X79927038Y-64040191D01*
X79675957Y-63903091D01*
X79675958Y-63903091D01*
X79407895Y-63803109D01*
X79128362Y-63742300D01*
X78914434Y-63727000D01*
X77934472Y-63727000D01*
X77867433Y-63707315D01*
X77821678Y-63654511D01*
X77811734Y-63585353D01*
X77840759Y-63521797D01*
X77899537Y-63484023D01*
X77915074Y-63480527D01*
X78071794Y-63455705D01*
X78426199Y-63360742D01*
X78768736Y-63229255D01*
X79095652Y-63062682D01*
X79403366Y-62862851D01*
X79688506Y-62631949D01*
X79947949Y-62372506D01*
X80178851Y-62087366D01*
X80378682Y-61779652D01*
X80545255Y-61452736D01*
X80676742Y-61110199D01*
X80771705Y-60755794D01*
X80829102Y-60393404D01*
X80848304Y-60027000D01*
X80829102Y-59660596D01*
X80771705Y-59298206D01*
X80676742Y-58943801D01*
X80545255Y-58601264D01*
X80378682Y-58274348D01*
X80178851Y-57966634D01*
X79947949Y-57681494D01*
X79688506Y-57422051D01*
X79403366Y-57191149D01*
X79403364Y-57191147D01*
X79095656Y-56991320D01*
X78768739Y-56824746D01*
X78426206Y-56693260D01*
X78426199Y-56693258D01*
X78071794Y-56598295D01*
X78071790Y-56598294D01*
X78071789Y-56598294D01*
X77709405Y-56540898D01*
X77343001Y-56521696D01*
X77342999Y-56521696D01*
X76976594Y-56540898D01*
X76614211Y-56598294D01*
X76614209Y-56598294D01*
X76259793Y-56693260D01*
X75917260Y-56824746D01*
X75590343Y-56991320D01*
X75282635Y-57191147D01*
X74997498Y-57422047D01*
X74997490Y-57422054D01*
X74738054Y-57681490D01*
X74738047Y-57681498D01*
X74507147Y-57966635D01*
X74307320Y-58274343D01*
X74140746Y-58601260D01*
X74009260Y-58943793D01*
X73914294Y-59298209D01*
X73914294Y-59298211D01*
X73856898Y-59660594D01*
X73837696Y-60026999D01*
X73837696Y-60027000D01*
X71120500Y-60027000D01*
X71120500Y-55063763D01*
X91008187Y-55063763D01*
X91037813Y-55333013D01*
X91037815Y-55333024D01*
X91106326Y-55595082D01*
X91106328Y-55595088D01*
X91212270Y-55844390D01*
X91284398Y-55962575D01*
X91353379Y-56075605D01*
X91353386Y-56075615D01*
X91526653Y-56283819D01*
X91526659Y-56283824D01*
X91728398Y-56464582D01*
X91954310Y-56614044D01*
X92199576Y-56729020D01*
X92199583Y-56729022D01*
X92199585Y-56729023D01*
X92458957Y-56807057D01*
X92458964Y-56807058D01*
X92458969Y-56807060D01*
X92726961Y-56846500D01*
X92726966Y-56846500D01*
X92930036Y-56846500D01*
X92981533Y-56842730D01*
X93132556Y-56831677D01*
X93245158Y-56806593D01*
X93396946Y-56772782D01*
X93396948Y-56772781D01*
X93396953Y-56772780D01*
X93649958Y-56676014D01*
X93886177Y-56543441D01*
X94100577Y-56377888D01*
X94288586Y-56182881D01*
X94446199Y-55962579D01*
X94520187Y-55818669D01*
X94570049Y-55721690D01*
X94570051Y-55721684D01*
X94570056Y-55721675D01*
X94657518Y-55465305D01*
X94706719Y-55198933D01*
X94716612Y-54928235D01*
X94686986Y-54658982D01*
X94618472Y-54396912D01*
X94512530Y-54147610D01*
X94371418Y-53916390D01*
X94282147Y-53809119D01*
X94198146Y-53708180D01*
X94198140Y-53708175D01*
X93996402Y-53527418D01*
X93770492Y-53377957D01*
X93648198Y-53320628D01*
X93525224Y-53262980D01*
X93525219Y-53262978D01*
X93525214Y-53262976D01*
X93265842Y-53184942D01*
X93265828Y-53184939D01*
X93150191Y-53167921D01*
X92997839Y-53145500D01*
X92794769Y-53145500D01*
X92794764Y-53145500D01*
X92592244Y-53160323D01*
X92592231Y-53160325D01*
X92327853Y-53219217D01*
X92327846Y-53219220D01*
X92074839Y-53315987D01*
X91838626Y-53448557D01*
X91624222Y-53614112D01*
X91436222Y-53809109D01*
X91436216Y-53809116D01*
X91278602Y-54029419D01*
X91278599Y-54029424D01*
X91154750Y-54270309D01*
X91154743Y-54270327D01*
X91067284Y-54526685D01*
X91067281Y-54526699D01*
X91018081Y-54793068D01*
X91018080Y-54793075D01*
X91008187Y-55063763D01*
X71120500Y-55063763D01*
X71120500Y-54801437D01*
X71120566Y-54798574D01*
X71121097Y-54787073D01*
X71128500Y-54626940D01*
X71138302Y-54427444D01*
X71138818Y-54421955D01*
X71164670Y-54236633D01*
X71192331Y-54050162D01*
X71193292Y-54045137D01*
X71236689Y-53860626D01*
X71281993Y-53679764D01*
X71283323Y-53675216D01*
X71310544Y-53593999D01*
X84076353Y-53593999D01*
X84096834Y-53736456D01*
X84130019Y-53809119D01*
X84156623Y-53867373D01*
X84250872Y-53976143D01*
X84371947Y-54053953D01*
X84371950Y-54053954D01*
X84371949Y-54053954D01*
X84510036Y-54094499D01*
X84510038Y-54094500D01*
X84510039Y-54094500D01*
X84653962Y-54094500D01*
X84653962Y-54094499D01*
X84792053Y-54053953D01*
X84913128Y-53976143D01*
X85007377Y-53867373D01*
X85067165Y-53736457D01*
X85087647Y-53594000D01*
X85067165Y-53451543D01*
X85007377Y-53320627D01*
X84913128Y-53211857D01*
X84792053Y-53134047D01*
X84792051Y-53134046D01*
X84792049Y-53134045D01*
X84792050Y-53134045D01*
X84653963Y-53093500D01*
X84653961Y-53093500D01*
X84510039Y-53093500D01*
X84510036Y-53093500D01*
X84371949Y-53134045D01*
X84250873Y-53211856D01*
X84156623Y-53320626D01*
X84156622Y-53320628D01*
X84096834Y-53451543D01*
X84076353Y-53593999D01*
X71310544Y-53593999D01*
X71343915Y-53494431D01*
X71406457Y-53319641D01*
X71408100Y-53315527D01*
X71431302Y-53262980D01*
X71485368Y-53140530D01*
X71564615Y-52972977D01*
X71566444Y-52969423D01*
X71659781Y-52801852D01*
X71754990Y-52643005D01*
X71756979Y-52639904D01*
X71865570Y-52481381D01*
X71975924Y-52332586D01*
X71977928Y-52330033D01*
X72100875Y-52181973D01*
X72225351Y-52044636D01*
X72227361Y-52042526D01*
X72362526Y-51907361D01*
X72364636Y-51905351D01*
X72501973Y-51780875D01*
X72650033Y-51657928D01*
X72652586Y-51655924D01*
X72801381Y-51545570D01*
X72959904Y-51436979D01*
X72963005Y-51434990D01*
X73121852Y-51339781D01*
X73289423Y-51246444D01*
X73292977Y-51244615D01*
X73460530Y-51165368D01*
X73635538Y-51088095D01*
X73639641Y-51086457D01*
X73814431Y-51023915D01*
X73995216Y-50963323D01*
X73999764Y-50961993D01*
X74180626Y-50916689D01*
X74365137Y-50873292D01*
X74370162Y-50872331D01*
X74556651Y-50844667D01*
X74741955Y-50818818D01*
X74747446Y-50818302D01*
X74946958Y-50808500D01*
X75088945Y-50801935D01*
X75118577Y-50800566D01*
X75121440Y-50800500D01*
X112144000Y-50800500D01*
X112211039Y-50820185D01*
G37*
%TD.AperFunction*%
%TD*%
%TA.AperFunction,Conductor*%
%TO.N,/GND_OUT*%
G36*
X175833423Y-50800566D02*
G01*
X175872986Y-50802394D01*
X176004950Y-50808495D01*
X176204549Y-50818302D01*
X176210048Y-50818819D01*
X176395357Y-50844668D01*
X176581828Y-50872329D01*
X176586871Y-50873294D01*
X176771341Y-50916681D01*
X176952221Y-50961989D01*
X176956797Y-50963327D01*
X177137568Y-51023916D01*
X177312339Y-51086450D01*
X177316471Y-51088100D01*
X177374986Y-51113936D01*
X177491474Y-51165370D01*
X177658973Y-51244592D01*
X177662601Y-51246457D01*
X177798045Y-51321900D01*
X177830142Y-51339778D01*
X177988964Y-51434972D01*
X177992119Y-51436996D01*
X178039911Y-51469733D01*
X178150603Y-51545559D01*
X178299377Y-51655897D01*
X178302001Y-51657957D01*
X178450027Y-51780876D01*
X178587321Y-51905314D01*
X178589514Y-51907402D01*
X178724596Y-52042484D01*
X178726695Y-52044688D01*
X178851129Y-52181980D01*
X178974034Y-52329989D01*
X178976109Y-52332632D01*
X179086443Y-52481400D01*
X179195002Y-52639879D01*
X179197032Y-52643044D01*
X179292221Y-52801857D01*
X179385527Y-52969371D01*
X179387410Y-52973034D01*
X179466638Y-53140547D01*
X179543899Y-53315527D01*
X179545558Y-53319685D01*
X179608093Y-53494459D01*
X179668662Y-53675173D01*
X179670018Y-53679812D01*
X179715317Y-53860654D01*
X179758696Y-54045090D01*
X179759672Y-54050189D01*
X179787337Y-54236689D01*
X179813177Y-54421933D01*
X179813697Y-54427459D01*
X179823512Y-54627238D01*
X179831434Y-54798575D01*
X179831500Y-54801439D01*
X179831500Y-95210960D01*
X179831434Y-95213824D01*
X179823512Y-95385161D01*
X179813697Y-95584939D01*
X179813177Y-95590465D01*
X179787337Y-95775710D01*
X179759672Y-95962209D01*
X179758696Y-95967308D01*
X179715317Y-96151745D01*
X179670018Y-96332586D01*
X179668662Y-96337225D01*
X179608093Y-96517940D01*
X179545557Y-96692714D01*
X179543899Y-96696870D01*
X179466638Y-96871852D01*
X179387410Y-97039364D01*
X179385527Y-97043027D01*
X179292221Y-97210542D01*
X179197032Y-97369354D01*
X179195002Y-97372518D01*
X179086437Y-97531008D01*
X178976121Y-97679750D01*
X178974021Y-97682425D01*
X178851132Y-97830416D01*
X178726695Y-97967710D01*
X178724596Y-97969914D01*
X178589514Y-98104996D01*
X178587310Y-98107095D01*
X178450016Y-98231532D01*
X178302025Y-98354421D01*
X178299350Y-98356521D01*
X178150608Y-98466837D01*
X177992118Y-98575402D01*
X177988954Y-98577432D01*
X177830142Y-98672621D01*
X177662627Y-98765927D01*
X177658964Y-98767810D01*
X177491452Y-98847038D01*
X177316470Y-98924299D01*
X177312314Y-98925957D01*
X177137540Y-98988493D01*
X176956825Y-99049062D01*
X176952186Y-99050418D01*
X176771345Y-99095717D01*
X176586908Y-99139096D01*
X176581809Y-99140072D01*
X176395310Y-99167737D01*
X176210065Y-99193577D01*
X176204539Y-99194097D01*
X176004761Y-99203912D01*
X175833424Y-99211834D01*
X175830560Y-99211900D01*
X114109077Y-99211900D01*
X114042038Y-99192215D01*
X113996283Y-99139411D01*
X113985077Y-99088251D01*
X113978818Y-96875600D01*
X169217153Y-96875600D01*
X169237634Y-97018056D01*
X169297422Y-97148971D01*
X169297423Y-97148973D01*
X169391672Y-97257743D01*
X169512747Y-97335553D01*
X169512750Y-97335554D01*
X169512749Y-97335554D01*
X169650836Y-97376099D01*
X169650838Y-97376100D01*
X169650839Y-97376100D01*
X169794762Y-97376100D01*
X169794762Y-97376099D01*
X169932853Y-97335553D01*
X170053928Y-97257743D01*
X170148177Y-97148973D01*
X170207965Y-97018057D01*
X170228447Y-96875600D01*
X170207965Y-96733143D01*
X170148177Y-96602227D01*
X170053928Y-96493457D01*
X169932853Y-96415647D01*
X169932851Y-96415646D01*
X169932849Y-96415645D01*
X169932850Y-96415645D01*
X169794763Y-96375100D01*
X169794761Y-96375100D01*
X169650839Y-96375100D01*
X169650836Y-96375100D01*
X169512749Y-96415645D01*
X169391673Y-96493456D01*
X169297423Y-96602226D01*
X169297422Y-96602228D01*
X169237634Y-96733143D01*
X169217153Y-96875600D01*
X113978818Y-96875600D01*
X113973693Y-95063763D01*
X173558187Y-95063763D01*
X173587813Y-95333013D01*
X173587815Y-95333024D01*
X173655119Y-95590465D01*
X173656328Y-95595088D01*
X173762270Y-95844390D01*
X173825079Y-95947306D01*
X173903379Y-96075605D01*
X173903386Y-96075615D01*
X174076653Y-96283819D01*
X174076659Y-96283824D01*
X174178530Y-96375100D01*
X174278398Y-96464582D01*
X174504310Y-96614044D01*
X174749576Y-96729020D01*
X174749583Y-96729022D01*
X174749585Y-96729023D01*
X175008957Y-96807057D01*
X175008964Y-96807058D01*
X175008969Y-96807060D01*
X175276961Y-96846500D01*
X175276966Y-96846500D01*
X175480036Y-96846500D01*
X175531533Y-96842730D01*
X175682556Y-96831677D01*
X175795158Y-96806593D01*
X175946946Y-96772782D01*
X175946948Y-96772781D01*
X175946953Y-96772780D01*
X176199958Y-96676014D01*
X176436177Y-96543441D01*
X176650577Y-96377888D01*
X176838586Y-96182881D01*
X176996199Y-95962579D01*
X177097429Y-95765685D01*
X177120049Y-95721690D01*
X177120051Y-95721684D01*
X177120056Y-95721675D01*
X177207518Y-95465305D01*
X177256719Y-95198933D01*
X177266612Y-94928235D01*
X177236986Y-94658982D01*
X177168472Y-94396912D01*
X177062530Y-94147610D01*
X176921418Y-93916390D01*
X176832147Y-93809119D01*
X176748146Y-93708180D01*
X176748140Y-93708175D01*
X176546402Y-93527418D01*
X176320492Y-93377957D01*
X176320490Y-93377956D01*
X176075224Y-93262980D01*
X176075219Y-93262978D01*
X176075214Y-93262976D01*
X175815842Y-93184942D01*
X175815828Y-93184939D01*
X175700191Y-93167921D01*
X175547839Y-93145500D01*
X175344769Y-93145500D01*
X175344764Y-93145500D01*
X175142244Y-93160323D01*
X175142231Y-93160325D01*
X174877853Y-93219217D01*
X174877846Y-93219220D01*
X174624839Y-93315987D01*
X174388626Y-93448557D01*
X174174222Y-93614112D01*
X173986222Y-93809109D01*
X173986216Y-93809116D01*
X173828602Y-94029419D01*
X173828599Y-94029424D01*
X173704750Y-94270309D01*
X173704743Y-94270327D01*
X173617284Y-94526685D01*
X173617281Y-94526699D01*
X173568081Y-94793068D01*
X173568080Y-94793075D01*
X173558187Y-95063763D01*
X113973693Y-95063763D01*
X113959665Y-90104999D01*
X163017396Y-90104999D01*
X163037778Y-90363990D01*
X163098427Y-90616610D01*
X163197843Y-90856623D01*
X163197845Y-90856627D01*
X163197846Y-90856628D01*
X163333588Y-91078140D01*
X163502311Y-91275689D01*
X163699860Y-91444412D01*
X163921372Y-91580154D01*
X163921374Y-91580154D01*
X163921376Y-91580156D01*
X163982693Y-91605554D01*
X164161390Y-91679573D01*
X164414006Y-91740221D01*
X164673000Y-91760604D01*
X164931994Y-91740221D01*
X165184610Y-91679573D01*
X165424628Y-91580154D01*
X165646140Y-91444412D01*
X165843689Y-91275689D01*
X166012412Y-91078140D01*
X166148154Y-90856628D01*
X166247573Y-90616610D01*
X166308221Y-90363994D01*
X166328604Y-90105000D01*
X166308221Y-89846006D01*
X166247573Y-89593390D01*
X166148154Y-89353372D01*
X166012412Y-89131860D01*
X165843689Y-88934311D01*
X165646140Y-88765588D01*
X165424628Y-88629846D01*
X165424627Y-88629845D01*
X165424623Y-88629843D01*
X165258627Y-88561086D01*
X165184610Y-88530427D01*
X165184611Y-88530427D01*
X165046921Y-88497370D01*
X164931994Y-88469779D01*
X164931992Y-88469778D01*
X164931991Y-88469778D01*
X164673000Y-88449396D01*
X164414009Y-88469778D01*
X164161389Y-88530427D01*
X163921376Y-88629843D01*
X163699859Y-88765588D01*
X163502311Y-88934311D01*
X163333588Y-89131859D01*
X163197843Y-89353376D01*
X163098427Y-89593389D01*
X163037778Y-89846009D01*
X163017396Y-90104999D01*
X113959665Y-90104999D01*
X113952480Y-87565000D01*
X117297396Y-87565000D01*
X117317778Y-87823990D01*
X117378427Y-88076610D01*
X117477843Y-88316623D01*
X117477845Y-88316627D01*
X117477846Y-88316628D01*
X117613588Y-88538140D01*
X117782311Y-88735689D01*
X117979860Y-88904412D01*
X118201372Y-89040154D01*
X118201374Y-89040154D01*
X118201376Y-89040156D01*
X118262693Y-89065554D01*
X118441390Y-89139573D01*
X118694006Y-89200221D01*
X118953000Y-89220604D01*
X119211994Y-89200221D01*
X119464610Y-89139573D01*
X119704628Y-89040154D01*
X119926140Y-88904412D01*
X120123689Y-88735689D01*
X120292412Y-88538140D01*
X120428154Y-88316628D01*
X120527573Y-88076610D01*
X120588221Y-87823994D01*
X120608604Y-87565000D01*
X120588221Y-87306006D01*
X120527573Y-87053390D01*
X120428154Y-86813372D01*
X120292412Y-86591860D01*
X120123689Y-86394311D01*
X119926140Y-86225588D01*
X119704628Y-86089846D01*
X119704627Y-86089845D01*
X119704623Y-86089843D01*
X119538627Y-86021086D01*
X119464610Y-85990427D01*
X119464611Y-85990427D01*
X119326921Y-85957370D01*
X119211994Y-85929779D01*
X119211992Y-85929778D01*
X119211991Y-85929778D01*
X118953000Y-85909396D01*
X118694009Y-85929778D01*
X118441389Y-85990427D01*
X118201376Y-86089843D01*
X117979859Y-86225588D01*
X117782311Y-86394311D01*
X117613588Y-86591859D01*
X117477843Y-86813376D01*
X117378427Y-87053389D01*
X117317778Y-87306009D01*
X117297396Y-87565000D01*
X113952480Y-87565000D01*
X113938109Y-82484999D01*
X117297396Y-82484999D01*
X117317778Y-82743990D01*
X117378427Y-82996610D01*
X117477843Y-83236623D01*
X117477845Y-83236627D01*
X117477846Y-83236628D01*
X117613588Y-83458140D01*
X117782311Y-83655689D01*
X117979860Y-83824412D01*
X118201372Y-83960154D01*
X118201374Y-83960154D01*
X118201376Y-83960156D01*
X118262693Y-83985554D01*
X118441390Y-84059573D01*
X118694006Y-84120221D01*
X118953000Y-84140604D01*
X119211994Y-84120221D01*
X119464610Y-84059573D01*
X119704628Y-83960154D01*
X119926140Y-83824412D01*
X120123689Y-83655689D01*
X120292412Y-83458140D01*
X120428154Y-83236628D01*
X120527573Y-82996610D01*
X120588221Y-82743994D01*
X120608604Y-82485000D01*
X120588221Y-82226006D01*
X120527573Y-81973390D01*
X120428154Y-81733372D01*
X120292412Y-81511860D01*
X120123689Y-81314311D01*
X119926140Y-81145588D01*
X119704628Y-81009846D01*
X119704627Y-81009845D01*
X119704623Y-81009843D01*
X119538627Y-80941086D01*
X119464610Y-80910427D01*
X119464611Y-80910427D01*
X119326921Y-80877370D01*
X119211994Y-80849779D01*
X119211992Y-80849778D01*
X119211991Y-80849778D01*
X118953000Y-80829396D01*
X118694009Y-80849778D01*
X118441389Y-80910427D01*
X118201376Y-81009843D01*
X117979859Y-81145588D01*
X117782311Y-81314311D01*
X117613588Y-81511859D01*
X117477843Y-81733376D01*
X117378427Y-81973389D01*
X117317778Y-82226009D01*
X117297396Y-82484999D01*
X113938109Y-82484999D01*
X113909368Y-72324999D01*
X117297396Y-72324999D01*
X117317778Y-72583990D01*
X117378427Y-72836610D01*
X117477843Y-73076623D01*
X117477845Y-73076627D01*
X117477846Y-73076628D01*
X117613588Y-73298140D01*
X117782311Y-73495689D01*
X117979860Y-73664412D01*
X118201372Y-73800154D01*
X118201374Y-73800154D01*
X118201376Y-73800156D01*
X118262693Y-73825554D01*
X118441390Y-73899573D01*
X118694006Y-73960221D01*
X118953000Y-73980604D01*
X119211994Y-73960221D01*
X119464610Y-73899573D01*
X119704628Y-73800154D01*
X119926140Y-73664412D01*
X120123689Y-73495689D01*
X120292412Y-73298140D01*
X120428154Y-73076628D01*
X120527573Y-72836610D01*
X120588221Y-72583994D01*
X120608604Y-72325000D01*
X120588221Y-72066006D01*
X120527573Y-71813390D01*
X120428154Y-71573372D01*
X120292412Y-71351860D01*
X120123689Y-71154311D01*
X119926140Y-70985588D01*
X119704628Y-70849846D01*
X119704627Y-70849845D01*
X119704623Y-70849843D01*
X119538627Y-70781086D01*
X119464610Y-70750427D01*
X119464611Y-70750427D01*
X119272424Y-70704287D01*
X119211994Y-70689779D01*
X119211992Y-70689778D01*
X119211991Y-70689778D01*
X118953000Y-70669396D01*
X118694009Y-70689778D01*
X118441389Y-70750427D01*
X118201376Y-70849843D01*
X117979859Y-70985588D01*
X117782311Y-71154311D01*
X117613588Y-71351859D01*
X117477843Y-71573376D01*
X117378427Y-71813389D01*
X117317778Y-72066009D01*
X117297396Y-72324999D01*
X113909368Y-72324999D01*
X113893952Y-66875551D01*
X113913447Y-66808456D01*
X113966122Y-66762552D01*
X114017952Y-66751200D01*
X121568248Y-66751200D01*
X121635287Y-66770885D01*
X121655929Y-66787519D01*
X135766194Y-80897784D01*
X135776019Y-80910048D01*
X135776240Y-80909866D01*
X135781210Y-80915873D01*
X135781213Y-80915876D01*
X135781214Y-80915877D01*
X135831651Y-80963241D01*
X135852530Y-80984120D01*
X135858004Y-80988366D01*
X135862442Y-80992156D01*
X135896418Y-81024062D01*
X135896422Y-81024064D01*
X135913973Y-81033713D01*
X135930231Y-81044392D01*
X135946064Y-81056674D01*
X135968015Y-81066172D01*
X135988837Y-81075183D01*
X135994081Y-81077752D01*
X136034908Y-81100197D01*
X136054312Y-81105179D01*
X136072710Y-81111478D01*
X136091105Y-81119438D01*
X136137129Y-81126726D01*
X136142832Y-81127907D01*
X136187981Y-81139500D01*
X136208016Y-81139500D01*
X136227413Y-81141026D01*
X136247196Y-81144160D01*
X136293583Y-81139775D01*
X136299422Y-81139500D01*
X140680814Y-81139500D01*
X140728266Y-81148939D01*
X140764398Y-81163905D01*
X140849620Y-81199205D01*
X140965798Y-81214500D01*
X140965805Y-81214500D01*
X141231195Y-81214500D01*
X141231202Y-81214500D01*
X141347380Y-81199205D01*
X141408377Y-81173938D01*
X141455825Y-81164499D01*
X142516168Y-81164499D01*
X142563620Y-81173937D01*
X142624620Y-81199205D01*
X142740798Y-81214500D01*
X142740805Y-81214500D01*
X143006195Y-81214500D01*
X143006202Y-81214500D01*
X143122380Y-81199205D01*
X143266939Y-81139327D01*
X143391074Y-81044074D01*
X143486327Y-80919939D01*
X143546205Y-80775380D01*
X143561500Y-80659202D01*
X143561500Y-80368798D01*
X143550168Y-80282727D01*
X143560933Y-80213696D01*
X143585423Y-80178867D01*
X143819290Y-79945000D01*
X163017898Y-79945000D01*
X163038274Y-80203912D01*
X163098901Y-80456445D01*
X163098906Y-80456462D01*
X163198290Y-80696397D01*
X163198292Y-80696400D01*
X163333992Y-80917842D01*
X163333993Y-80917843D01*
X163339801Y-80924644D01*
X163884667Y-80379778D01*
X163945990Y-80346293D01*
X164015681Y-80351277D01*
X164071615Y-80393148D01*
X164071811Y-80393411D01*
X164123756Y-80463185D01*
X164229223Y-80551683D01*
X164267925Y-80609854D01*
X164269033Y-80679715D01*
X164237198Y-80734353D01*
X163693354Y-81278197D01*
X163700157Y-81284007D01*
X163921599Y-81419707D01*
X163921602Y-81419709D01*
X164161537Y-81519093D01*
X164161554Y-81519098D01*
X164414088Y-81579725D01*
X164414087Y-81579725D01*
X164672999Y-81600101D01*
X164931912Y-81579725D01*
X165184445Y-81519098D01*
X165184462Y-81519093D01*
X165424397Y-81419709D01*
X165424400Y-81419707D01*
X165645844Y-81284005D01*
X165652644Y-81278197D01*
X165108875Y-80734428D01*
X165075390Y-80673105D01*
X165080374Y-80603413D01*
X165122246Y-80547480D01*
X165128398Y-80543159D01*
X165158373Y-80523445D01*
X165278688Y-80395918D01*
X165278687Y-80395918D01*
X165283645Y-80390664D01*
X165284842Y-80391793D01*
X165333629Y-80355052D01*
X165403306Y-80349866D01*
X165464726Y-80383173D01*
X166006197Y-80924644D01*
X166012005Y-80917844D01*
X166147707Y-80696400D01*
X166147709Y-80696397D01*
X166247093Y-80456462D01*
X166247098Y-80456445D01*
X166307725Y-80203912D01*
X166328101Y-79945000D01*
X166307725Y-79686087D01*
X166247098Y-79433554D01*
X166247093Y-79433537D01*
X166147709Y-79193602D01*
X166147707Y-79193599D01*
X166012007Y-78972157D01*
X166006197Y-78965354D01*
X165461331Y-79510220D01*
X165400008Y-79543705D01*
X165330316Y-79538721D01*
X165274383Y-79496849D01*
X165274291Y-79496726D01*
X165222244Y-79426815D01*
X165173409Y-79385837D01*
X165116775Y-79338315D01*
X165078073Y-79280143D01*
X165076965Y-79210283D01*
X165108800Y-79155645D01*
X165652644Y-78611801D01*
X165645843Y-78605993D01*
X165645842Y-78605992D01*
X165424400Y-78470292D01*
X165424397Y-78470290D01*
X165184462Y-78370906D01*
X165184445Y-78370901D01*
X164931911Y-78310274D01*
X164931912Y-78310274D01*
X164672999Y-78289898D01*
X164414087Y-78310274D01*
X164161554Y-78370901D01*
X164161537Y-78370906D01*
X163921602Y-78470290D01*
X163921599Y-78470292D01*
X163700155Y-78605993D01*
X163693353Y-78611800D01*
X164237124Y-79155571D01*
X164270609Y-79216894D01*
X164265625Y-79286586D01*
X164223753Y-79342519D01*
X164217583Y-79346852D01*
X164187627Y-79366554D01*
X164062355Y-79499335D01*
X164061163Y-79498210D01*
X164012324Y-79534962D01*
X163942646Y-79540122D01*
X163881238Y-79506791D01*
X163339800Y-78965353D01*
X163333993Y-78972155D01*
X163198292Y-79193599D01*
X163198290Y-79193602D01*
X163098906Y-79433537D01*
X163098901Y-79433554D01*
X163038274Y-79686087D01*
X163017898Y-79945000D01*
X143819290Y-79945000D01*
X144198587Y-79565704D01*
X144210842Y-79555888D01*
X144210659Y-79555666D01*
X144216666Y-79550694D01*
X144216677Y-79550688D01*
X144257899Y-79506791D01*
X144264027Y-79500266D01*
X144274471Y-79489820D01*
X144284920Y-79479373D01*
X144289179Y-79473880D01*
X144292952Y-79469463D01*
X144324862Y-79435484D01*
X144334513Y-79417926D01*
X144345196Y-79401663D01*
X144357473Y-79385838D01*
X144375985Y-79343055D01*
X144378538Y-79337843D01*
X144400997Y-79296994D01*
X144405980Y-79277582D01*
X144412281Y-79259182D01*
X144420237Y-79240798D01*
X144427529Y-79194754D01*
X144428706Y-79189073D01*
X144440300Y-79143921D01*
X144440300Y-79123884D01*
X144441827Y-79104484D01*
X144444960Y-79084706D01*
X144440575Y-79038317D01*
X144440300Y-79032479D01*
X144440300Y-75266742D01*
X144442024Y-75251122D01*
X144441739Y-75251095D01*
X144442473Y-75243333D01*
X144440300Y-75174172D01*
X144440300Y-75144656D01*
X144440300Y-75144650D01*
X144439431Y-75137779D01*
X144438973Y-75131952D01*
X144437510Y-75085373D01*
X144431919Y-75066130D01*
X144427973Y-75047078D01*
X144425464Y-75027208D01*
X144408304Y-74983867D01*
X144406424Y-74978379D01*
X144393418Y-74933610D01*
X144383222Y-74916370D01*
X144374661Y-74898894D01*
X144367287Y-74880270D01*
X144367286Y-74880268D01*
X144339879Y-74842545D01*
X144336688Y-74837686D01*
X144312972Y-74797583D01*
X144312965Y-74797574D01*
X144298806Y-74783415D01*
X144286168Y-74768619D01*
X144274394Y-74752413D01*
X144238488Y-74722709D01*
X144234176Y-74718786D01*
X139300390Y-69785000D01*
X163017396Y-69785000D01*
X163037778Y-70043990D01*
X163098427Y-70296610D01*
X163197843Y-70536623D01*
X163197845Y-70536627D01*
X163197846Y-70536628D01*
X163333588Y-70758140D01*
X163502311Y-70955689D01*
X163699860Y-71124412D01*
X163921372Y-71260154D01*
X163921374Y-71260154D01*
X163921376Y-71260156D01*
X163982693Y-71285554D01*
X164161390Y-71359573D01*
X164414006Y-71420221D01*
X164673000Y-71440604D01*
X164931994Y-71420221D01*
X165184610Y-71359573D01*
X165424628Y-71260154D01*
X165646140Y-71124412D01*
X165843689Y-70955689D01*
X166012412Y-70758140D01*
X166148154Y-70536628D01*
X166247573Y-70296610D01*
X166308221Y-70043994D01*
X166328604Y-69785000D01*
X166308221Y-69526006D01*
X166247573Y-69273390D01*
X166148154Y-69033372D01*
X166012412Y-68811860D01*
X165843689Y-68614311D01*
X165646140Y-68445588D01*
X165424628Y-68309846D01*
X165424627Y-68309845D01*
X165424623Y-68309843D01*
X165258627Y-68241086D01*
X165184610Y-68210427D01*
X165184611Y-68210427D01*
X165046921Y-68177370D01*
X164931994Y-68149779D01*
X164931992Y-68149778D01*
X164931991Y-68149778D01*
X164673000Y-68129396D01*
X164414009Y-68149778D01*
X164161389Y-68210427D01*
X163921376Y-68309843D01*
X163699859Y-68445588D01*
X163502311Y-68614311D01*
X163333588Y-68811859D01*
X163197843Y-69033376D01*
X163098427Y-69273389D01*
X163037778Y-69526009D01*
X163017396Y-69785000D01*
X139300390Y-69785000D01*
X132054493Y-62539102D01*
X132021008Y-62477779D01*
X132018175Y-62451754D01*
X132002301Y-56261006D01*
X149851700Y-56261006D01*
X149870864Y-56492297D01*
X149870866Y-56492308D01*
X149927842Y-56717300D01*
X150021075Y-56929848D01*
X150148016Y-57124147D01*
X150148019Y-57124151D01*
X150148021Y-57124153D01*
X150305216Y-57294913D01*
X150305219Y-57294915D01*
X150305222Y-57294918D01*
X150488365Y-57437464D01*
X150488371Y-57437468D01*
X150488374Y-57437470D01*
X150692497Y-57547936D01*
X150806487Y-57587068D01*
X150912015Y-57623297D01*
X150912017Y-57623297D01*
X150912019Y-57623298D01*
X151140951Y-57661500D01*
X151140952Y-57661500D01*
X151373048Y-57661500D01*
X151373049Y-57661500D01*
X151601981Y-57623298D01*
X151821503Y-57547936D01*
X152025626Y-57437470D01*
X152208784Y-57294913D01*
X152365979Y-57124153D01*
X152492924Y-56929849D01*
X152586157Y-56717300D01*
X152643134Y-56492305D01*
X152645431Y-56464582D01*
X152662300Y-56261006D01*
X152662300Y-56260993D01*
X152643135Y-56029702D01*
X152643133Y-56029691D01*
X152638906Y-56013001D01*
X157252500Y-56013001D01*
X157252501Y-56013018D01*
X157263000Y-56115796D01*
X157263001Y-56115799D01*
X157318185Y-56282331D01*
X157318187Y-56282336D01*
X157319105Y-56283824D01*
X157410288Y-56431656D01*
X157534344Y-56555712D01*
X157683666Y-56647814D01*
X157850203Y-56702999D01*
X157952991Y-56713500D01*
X159293008Y-56713499D01*
X159395797Y-56702999D01*
X159562334Y-56647814D01*
X159711656Y-56555712D01*
X159835712Y-56431656D01*
X159927814Y-56282334D01*
X159927817Y-56282322D01*
X159929095Y-56279584D01*
X159930480Y-56278010D01*
X159931605Y-56276187D01*
X159931916Y-56276379D01*
X159975263Y-56227141D01*
X160042455Y-56207983D01*
X160109338Y-56228193D01*
X160131005Y-56246179D01*
X160254603Y-56375139D01*
X160254604Y-56375140D01*
X160442097Y-56513810D01*
X160650338Y-56618803D01*
X160873330Y-56687093D01*
X160873328Y-56687093D01*
X160912999Y-56692173D01*
X160913000Y-56692172D01*
X160913000Y-55826615D01*
X160932685Y-55759576D01*
X160985489Y-55713821D01*
X161053183Y-55703676D01*
X161124003Y-55713000D01*
X161124010Y-55713000D01*
X161201990Y-55713000D01*
X161201997Y-55713000D01*
X161272816Y-55703676D01*
X161341849Y-55714441D01*
X161394105Y-55760820D01*
X161413000Y-55826615D01*
X161413000Y-56690574D01*
X161565618Y-56657683D01*
X161565619Y-56657683D01*
X161782005Y-56570732D01*
X161980592Y-56448458D01*
X162155656Y-56294382D01*
X162155660Y-56294378D01*
X162302157Y-56112945D01*
X162302164Y-56112934D01*
X162324789Y-56072435D01*
X162374668Y-56023508D01*
X162443081Y-56009315D01*
X162508307Y-56034362D01*
X162535778Y-56063471D01*
X162569403Y-56113220D01*
X162632847Y-56207088D01*
X162661308Y-56236784D01*
X162794272Y-56375516D01*
X162794273Y-56375517D01*
X162981834Y-56514237D01*
X162981836Y-56514238D01*
X162981839Y-56514240D01*
X163190153Y-56619270D01*
X163413220Y-56687583D01*
X163644624Y-56717216D01*
X163877707Y-56707314D01*
X164105765Y-56658164D01*
X164322235Y-56571179D01*
X164520891Y-56448862D01*
X164696018Y-56294731D01*
X164842578Y-56113220D01*
X164862373Y-56077784D01*
X164865376Y-56072410D01*
X164915255Y-56023483D01*
X164983668Y-56009290D01*
X165048894Y-56034337D01*
X165076365Y-56063446D01*
X165173235Y-56206771D01*
X165334603Y-56375139D01*
X165334604Y-56375140D01*
X165522097Y-56513810D01*
X165730338Y-56618803D01*
X165953330Y-56687093D01*
X165953328Y-56687093D01*
X165992999Y-56692173D01*
X165993000Y-56692173D01*
X165993000Y-55826615D01*
X166012685Y-55759576D01*
X166065489Y-55713821D01*
X166133183Y-55703676D01*
X166204003Y-55713000D01*
X166204010Y-55713000D01*
X166281990Y-55713000D01*
X166281997Y-55713000D01*
X166352816Y-55703676D01*
X166421849Y-55714441D01*
X166474105Y-55760820D01*
X166493000Y-55826615D01*
X166493000Y-56690574D01*
X166645618Y-56657683D01*
X166645619Y-56657683D01*
X166862005Y-56570732D01*
X167060592Y-56448458D01*
X167235656Y-56294382D01*
X167235660Y-56294378D01*
X167382157Y-56112945D01*
X167382161Y-56112939D01*
X167495895Y-55909346D01*
X167573585Y-55689461D01*
X167573587Y-55689453D01*
X167612999Y-55459612D01*
X167613000Y-55459603D01*
X167613000Y-55368000D01*
X166951616Y-55368000D01*
X166884577Y-55348315D01*
X166838822Y-55295511D01*
X166828677Y-55227815D01*
X166843134Y-55118001D01*
X166843134Y-55117998D01*
X166835994Y-55063763D01*
X173558187Y-55063763D01*
X173587813Y-55333013D01*
X173587815Y-55333024D01*
X173655560Y-55592151D01*
X173656328Y-55595088D01*
X173762270Y-55844390D01*
X173878209Y-56034362D01*
X173903379Y-56075605D01*
X173903386Y-56075615D01*
X174076653Y-56283819D01*
X174076659Y-56283824D01*
X174088830Y-56294729D01*
X174278398Y-56464582D01*
X174504310Y-56614044D01*
X174749576Y-56729020D01*
X174749583Y-56729022D01*
X174749585Y-56729023D01*
X175008957Y-56807057D01*
X175008964Y-56807058D01*
X175008969Y-56807060D01*
X175276961Y-56846500D01*
X175276966Y-56846500D01*
X175480036Y-56846500D01*
X175531533Y-56842730D01*
X175682556Y-56831677D01*
X175795158Y-56806593D01*
X175946946Y-56772782D01*
X175946948Y-56772781D01*
X175946953Y-56772780D01*
X176199958Y-56676014D01*
X176436177Y-56543441D01*
X176650577Y-56377888D01*
X176838586Y-56182881D01*
X176996199Y-55962579D01*
X177079160Y-55801219D01*
X177120049Y-55721690D01*
X177120051Y-55721684D01*
X177120056Y-55721675D01*
X177207518Y-55465305D01*
X177256719Y-55198933D01*
X177266612Y-54928235D01*
X177236986Y-54658982D01*
X177168472Y-54396912D01*
X177062530Y-54147610D01*
X176921418Y-53916390D01*
X176875205Y-53860859D01*
X176748146Y-53708180D01*
X176748140Y-53708175D01*
X176546402Y-53527418D01*
X176320492Y-53377957D01*
X176271977Y-53355214D01*
X176075224Y-53262980D01*
X176075219Y-53262978D01*
X176075214Y-53262976D01*
X175815842Y-53184942D01*
X175815828Y-53184939D01*
X175700191Y-53167921D01*
X175547839Y-53145500D01*
X175344769Y-53145500D01*
X175344764Y-53145500D01*
X175142244Y-53160323D01*
X175142231Y-53160325D01*
X174877853Y-53219217D01*
X174877846Y-53219220D01*
X174624839Y-53315987D01*
X174388626Y-53448557D01*
X174174222Y-53614112D01*
X173986222Y-53809109D01*
X173986216Y-53809116D01*
X173828602Y-54029419D01*
X173828599Y-54029424D01*
X173704750Y-54270309D01*
X173704743Y-54270327D01*
X173617284Y-54526685D01*
X173617281Y-54526699D01*
X173568081Y-54793068D01*
X173568080Y-54793075D01*
X173558187Y-55063763D01*
X166835994Y-55063763D01*
X166828677Y-55008185D01*
X166839443Y-54939150D01*
X166885823Y-54886894D01*
X166951616Y-54868000D01*
X167613000Y-54868000D01*
X167613000Y-54834799D01*
X167598177Y-54660636D01*
X167539412Y-54434948D01*
X167443356Y-54222447D01*
X167443351Y-54222439D01*
X167312764Y-54029228D01*
X167151396Y-53860860D01*
X167151395Y-53860859D01*
X166963902Y-53722189D01*
X166755661Y-53617196D01*
X166532675Y-53548907D01*
X166532669Y-53548906D01*
X166493000Y-53543825D01*
X166493000Y-54409384D01*
X166473315Y-54476423D01*
X166420511Y-54522178D01*
X166352815Y-54532323D01*
X166282007Y-54523001D01*
X166282002Y-54523000D01*
X166281997Y-54523000D01*
X166204003Y-54523000D01*
X166203997Y-54523000D01*
X166203992Y-54523001D01*
X166133185Y-54532323D01*
X166064150Y-54521557D01*
X166011894Y-54475177D01*
X165993000Y-54409384D01*
X165993000Y-53545424D01*
X165992999Y-53545424D01*
X165840380Y-53578316D01*
X165840379Y-53578316D01*
X165623994Y-53665267D01*
X165425407Y-53787541D01*
X165250343Y-53941617D01*
X165250339Y-53941621D01*
X165103842Y-54123054D01*
X165103838Y-54123060D01*
X165081209Y-54163567D01*
X165031328Y-54212492D01*
X164962915Y-54226684D01*
X164897690Y-54201635D01*
X164870221Y-54172528D01*
X164773497Y-54029421D01*
X164773153Y-54028912D01*
X164611728Y-53860484D01*
X164611727Y-53860483D01*
X164611726Y-53860482D01*
X164424165Y-53721762D01*
X164397217Y-53708175D01*
X164215847Y-53616730D01*
X163992780Y-53548417D01*
X163992778Y-53548416D01*
X163992776Y-53548416D01*
X163761370Y-53518783D01*
X163528299Y-53528685D01*
X163528290Y-53528686D01*
X163300233Y-53577836D01*
X163300230Y-53577837D01*
X163083768Y-53664819D01*
X162885110Y-53787137D01*
X162709980Y-53941270D01*
X162709977Y-53941273D01*
X162563426Y-54122773D01*
X162563422Y-54122779D01*
X162540622Y-54163592D01*
X162490741Y-54212517D01*
X162422328Y-54226709D01*
X162357103Y-54201660D01*
X162329633Y-54172552D01*
X162232763Y-54029227D01*
X162071396Y-53860860D01*
X162071395Y-53860859D01*
X161883902Y-53722189D01*
X161675661Y-53617196D01*
X161452675Y-53548907D01*
X161452669Y-53548906D01*
X161413000Y-53543825D01*
X161413000Y-54409384D01*
X161393315Y-54476423D01*
X161340511Y-54522178D01*
X161272815Y-54532323D01*
X161202007Y-54523001D01*
X161202002Y-54523000D01*
X161201997Y-54523000D01*
X161124003Y-54523000D01*
X161123997Y-54523000D01*
X161123992Y-54523001D01*
X161053185Y-54532323D01*
X160984150Y-54521557D01*
X160931894Y-54475177D01*
X160913000Y-54409384D01*
X160913000Y-53545424D01*
X160912999Y-53545424D01*
X160760380Y-53578316D01*
X160760379Y-53578316D01*
X160543994Y-53665267D01*
X160345407Y-53787541D01*
X160170343Y-53941617D01*
X160137899Y-53981798D01*
X160080468Y-54021590D01*
X160010640Y-54024015D01*
X159950586Y-53988304D01*
X159929036Y-53956290D01*
X159927816Y-53953674D01*
X159927814Y-53953666D01*
X159835712Y-53804344D01*
X159711656Y-53680288D01*
X159608616Y-53616733D01*
X159562336Y-53588187D01*
X159562331Y-53588185D01*
X159532548Y-53578316D01*
X159395797Y-53533001D01*
X159395795Y-53533000D01*
X159293010Y-53522500D01*
X157952998Y-53522500D01*
X157952981Y-53522501D01*
X157850203Y-53533000D01*
X157850200Y-53533001D01*
X157683668Y-53588185D01*
X157683663Y-53588187D01*
X157534342Y-53680289D01*
X157410289Y-53804342D01*
X157318187Y-53953663D01*
X157318185Y-53953668D01*
X157293147Y-54029228D01*
X157263001Y-54120203D01*
X157263001Y-54120204D01*
X157263000Y-54120204D01*
X157252500Y-54222983D01*
X157252500Y-56013001D01*
X152638906Y-56013001D01*
X152586157Y-55804699D01*
X152492924Y-55592151D01*
X152365981Y-55397849D01*
X152270832Y-55294489D01*
X152239910Y-55231835D01*
X152247770Y-55162409D01*
X152291918Y-55108253D01*
X152318730Y-55094325D01*
X152399084Y-55064355D01*
X152399093Y-55064350D01*
X152514187Y-54978190D01*
X152514190Y-54978187D01*
X152600350Y-54863093D01*
X152600354Y-54863086D01*
X152650596Y-54728379D01*
X152650598Y-54728372D01*
X152656999Y-54668844D01*
X152657000Y-54668827D01*
X152657000Y-53971000D01*
X151817003Y-53971000D01*
X151749964Y-53951315D01*
X151704209Y-53898511D01*
X151694265Y-53829353D01*
X151696112Y-53819408D01*
X151710810Y-53755007D01*
X151710810Y-53755006D01*
X151699979Y-53610468D01*
X151702079Y-53610310D01*
X151705595Y-53552861D01*
X151746890Y-53496501D01*
X151812101Y-53471413D01*
X151822216Y-53471000D01*
X152657000Y-53471000D01*
X152657000Y-52773172D01*
X152656999Y-52773155D01*
X152650598Y-52713627D01*
X152650596Y-52713620D01*
X152600354Y-52578913D01*
X152600350Y-52578906D01*
X152514190Y-52463812D01*
X152514187Y-52463809D01*
X152399093Y-52377649D01*
X152399086Y-52377645D01*
X152264379Y-52327403D01*
X152264372Y-52327401D01*
X152204844Y-52321000D01*
X151507000Y-52321000D01*
X151507000Y-53159178D01*
X151487315Y-53226217D01*
X151434511Y-53271972D01*
X151365353Y-53281916D01*
X151346454Y-53277670D01*
X151324829Y-53271000D01*
X151324827Y-53271000D01*
X151223276Y-53271000D01*
X151223268Y-53271000D01*
X151149481Y-53282122D01*
X151080256Y-53272649D01*
X151027143Y-53227254D01*
X151007003Y-53160350D01*
X151007000Y-53159507D01*
X151007000Y-52321000D01*
X150309155Y-52321000D01*
X150249627Y-52327401D01*
X150249620Y-52327403D01*
X150114913Y-52377645D01*
X150114906Y-52377649D01*
X149999812Y-52463809D01*
X149999809Y-52463812D01*
X149913649Y-52578906D01*
X149913645Y-52578913D01*
X149863403Y-52713620D01*
X149863401Y-52713627D01*
X149857000Y-52773155D01*
X149857000Y-53471000D01*
X150696997Y-53471000D01*
X150764036Y-53490685D01*
X150809791Y-53543489D01*
X150819735Y-53612647D01*
X150817888Y-53622592D01*
X150803189Y-53686992D01*
X150803189Y-53686993D01*
X150814021Y-53831532D01*
X150811920Y-53831689D01*
X150808405Y-53889139D01*
X150767110Y-53945499D01*
X150701899Y-53970587D01*
X150691784Y-53971000D01*
X149857000Y-53971000D01*
X149857000Y-54668844D01*
X149863401Y-54728372D01*
X149863403Y-54728379D01*
X149913645Y-54863086D01*
X149913649Y-54863093D01*
X149999809Y-54978187D01*
X149999812Y-54978190D01*
X150114906Y-55064350D01*
X150114913Y-55064354D01*
X150195270Y-55094325D01*
X150251204Y-55136196D01*
X150275621Y-55201660D01*
X150260770Y-55269933D01*
X150243168Y-55294489D01*
X150207705Y-55333013D01*
X150148021Y-55397847D01*
X150148019Y-55397848D01*
X150148016Y-55397853D01*
X150021075Y-55592151D01*
X149927842Y-55804699D01*
X149870866Y-56029691D01*
X149870864Y-56029702D01*
X149851700Y-56260993D01*
X149851700Y-56261006D01*
X132002301Y-56261006D01*
X131988619Y-50924817D01*
X132008132Y-50857728D01*
X132060819Y-50811838D01*
X132112619Y-50800500D01*
X175830560Y-50800500D01*
X175833423Y-50800566D01*
G37*
%TD.AperFunction*%
%TD*%
M02*
