M48
; DRILL file {KiCad 7.0.7} date 2024 April 17, Wednesday 16:31:02
; FORMAT={-:-/ absolute / inch / decimal}
; #@! TF.CreationDate,2024-04-17T16:31:02-07:00
; #@! TF.GenerationSoftware,Kicad,Pcbnew,7.0.7
; #@! TF.FileFunction,Plated,1,2,PTH
FMAT,2
INCH
; #@! TA.AperFunction,Plated,PTH,ViaDrill
T1C0.0157
; #@! TA.AperFunction,Plated,PTH,ComponentDrill
T2C0.0315
; #@! TA.AperFunction,Plated,PTH,ComponentDrill
T3C0.0354
; #@! TA.AperFunction,Plated,PTH,ComponentDrill
T4C0.0402
; #@! TA.AperFunction,Plated,PTH,ComponentDrill
T5C0.0469
; #@! TA.AperFunction,Plated,PTH,ComponentDrill
T6C0.0591
; #@! TA.AperFunction,Plated,PTH,ComponentDrill
T7C0.0650
; #@! TA.AperFunction,Plated,PTH,ComponentDrill
T8C0.1772
%
G90
G05
T1
X2.946Y-2.9308
X2.946Y-3.0489
X2.946Y-3.167
X2.946Y-3.2851
X3.0641Y-2.9308
X3.0641Y-3.0489
X3.0641Y-3.167
X3.0641Y-3.2851
X3.3003Y-2.2221
X3.4184Y-2.104
X3.4184Y-2.2221
X3.4184Y-3.167
X3.4184Y-3.2851
X3.4184Y-3.4032
X3.4184Y-3.5213
X3.4184Y-3.6394
X3.4184Y-3.7575
X3.5366Y-2.4583
X3.5366Y-2.5764
X3.5366Y-3.167
X3.5366Y-3.2851
X3.5366Y-3.4032
X3.5366Y-3.5213
X3.6547Y-2.4583
X3.6547Y-2.5764
X3.6547Y-2.6946
X3.6547Y-2.8127
X3.6547Y-2.9308
X3.6547Y-3.167
X3.6547Y-3.2851
X3.6547Y-3.4032
X3.6547Y-3.5213
X3.7728Y-2.4583
X3.7728Y-2.5764
X3.7728Y-2.6946
X3.7728Y-2.8127
X3.7728Y-2.9308
X3.7728Y-3.2851
X3.7728Y-3.4032
X3.7728Y-3.5213
X3.872Y-3.602
X3.8909Y-2.104
X3.8909Y-2.2221
X3.9901Y-3.602
X4.009Y-2.104
X4.009Y-2.2221
X4.009Y-3.167
X4.1082Y-3.602
X4.12Y-3.445
X4.1271Y-2.104
X4.1271Y-2.2221
X4.13Y-2.34
X4.21Y-3.14
X4.2263Y-3.602
X4.2452Y-2.104
X4.2452Y-2.2221
X4.2452Y-2.3402
X4.2452Y-2.4583
X4.2452Y-2.5764
X4.3444Y-3.602
X4.3633Y-2.104
X4.3633Y-2.2221
X4.3633Y-2.3402
X4.3633Y-2.4583
X4.3633Y-2.5764
X4.52Y-2.394
X4.524Y-2.318
X4.606Y-2.314
X4.6494Y-2.3446
X4.66Y-2.42
X4.682Y-3.036
X4.682Y-3.1541
X4.8001Y-3.036
X4.8001Y-3.1541
X4.81Y-2.15
X4.81Y-2.235
X4.8111Y-2.056
X4.825Y-2.405
X4.844Y-3.482
X4.844Y-3.6001
X4.844Y-3.7182
X4.844Y-3.8363
X4.9182Y-3.036
X4.9182Y-3.1541
X4.9621Y-3.482
X4.9621Y-3.6001
X4.9621Y-3.7182
X4.9621Y-3.8363
X4.98Y-2.31
X5.0363Y-3.036
X5.0363Y-3.1541
X5.06Y-2.365
X5.075Y-2.315
X5.0802Y-3.6001
X5.0802Y-3.7182
X5.0802Y-3.8363
X5.134Y-2.314
X5.134Y-2.366
X5.152Y-2.506
X5.152Y-2.758
X5.1544Y-3.1541
X5.1544Y-3.2722
X5.2726Y-3.2722
X5.2726Y-3.3903
X5.3861Y-2.058
X5.3861Y-2.1761
X5.3861Y-2.2942
X5.3861Y-2.4123
X5.3907Y-3.2722
X5.3907Y-3.3903
X5.3907Y-3.5084
X5.5042Y-2.058
X5.5042Y-2.1761
X5.5042Y-2.2942
X5.5088Y-3.2722
X5.5088Y-3.3903
X5.5088Y-3.5084
X5.6223Y-2.058
X5.6223Y-2.1761
X5.6223Y-2.2942
X5.6269Y-3.2722
X5.6269Y-3.3903
X5.6269Y-3.5084
X5.69Y-3.81
X5.7404Y-2.058
X5.7404Y-2.1761
X5.7404Y-2.2942
X5.772Y-2.696
X5.772Y-2.8141
X5.772Y-2.9322
X5.772Y-3.0503
X5.772Y-3.1684
X5.772Y-3.2866
X5.772Y-3.4047
X5.772Y-3.5228
X5.78Y-3.81
X5.8901Y-2.696
X5.8901Y-2.8141
X5.8901Y-2.9322
X5.8901Y-3.0503
X5.8901Y-3.1684
X5.8901Y-3.2866
X5.8901Y-3.4047
X5.8901Y-3.5228
X5.8981Y-3.81
X6.004Y-2.55
X6.0082Y-2.696
X6.0082Y-2.8141
X6.0082Y-2.9322
X6.0082Y-3.0503
X6.0082Y-3.1684
X6.0082Y-3.2866
X6.0082Y-3.4047
X6.0082Y-3.5228
X6.0162Y-3.81
X6.1221Y-2.55
X6.1263Y-2.696
X6.1263Y-2.8141
X6.1263Y-2.9322
X6.1263Y-3.0503
X6.1263Y-3.1684
X6.1263Y-3.2866
X6.1263Y-3.4047
X6.1263Y-3.5228
X6.1343Y-3.81
X6.2402Y-2.55
X6.2444Y-2.696
X6.2444Y-2.8141
X6.2444Y-2.9322
X6.2444Y-3.0503
X6.2444Y-3.1684
X6.2444Y-3.2866
X6.2444Y-3.4047
X6.2444Y-3.5228
X6.2524Y-3.81
X6.344Y-2.26
X6.3583Y-2.55
X6.3626Y-2.696
X6.3626Y-2.8141
X6.3626Y-2.9322
X6.3626Y-3.0503
X6.3626Y-3.1684
X6.3626Y-3.2866
X6.3626Y-3.4047
X6.3626Y-3.5228
X6.3706Y-3.81
X6.886Y-2.41
X6.886Y-2.5281
X6.886Y-2.6462
X6.886Y-2.7643
X6.886Y-2.8824
X6.886Y-3.0006
X6.886Y-3.1187
X6.886Y-3.2368
X6.886Y-3.3549
X6.886Y-3.473
X7.0041Y-2.41
X7.0041Y-2.5281
X7.0041Y-2.6462
X7.0041Y-2.7643
X7.0041Y-2.8824
X7.0041Y-3.0006
X7.0041Y-3.1187
X7.0041Y-3.2368
X7.0041Y-3.3549
X7.0041Y-3.473
T2
X4.325Y-3.3066
X4.325Y-3.405
T3
X5.955Y-2.115
X5.955Y-2.215
T4
X3.0879Y-3.528
X3.206Y-3.528
T5
X6.245Y-2.17
X6.345Y-2.17
X6.445Y-2.17
X6.545Y-2.17
T6
X4.6832Y-2.8474
X4.6832Y-3.2474
X4.6832Y-3.4474
X6.4832Y-2.7474
X6.4832Y-3.1474
X6.4832Y-3.5474
T7
X3.435Y-2.57
X3.435Y-2.8102
X4.0059Y-2.57
X4.0059Y-2.8102
T8
X3.045Y-2.3633
X3.045Y-2.6467
T0
M30
