%TF.GenerationSoftware,KiCad,Pcbnew,7.0.7*%
%TF.CreationDate,2024-04-17T16:30:55-07:00*%
%TF.ProjectId,power_board_12V,706f7765-725f-4626-9f61-72645f313256,rev?*%
%TF.SameCoordinates,Original*%
%TF.FileFunction,Legend,Top*%
%TF.FilePolarity,Positive*%
%FSLAX46Y46*%
G04 Gerber Fmt 4.6, Leading zero omitted, Abs format (unit mm)*
G04 Created by KiCad (PCBNEW 7.0.7) date 2024-04-17 16:30:55*
%MOMM*%
%LPD*%
G01*
G04 APERTURE LIST*
%ADD10C,0.150000*%
%ADD11C,0.200000*%
%ADD12C,0.120000*%
%ADD13C,0.100000*%
G04 APERTURE END LIST*
D10*
X165944779Y-51431866D02*
X166706684Y-51431866D01*
X160864779Y-51431866D02*
X161626684Y-51431866D01*
X163404779Y-51431866D02*
X164166684Y-51431866D01*
X163785731Y-51812819D02*
X163785731Y-51050914D01*
X158197779Y-51431866D02*
X158959684Y-51431866D01*
X158578731Y-51812819D02*
X158578731Y-51050914D01*
X76425588Y-86801438D02*
X76330350Y-86753819D01*
X76330350Y-86753819D02*
X76187493Y-86753819D01*
X76187493Y-86753819D02*
X76044636Y-86801438D01*
X76044636Y-86801438D02*
X75949398Y-86896676D01*
X75949398Y-86896676D02*
X75901779Y-86991914D01*
X75901779Y-86991914D02*
X75854160Y-87182390D01*
X75854160Y-87182390D02*
X75854160Y-87325247D01*
X75854160Y-87325247D02*
X75901779Y-87515723D01*
X75901779Y-87515723D02*
X75949398Y-87610961D01*
X75949398Y-87610961D02*
X76044636Y-87706200D01*
X76044636Y-87706200D02*
X76187493Y-87753819D01*
X76187493Y-87753819D02*
X76282731Y-87753819D01*
X76282731Y-87753819D02*
X76425588Y-87706200D01*
X76425588Y-87706200D02*
X76473207Y-87658580D01*
X76473207Y-87658580D02*
X76473207Y-87325247D01*
X76473207Y-87325247D02*
X76282731Y-87325247D01*
X76901779Y-87753819D02*
X76901779Y-86753819D01*
X76901779Y-86753819D02*
X77473207Y-87753819D01*
X77473207Y-87753819D02*
X77473207Y-86753819D01*
X77949398Y-87753819D02*
X77949398Y-86753819D01*
X77949398Y-86753819D02*
X78187493Y-86753819D01*
X78187493Y-86753819D02*
X78330350Y-86801438D01*
X78330350Y-86801438D02*
X78425588Y-86896676D01*
X78425588Y-86896676D02*
X78473207Y-86991914D01*
X78473207Y-86991914D02*
X78520826Y-87182390D01*
X78520826Y-87182390D02*
X78520826Y-87325247D01*
X78520826Y-87325247D02*
X78473207Y-87515723D01*
X78473207Y-87515723D02*
X78425588Y-87610961D01*
X78425588Y-87610961D02*
X78330350Y-87706200D01*
X78330350Y-87706200D02*
X78187493Y-87753819D01*
X78187493Y-87753819D02*
X77949398Y-87753819D01*
X81108779Y-87245866D02*
X81870684Y-87245866D01*
X81489731Y-87626819D02*
X81489731Y-86864914D01*
X82870683Y-87626819D02*
X82299255Y-87626819D01*
X82584969Y-87626819D02*
X82584969Y-86626819D01*
X82584969Y-86626819D02*
X82489731Y-86769676D01*
X82489731Y-86769676D02*
X82394493Y-86864914D01*
X82394493Y-86864914D02*
X82299255Y-86912533D01*
X83251636Y-86722057D02*
X83299255Y-86674438D01*
X83299255Y-86674438D02*
X83394493Y-86626819D01*
X83394493Y-86626819D02*
X83632588Y-86626819D01*
X83632588Y-86626819D02*
X83727826Y-86674438D01*
X83727826Y-86674438D02*
X83775445Y-86722057D01*
X83775445Y-86722057D02*
X83823064Y-86817295D01*
X83823064Y-86817295D02*
X83823064Y-86912533D01*
X83823064Y-86912533D02*
X83775445Y-87055390D01*
X83775445Y-87055390D02*
X83204017Y-87626819D01*
X83204017Y-87626819D02*
X83823064Y-87626819D01*
X84108779Y-86626819D02*
X84442112Y-87626819D01*
X84442112Y-87626819D02*
X84775445Y-86626819D01*
D11*
X100822520Y-96219784D02*
X101163355Y-95631477D01*
X98676862Y-94653430D02*
X99593724Y-96236000D01*
X99906785Y-94607215D02*
X100247620Y-95195521D01*
X98251286Y-97627575D02*
X98399976Y-97761529D01*
X98640761Y-97928972D01*
X98898690Y-98056228D01*
X99169087Y-98143298D01*
X99447276Y-98190182D01*
X99728583Y-98196880D01*
X100008331Y-98163392D01*
X100281844Y-98089717D01*
X100544449Y-97975856D01*
X100791468Y-97821808D01*
X101018227Y-97627575D01*
X97790000Y-96266000D02*
X101457448Y-96266000D01*
X99213735Y-96646595D02*
X99379634Y-96762378D01*
X99595918Y-96815307D01*
X99815487Y-96783549D01*
X100012064Y-96667105D01*
X100033712Y-96646595D01*
X99078895Y-95195521D02*
X99419731Y-94607215D01*
X98072999Y-95647693D02*
X98413834Y-96236000D01*
X98762573Y-97134823D02*
X98955420Y-97291855D01*
X99169147Y-97404021D01*
X99396795Y-97471321D01*
X99631403Y-97493754D01*
X99866011Y-97471321D01*
X100093659Y-97404021D01*
X100307386Y-97291855D01*
X100500234Y-97134823D01*
X98991427Y-95250365D02*
X98309756Y-95250365D01*
X101002765Y-95201476D02*
X100321094Y-95201476D01*
X99653724Y-96236000D02*
X100570586Y-94653430D01*
X73594066Y-71014132D02*
X73660733Y-70880799D01*
X73660733Y-70880799D02*
X73660733Y-70680799D01*
X73660733Y-70680799D02*
X73594066Y-70480799D01*
X73594066Y-70480799D02*
X73460733Y-70347466D01*
X73460733Y-70347466D02*
X73327400Y-70280799D01*
X73327400Y-70280799D02*
X73060733Y-70214132D01*
X73060733Y-70214132D02*
X72860733Y-70214132D01*
X72860733Y-70214132D02*
X72594066Y-70280799D01*
X72594066Y-70280799D02*
X72460733Y-70347466D01*
X72460733Y-70347466D02*
X72327400Y-70480799D01*
X72327400Y-70480799D02*
X72260733Y-70680799D01*
X72260733Y-70680799D02*
X72260733Y-70814132D01*
X72260733Y-70814132D02*
X72327400Y-71014132D01*
X72327400Y-71014132D02*
X72394066Y-71080799D01*
X72394066Y-71080799D02*
X72860733Y-71080799D01*
X72860733Y-71080799D02*
X72860733Y-70814132D01*
X72260733Y-71680799D02*
X73660733Y-71680799D01*
X73660733Y-71680799D02*
X72260733Y-72480799D01*
X72260733Y-72480799D02*
X73660733Y-72480799D01*
X72260733Y-73147466D02*
X73660733Y-73147466D01*
X73660733Y-73147466D02*
X73660733Y-73480799D01*
X73660733Y-73480799D02*
X73594066Y-73680799D01*
X73594066Y-73680799D02*
X73460733Y-73814133D01*
X73460733Y-73814133D02*
X73327400Y-73880799D01*
X73327400Y-73880799D02*
X73060733Y-73947466D01*
X73060733Y-73947466D02*
X72860733Y-73947466D01*
X72860733Y-73947466D02*
X72594066Y-73880799D01*
X72594066Y-73880799D02*
X72460733Y-73814133D01*
X72460733Y-73814133D02*
X72327400Y-73680799D01*
X72327400Y-73680799D02*
X72260733Y-73480799D01*
X72260733Y-73480799D02*
X72260733Y-73147466D01*
X72994066Y-76080800D02*
X72927400Y-76280800D01*
X72927400Y-76280800D02*
X72860733Y-76347466D01*
X72860733Y-76347466D02*
X72727400Y-76414133D01*
X72727400Y-76414133D02*
X72527400Y-76414133D01*
X72527400Y-76414133D02*
X72394066Y-76347466D01*
X72394066Y-76347466D02*
X72327400Y-76280800D01*
X72327400Y-76280800D02*
X72260733Y-76147466D01*
X72260733Y-76147466D02*
X72260733Y-75614133D01*
X72260733Y-75614133D02*
X73660733Y-75614133D01*
X73660733Y-75614133D02*
X73660733Y-76080800D01*
X73660733Y-76080800D02*
X73594066Y-76214133D01*
X73594066Y-76214133D02*
X73527400Y-76280800D01*
X73527400Y-76280800D02*
X73394066Y-76347466D01*
X73394066Y-76347466D02*
X73260733Y-76347466D01*
X73260733Y-76347466D02*
X73127400Y-76280800D01*
X73127400Y-76280800D02*
X73060733Y-76214133D01*
X73060733Y-76214133D02*
X72994066Y-76080800D01*
X72994066Y-76080800D02*
X72994066Y-75614133D01*
X72660733Y-76947466D02*
X72660733Y-77614133D01*
X72260733Y-76814133D02*
X73660733Y-77280800D01*
X73660733Y-77280800D02*
X72260733Y-77747466D01*
X73660733Y-78014133D02*
X73660733Y-78814133D01*
X72260733Y-78414133D02*
X73660733Y-78414133D01*
X73660733Y-79080800D02*
X73660733Y-79880800D01*
X72260733Y-79480800D02*
X73660733Y-79480800D01*
X73182933Y-97146667D02*
X73249600Y-96946667D01*
X73249600Y-96946667D02*
X73316266Y-96880000D01*
X73316266Y-96880000D02*
X73449600Y-96813333D01*
X73449600Y-96813333D02*
X73649600Y-96813333D01*
X73649600Y-96813333D02*
X73782933Y-96880000D01*
X73782933Y-96880000D02*
X73849600Y-96946667D01*
X73849600Y-96946667D02*
X73916266Y-97080000D01*
X73916266Y-97080000D02*
X73916266Y-97613333D01*
X73916266Y-97613333D02*
X72516266Y-97613333D01*
X72516266Y-97613333D02*
X72516266Y-97146667D01*
X72516266Y-97146667D02*
X72582933Y-97013333D01*
X72582933Y-97013333D02*
X72649600Y-96946667D01*
X72649600Y-96946667D02*
X72782933Y-96880000D01*
X72782933Y-96880000D02*
X72916266Y-96880000D01*
X72916266Y-96880000D02*
X73049600Y-96946667D01*
X73049600Y-96946667D02*
X73116266Y-97013333D01*
X73116266Y-97013333D02*
X73182933Y-97146667D01*
X73182933Y-97146667D02*
X73182933Y-97613333D01*
X73516266Y-96280000D02*
X73516266Y-95613333D01*
X73916266Y-96413333D02*
X72516266Y-95946667D01*
X72516266Y-95946667D02*
X73916266Y-95480000D01*
X72516266Y-95213333D02*
X72516266Y-94413333D01*
X73916266Y-94813333D02*
X72516266Y-94813333D01*
X72516266Y-94146666D02*
X72516266Y-93346666D01*
X73916266Y-93746666D02*
X72516266Y-93746666D01*
X73916266Y-91813332D02*
X72516266Y-91813332D01*
X73916266Y-91146665D02*
X72516266Y-91146665D01*
X72516266Y-91146665D02*
X73916266Y-90346665D01*
X73916266Y-90346665D02*
X72516266Y-90346665D01*
X131830342Y-59359314D02*
X131830342Y-58673600D01*
X133030342Y-59016457D02*
X131830342Y-59016457D01*
X132401771Y-58273599D02*
X132401771Y-57873599D01*
X133030342Y-57702171D02*
X133030342Y-58273599D01*
X133030342Y-58273599D02*
X131830342Y-58273599D01*
X131830342Y-58273599D02*
X131830342Y-57702171D01*
X133030342Y-57187885D02*
X131830342Y-57187885D01*
X131830342Y-57187885D02*
X132687485Y-56787885D01*
X132687485Y-56787885D02*
X131830342Y-56387885D01*
X131830342Y-56387885D02*
X133030342Y-56387885D01*
X133030342Y-55816456D02*
X131830342Y-55816456D01*
X131830342Y-55816456D02*
X131830342Y-55359313D01*
X131830342Y-55359313D02*
X131887485Y-55245028D01*
X131887485Y-55245028D02*
X131944628Y-55187885D01*
X131944628Y-55187885D02*
X132058914Y-55130742D01*
X132058914Y-55130742D02*
X132230342Y-55130742D01*
X132230342Y-55130742D02*
X132344628Y-55187885D01*
X132344628Y-55187885D02*
X132401771Y-55245028D01*
X132401771Y-55245028D02*
X132458914Y-55359313D01*
X132458914Y-55359313D02*
X132458914Y-55816456D01*
X133030342Y-53987885D02*
X133030342Y-54673599D01*
X133030342Y-54330742D02*
X131830342Y-54330742D01*
X131830342Y-54330742D02*
X132001771Y-54445028D01*
X132001771Y-54445028D02*
X132116057Y-54559313D01*
X132116057Y-54559313D02*
X132173200Y-54673599D01*
X133030342Y-52845028D02*
X133030342Y-53530742D01*
X133030342Y-53187885D02*
X131830342Y-53187885D01*
X131830342Y-53187885D02*
X132001771Y-53302171D01*
X132001771Y-53302171D02*
X132116057Y-53416456D01*
X132116057Y-53416456D02*
X132173200Y-53530742D01*
X131830342Y-52445028D02*
X131830342Y-51645028D01*
X131830342Y-51645028D02*
X133030342Y-52159314D01*
X134962342Y-59045029D02*
X133762342Y-59045029D01*
X134962342Y-58473600D02*
X133762342Y-58473600D01*
X134848057Y-57216457D02*
X134905200Y-57273600D01*
X134905200Y-57273600D02*
X134962342Y-57445028D01*
X134962342Y-57445028D02*
X134962342Y-57559314D01*
X134962342Y-57559314D02*
X134905200Y-57730743D01*
X134905200Y-57730743D02*
X134790914Y-57845028D01*
X134790914Y-57845028D02*
X134676628Y-57902171D01*
X134676628Y-57902171D02*
X134448057Y-57959314D01*
X134448057Y-57959314D02*
X134276628Y-57959314D01*
X134276628Y-57959314D02*
X134048057Y-57902171D01*
X134048057Y-57902171D02*
X133933771Y-57845028D01*
X133933771Y-57845028D02*
X133819485Y-57730743D01*
X133819485Y-57730743D02*
X133762342Y-57559314D01*
X133762342Y-57559314D02*
X133762342Y-57445028D01*
X133762342Y-57445028D02*
X133819485Y-57273600D01*
X133819485Y-57273600D02*
X133876628Y-57216457D01*
X134962342Y-55787885D02*
X133762342Y-55787885D01*
X133762342Y-55787885D02*
X134619485Y-55387885D01*
X134619485Y-55387885D02*
X133762342Y-54987885D01*
X133762342Y-54987885D02*
X134962342Y-54987885D01*
X133762342Y-54187885D02*
X133762342Y-53959313D01*
X133762342Y-53959313D02*
X133819485Y-53845028D01*
X133819485Y-53845028D02*
X133933771Y-53730742D01*
X133933771Y-53730742D02*
X134162342Y-53673599D01*
X134162342Y-53673599D02*
X134562342Y-53673599D01*
X134562342Y-53673599D02*
X134790914Y-53730742D01*
X134790914Y-53730742D02*
X134905200Y-53845028D01*
X134905200Y-53845028D02*
X134962342Y-53959313D01*
X134962342Y-53959313D02*
X134962342Y-54187885D01*
X134962342Y-54187885D02*
X134905200Y-54302171D01*
X134905200Y-54302171D02*
X134790914Y-54416456D01*
X134790914Y-54416456D02*
X134562342Y-54473599D01*
X134562342Y-54473599D02*
X134162342Y-54473599D01*
X134162342Y-54473599D02*
X133933771Y-54416456D01*
X133933771Y-54416456D02*
X133819485Y-54302171D01*
X133819485Y-54302171D02*
X133762342Y-54187885D01*
X134962342Y-53159313D02*
X133762342Y-53159313D01*
X133762342Y-53159313D02*
X134962342Y-52473599D01*
X134962342Y-52473599D02*
X133762342Y-52473599D01*
X134848057Y-51902170D02*
X134905200Y-51845027D01*
X134905200Y-51845027D02*
X134962342Y-51902170D01*
X134962342Y-51902170D02*
X134905200Y-51959313D01*
X134905200Y-51959313D02*
X134848057Y-51902170D01*
X134848057Y-51902170D02*
X134962342Y-51902170D01*
X104183733Y-96030266D02*
X104183733Y-94630266D01*
X104183733Y-94630266D02*
X104650400Y-95630266D01*
X104650400Y-95630266D02*
X105117066Y-94630266D01*
X105117066Y-94630266D02*
X105117066Y-96030266D01*
X105717066Y-95630266D02*
X106383733Y-95630266D01*
X105583733Y-96030266D02*
X106050400Y-94630266D01*
X106050400Y-94630266D02*
X106517066Y-96030266D01*
X106983733Y-96030266D02*
X106983733Y-94630266D01*
X106983733Y-94630266D02*
X107517066Y-94630266D01*
X107517066Y-94630266D02*
X107650400Y-94696933D01*
X107650400Y-94696933D02*
X107717066Y-94763600D01*
X107717066Y-94763600D02*
X107783733Y-94896933D01*
X107783733Y-94896933D02*
X107783733Y-95096933D01*
X107783733Y-95096933D02*
X107717066Y-95230266D01*
X107717066Y-95230266D02*
X107650400Y-95296933D01*
X107650400Y-95296933D02*
X107517066Y-95363600D01*
X107517066Y-95363600D02*
X106983733Y-95363600D01*
X108383733Y-96030266D02*
X108383733Y-94630266D01*
X108383733Y-94630266D02*
X108917066Y-94630266D01*
X108917066Y-94630266D02*
X109050400Y-94696933D01*
X109050400Y-94696933D02*
X109117066Y-94763600D01*
X109117066Y-94763600D02*
X109183733Y-94896933D01*
X109183733Y-94896933D02*
X109183733Y-95096933D01*
X109183733Y-95096933D02*
X109117066Y-95230266D01*
X109117066Y-95230266D02*
X109050400Y-95296933D01*
X109050400Y-95296933D02*
X108917066Y-95363600D01*
X108917066Y-95363600D02*
X108383733Y-95363600D01*
X109783733Y-95296933D02*
X110250400Y-95296933D01*
X110450400Y-96030266D02*
X109783733Y-96030266D01*
X109783733Y-96030266D02*
X109783733Y-94630266D01*
X109783733Y-94630266D02*
X110450400Y-94630266D01*
X111850400Y-96030266D02*
X111383733Y-95363600D01*
X111050400Y-96030266D02*
X111050400Y-94630266D01*
X111050400Y-94630266D02*
X111583733Y-94630266D01*
X111583733Y-94630266D02*
X111717067Y-94696933D01*
X111717067Y-94696933D02*
X111783733Y-94763600D01*
X111783733Y-94763600D02*
X111850400Y-94896933D01*
X111850400Y-94896933D02*
X111850400Y-95096933D01*
X111850400Y-95096933D02*
X111783733Y-95230266D01*
X111783733Y-95230266D02*
X111717067Y-95296933D01*
X111717067Y-95296933D02*
X111583733Y-95363600D01*
X111583733Y-95363600D02*
X111050400Y-95363600D01*
X113250400Y-96030266D02*
X112783733Y-95363600D01*
X112450400Y-96030266D02*
X112450400Y-94630266D01*
X112450400Y-94630266D02*
X112983733Y-94630266D01*
X112983733Y-94630266D02*
X113117067Y-94696933D01*
X113117067Y-94696933D02*
X113183733Y-94763600D01*
X113183733Y-94763600D02*
X113250400Y-94896933D01*
X113250400Y-94896933D02*
X113250400Y-95096933D01*
X113250400Y-95096933D02*
X113183733Y-95230266D01*
X113183733Y-95230266D02*
X113117067Y-95296933D01*
X113117067Y-95296933D02*
X112983733Y-95363600D01*
X112983733Y-95363600D02*
X112450400Y-95363600D01*
X115650400Y-96030266D02*
X114850400Y-96030266D01*
X115250400Y-96030266D02*
X115250400Y-94630266D01*
X115250400Y-94630266D02*
X115117067Y-94830266D01*
X115117067Y-94830266D02*
X114983734Y-94963600D01*
X114983734Y-94963600D02*
X114850400Y-95030266D01*
X116183733Y-94763600D02*
X116250400Y-94696933D01*
X116250400Y-94696933D02*
X116383733Y-94630266D01*
X116383733Y-94630266D02*
X116717067Y-94630266D01*
X116717067Y-94630266D02*
X116850400Y-94696933D01*
X116850400Y-94696933D02*
X116917067Y-94763600D01*
X116917067Y-94763600D02*
X116983733Y-94896933D01*
X116983733Y-94896933D02*
X116983733Y-95030266D01*
X116983733Y-95030266D02*
X116917067Y-95230266D01*
X116917067Y-95230266D02*
X116117067Y-96030266D01*
X116117067Y-96030266D02*
X116983733Y-96030266D01*
X117383733Y-94630266D02*
X117850400Y-96030266D01*
X117850400Y-96030266D02*
X118317066Y-94630266D01*
X102450399Y-98217600D02*
X102650399Y-98284266D01*
X102650399Y-98284266D02*
X102983733Y-98284266D01*
X102983733Y-98284266D02*
X103117066Y-98217600D01*
X103117066Y-98217600D02*
X103183733Y-98150933D01*
X103183733Y-98150933D02*
X103250399Y-98017600D01*
X103250399Y-98017600D02*
X103250399Y-97884266D01*
X103250399Y-97884266D02*
X103183733Y-97750933D01*
X103183733Y-97750933D02*
X103117066Y-97684266D01*
X103117066Y-97684266D02*
X102983733Y-97617600D01*
X102983733Y-97617600D02*
X102717066Y-97550933D01*
X102717066Y-97550933D02*
X102583733Y-97484266D01*
X102583733Y-97484266D02*
X102517066Y-97417600D01*
X102517066Y-97417600D02*
X102450399Y-97284266D01*
X102450399Y-97284266D02*
X102450399Y-97150933D01*
X102450399Y-97150933D02*
X102517066Y-97017600D01*
X102517066Y-97017600D02*
X102583733Y-96950933D01*
X102583733Y-96950933D02*
X102717066Y-96884266D01*
X102717066Y-96884266D02*
X103050399Y-96884266D01*
X103050399Y-96884266D02*
X103250399Y-96950933D01*
X103850399Y-98284266D02*
X103850399Y-96884266D01*
X103850399Y-96884266D02*
X104183732Y-96884266D01*
X104183732Y-96884266D02*
X104383732Y-96950933D01*
X104383732Y-96950933D02*
X104517066Y-97084266D01*
X104517066Y-97084266D02*
X104583732Y-97217600D01*
X104583732Y-97217600D02*
X104650399Y-97484266D01*
X104650399Y-97484266D02*
X104650399Y-97684266D01*
X104650399Y-97684266D02*
X104583732Y-97950933D01*
X104583732Y-97950933D02*
X104517066Y-98084266D01*
X104517066Y-98084266D02*
X104383732Y-98217600D01*
X104383732Y-98217600D02*
X104183732Y-98284266D01*
X104183732Y-98284266D02*
X103850399Y-98284266D01*
X106050399Y-98284266D02*
X105583732Y-97617600D01*
X105250399Y-98284266D02*
X105250399Y-96884266D01*
X105250399Y-96884266D02*
X105783732Y-96884266D01*
X105783732Y-96884266D02*
X105917066Y-96950933D01*
X105917066Y-96950933D02*
X105983732Y-97017600D01*
X105983732Y-97017600D02*
X106050399Y-97150933D01*
X106050399Y-97150933D02*
X106050399Y-97350933D01*
X106050399Y-97350933D02*
X105983732Y-97484266D01*
X105983732Y-97484266D02*
X105917066Y-97550933D01*
X105917066Y-97550933D02*
X105783732Y-97617600D01*
X105783732Y-97617600D02*
X105250399Y-97617600D01*
X107717066Y-98284266D02*
X107717066Y-96884266D01*
X107717066Y-96884266D02*
X108250399Y-96884266D01*
X108250399Y-96884266D02*
X108383733Y-96950933D01*
X108383733Y-96950933D02*
X108450399Y-97017600D01*
X108450399Y-97017600D02*
X108517066Y-97150933D01*
X108517066Y-97150933D02*
X108517066Y-97350933D01*
X108517066Y-97350933D02*
X108450399Y-97484266D01*
X108450399Y-97484266D02*
X108383733Y-97550933D01*
X108383733Y-97550933D02*
X108250399Y-97617600D01*
X108250399Y-97617600D02*
X107717066Y-97617600D01*
X109383733Y-96884266D02*
X109650399Y-96884266D01*
X109650399Y-96884266D02*
X109783733Y-96950933D01*
X109783733Y-96950933D02*
X109917066Y-97084266D01*
X109917066Y-97084266D02*
X109983733Y-97350933D01*
X109983733Y-97350933D02*
X109983733Y-97817600D01*
X109983733Y-97817600D02*
X109917066Y-98084266D01*
X109917066Y-98084266D02*
X109783733Y-98217600D01*
X109783733Y-98217600D02*
X109650399Y-98284266D01*
X109650399Y-98284266D02*
X109383733Y-98284266D01*
X109383733Y-98284266D02*
X109250399Y-98217600D01*
X109250399Y-98217600D02*
X109117066Y-98084266D01*
X109117066Y-98084266D02*
X109050399Y-97817600D01*
X109050399Y-97817600D02*
X109050399Y-97350933D01*
X109050399Y-97350933D02*
X109117066Y-97084266D01*
X109117066Y-97084266D02*
X109250399Y-96950933D01*
X109250399Y-96950933D02*
X109383733Y-96884266D01*
X110450400Y-96884266D02*
X110783733Y-98284266D01*
X110783733Y-98284266D02*
X111050400Y-97284266D01*
X111050400Y-97284266D02*
X111317066Y-98284266D01*
X111317066Y-98284266D02*
X111650400Y-96884266D01*
X112183733Y-97550933D02*
X112650400Y-97550933D01*
X112850400Y-98284266D02*
X112183733Y-98284266D01*
X112183733Y-98284266D02*
X112183733Y-96884266D01*
X112183733Y-96884266D02*
X112850400Y-96884266D01*
X114250400Y-98284266D02*
X113783733Y-97617600D01*
X113450400Y-98284266D02*
X113450400Y-96884266D01*
X113450400Y-96884266D02*
X113983733Y-96884266D01*
X113983733Y-96884266D02*
X114117067Y-96950933D01*
X114117067Y-96950933D02*
X114183733Y-97017600D01*
X114183733Y-97017600D02*
X114250400Y-97150933D01*
X114250400Y-97150933D02*
X114250400Y-97350933D01*
X114250400Y-97350933D02*
X114183733Y-97484266D01*
X114183733Y-97484266D02*
X114117067Y-97550933D01*
X114117067Y-97550933D02*
X113983733Y-97617600D01*
X113983733Y-97617600D02*
X113450400Y-97617600D01*
X115717067Y-96884266D02*
X116183734Y-98284266D01*
X116183734Y-98284266D02*
X116650400Y-96884266D01*
X117050400Y-97017600D02*
X117117067Y-96950933D01*
X117117067Y-96950933D02*
X117250400Y-96884266D01*
X117250400Y-96884266D02*
X117583734Y-96884266D01*
X117583734Y-96884266D02*
X117717067Y-96950933D01*
X117717067Y-96950933D02*
X117783734Y-97017600D01*
X117783734Y-97017600D02*
X117850400Y-97150933D01*
X117850400Y-97150933D02*
X117850400Y-97284266D01*
X117850400Y-97284266D02*
X117783734Y-97484266D01*
X117783734Y-97484266D02*
X116983734Y-98284266D01*
X116983734Y-98284266D02*
X117850400Y-98284266D01*
X118450400Y-98150933D02*
X118517067Y-98217600D01*
X118517067Y-98217600D02*
X118450400Y-98284266D01*
X118450400Y-98284266D02*
X118383733Y-98217600D01*
X118383733Y-98217600D02*
X118450400Y-98150933D01*
X118450400Y-98150933D02*
X118450400Y-98284266D01*
X119850400Y-98284266D02*
X119050400Y-98284266D01*
X119450400Y-98284266D02*
X119450400Y-96884266D01*
X119450400Y-96884266D02*
X119317067Y-97084266D01*
X119317067Y-97084266D02*
X119183734Y-97217600D01*
X119183734Y-97217600D02*
X119050400Y-97284266D01*
X169149200Y-58045084D02*
X169149200Y-57130799D01*
X169606342Y-57587941D02*
X168692057Y-57587941D01*
X169606342Y-55930799D02*
X169606342Y-56616513D01*
X169606342Y-56273656D02*
X168406342Y-56273656D01*
X168406342Y-56273656D02*
X168577771Y-56387942D01*
X168577771Y-56387942D02*
X168692057Y-56502227D01*
X168692057Y-56502227D02*
X168749200Y-56616513D01*
X168520628Y-55473656D02*
X168463485Y-55416513D01*
X168463485Y-55416513D02*
X168406342Y-55302228D01*
X168406342Y-55302228D02*
X168406342Y-55016513D01*
X168406342Y-55016513D02*
X168463485Y-54902228D01*
X168463485Y-54902228D02*
X168520628Y-54845085D01*
X168520628Y-54845085D02*
X168634914Y-54787942D01*
X168634914Y-54787942D02*
X168749200Y-54787942D01*
X168749200Y-54787942D02*
X168920628Y-54845085D01*
X168920628Y-54845085D02*
X169606342Y-55530799D01*
X169606342Y-55530799D02*
X169606342Y-54787942D01*
X168406342Y-54445085D02*
X169606342Y-54045085D01*
X169606342Y-54045085D02*
X168406342Y-53645085D01*
X171481200Y-59645085D02*
X171538342Y-59473657D01*
X171538342Y-59473657D02*
X171538342Y-59187942D01*
X171538342Y-59187942D02*
X171481200Y-59073657D01*
X171481200Y-59073657D02*
X171424057Y-59016514D01*
X171424057Y-59016514D02*
X171309771Y-58959371D01*
X171309771Y-58959371D02*
X171195485Y-58959371D01*
X171195485Y-58959371D02*
X171081200Y-59016514D01*
X171081200Y-59016514D02*
X171024057Y-59073657D01*
X171024057Y-59073657D02*
X170966914Y-59187942D01*
X170966914Y-59187942D02*
X170909771Y-59416514D01*
X170909771Y-59416514D02*
X170852628Y-59530799D01*
X170852628Y-59530799D02*
X170795485Y-59587942D01*
X170795485Y-59587942D02*
X170681200Y-59645085D01*
X170681200Y-59645085D02*
X170566914Y-59645085D01*
X170566914Y-59645085D02*
X170452628Y-59587942D01*
X170452628Y-59587942D02*
X170395485Y-59530799D01*
X170395485Y-59530799D02*
X170338342Y-59416514D01*
X170338342Y-59416514D02*
X170338342Y-59130799D01*
X170338342Y-59130799D02*
X170395485Y-58959371D01*
X171538342Y-58445085D02*
X170338342Y-58445085D01*
X170338342Y-58445085D02*
X170338342Y-58159371D01*
X170338342Y-58159371D02*
X170395485Y-57987942D01*
X170395485Y-57987942D02*
X170509771Y-57873657D01*
X170509771Y-57873657D02*
X170624057Y-57816514D01*
X170624057Y-57816514D02*
X170852628Y-57759371D01*
X170852628Y-57759371D02*
X171024057Y-57759371D01*
X171024057Y-57759371D02*
X171252628Y-57816514D01*
X171252628Y-57816514D02*
X171366914Y-57873657D01*
X171366914Y-57873657D02*
X171481200Y-57987942D01*
X171481200Y-57987942D02*
X171538342Y-58159371D01*
X171538342Y-58159371D02*
X171538342Y-58445085D01*
X171538342Y-56559371D02*
X170966914Y-56959371D01*
X171538342Y-57245085D02*
X170338342Y-57245085D01*
X170338342Y-57245085D02*
X170338342Y-56787942D01*
X170338342Y-56787942D02*
X170395485Y-56673657D01*
X170395485Y-56673657D02*
X170452628Y-56616514D01*
X170452628Y-56616514D02*
X170566914Y-56559371D01*
X170566914Y-56559371D02*
X170738342Y-56559371D01*
X170738342Y-56559371D02*
X170852628Y-56616514D01*
X170852628Y-56616514D02*
X170909771Y-56673657D01*
X170909771Y-56673657D02*
X170966914Y-56787942D01*
X170966914Y-56787942D02*
X170966914Y-57245085D01*
X170338342Y-54902228D02*
X170338342Y-54673656D01*
X170338342Y-54673656D02*
X170395485Y-54559371D01*
X170395485Y-54559371D02*
X170509771Y-54445085D01*
X170509771Y-54445085D02*
X170738342Y-54387942D01*
X170738342Y-54387942D02*
X171138342Y-54387942D01*
X171138342Y-54387942D02*
X171366914Y-54445085D01*
X171366914Y-54445085D02*
X171481200Y-54559371D01*
X171481200Y-54559371D02*
X171538342Y-54673656D01*
X171538342Y-54673656D02*
X171538342Y-54902228D01*
X171538342Y-54902228D02*
X171481200Y-55016514D01*
X171481200Y-55016514D02*
X171366914Y-55130799D01*
X171366914Y-55130799D02*
X171138342Y-55187942D01*
X171138342Y-55187942D02*
X170738342Y-55187942D01*
X170738342Y-55187942D02*
X170509771Y-55130799D01*
X170509771Y-55130799D02*
X170395485Y-55016514D01*
X170395485Y-55016514D02*
X170338342Y-54902228D01*
X170338342Y-53873656D02*
X171309771Y-53873656D01*
X171309771Y-53873656D02*
X171424057Y-53816513D01*
X171424057Y-53816513D02*
X171481200Y-53759371D01*
X171481200Y-53759371D02*
X171538342Y-53645085D01*
X171538342Y-53645085D02*
X171538342Y-53416513D01*
X171538342Y-53416513D02*
X171481200Y-53302228D01*
X171481200Y-53302228D02*
X171424057Y-53245085D01*
X171424057Y-53245085D02*
X171309771Y-53187942D01*
X171309771Y-53187942D02*
X170338342Y-53187942D01*
X170338342Y-52787942D02*
X170338342Y-52102228D01*
X171538342Y-52445085D02*
X170338342Y-52445085D01*
X72052533Y-54358333D02*
X73119200Y-54358333D01*
X72585866Y-54891666D02*
X72585866Y-53825000D01*
X74519199Y-54891666D02*
X73719199Y-54891666D01*
X74119199Y-54891666D02*
X74119199Y-53491666D01*
X74119199Y-53491666D02*
X73985866Y-53691666D01*
X73985866Y-53691666D02*
X73852533Y-53825000D01*
X73852533Y-53825000D02*
X73719199Y-53891666D01*
X75052532Y-53625000D02*
X75119199Y-53558333D01*
X75119199Y-53558333D02*
X75252532Y-53491666D01*
X75252532Y-53491666D02*
X75585866Y-53491666D01*
X75585866Y-53491666D02*
X75719199Y-53558333D01*
X75719199Y-53558333D02*
X75785866Y-53625000D01*
X75785866Y-53625000D02*
X75852532Y-53758333D01*
X75852532Y-53758333D02*
X75852532Y-53891666D01*
X75852532Y-53891666D02*
X75785866Y-54091666D01*
X75785866Y-54091666D02*
X74985866Y-54891666D01*
X74985866Y-54891666D02*
X75852532Y-54891666D01*
X76252532Y-53491666D02*
X76719199Y-54891666D01*
X76719199Y-54891666D02*
X77185865Y-53491666D01*
X79185866Y-54158333D02*
X79385866Y-54225000D01*
X79385866Y-54225000D02*
X79452532Y-54291666D01*
X79452532Y-54291666D02*
X79519199Y-54425000D01*
X79519199Y-54425000D02*
X79519199Y-54625000D01*
X79519199Y-54625000D02*
X79452532Y-54758333D01*
X79452532Y-54758333D02*
X79385866Y-54825000D01*
X79385866Y-54825000D02*
X79252532Y-54891666D01*
X79252532Y-54891666D02*
X78719199Y-54891666D01*
X78719199Y-54891666D02*
X78719199Y-53491666D01*
X78719199Y-53491666D02*
X79185866Y-53491666D01*
X79185866Y-53491666D02*
X79319199Y-53558333D01*
X79319199Y-53558333D02*
X79385866Y-53625000D01*
X79385866Y-53625000D02*
X79452532Y-53758333D01*
X79452532Y-53758333D02*
X79452532Y-53891666D01*
X79452532Y-53891666D02*
X79385866Y-54025000D01*
X79385866Y-54025000D02*
X79319199Y-54091666D01*
X79319199Y-54091666D02*
X79185866Y-54158333D01*
X79185866Y-54158333D02*
X78719199Y-54158333D01*
X80052532Y-54491666D02*
X80719199Y-54491666D01*
X79919199Y-54891666D02*
X80385866Y-53491666D01*
X80385866Y-53491666D02*
X80852532Y-54891666D01*
X81119199Y-53491666D02*
X81919199Y-53491666D01*
X81519199Y-54891666D02*
X81519199Y-53491666D01*
X82185866Y-53491666D02*
X82985866Y-53491666D01*
X82585866Y-54891666D02*
X82585866Y-53491666D01*
D10*
X98674580Y-85619666D02*
X98722200Y-85667285D01*
X98722200Y-85667285D02*
X98769819Y-85810142D01*
X98769819Y-85810142D02*
X98769819Y-85905380D01*
X98769819Y-85905380D02*
X98722200Y-86048237D01*
X98722200Y-86048237D02*
X98626961Y-86143475D01*
X98626961Y-86143475D02*
X98531723Y-86191094D01*
X98531723Y-86191094D02*
X98341247Y-86238713D01*
X98341247Y-86238713D02*
X98198390Y-86238713D01*
X98198390Y-86238713D02*
X98007914Y-86191094D01*
X98007914Y-86191094D02*
X97912676Y-86143475D01*
X97912676Y-86143475D02*
X97817438Y-86048237D01*
X97817438Y-86048237D02*
X97769819Y-85905380D01*
X97769819Y-85905380D02*
X97769819Y-85810142D01*
X97769819Y-85810142D02*
X97817438Y-85667285D01*
X97817438Y-85667285D02*
X97865057Y-85619666D01*
X97769819Y-85286332D02*
X97769819Y-84667285D01*
X97769819Y-84667285D02*
X98150771Y-85000618D01*
X98150771Y-85000618D02*
X98150771Y-84857761D01*
X98150771Y-84857761D02*
X98198390Y-84762523D01*
X98198390Y-84762523D02*
X98246009Y-84714904D01*
X98246009Y-84714904D02*
X98341247Y-84667285D01*
X98341247Y-84667285D02*
X98579342Y-84667285D01*
X98579342Y-84667285D02*
X98674580Y-84714904D01*
X98674580Y-84714904D02*
X98722200Y-84762523D01*
X98722200Y-84762523D02*
X98769819Y-84857761D01*
X98769819Y-84857761D02*
X98769819Y-85143475D01*
X98769819Y-85143475D02*
X98722200Y-85238713D01*
X98722200Y-85238713D02*
X98674580Y-85286332D01*
X168651371Y-98381409D02*
X168318038Y-98381409D01*
X168318038Y-98905219D02*
X168318038Y-97905219D01*
X168318038Y-97905219D02*
X168794228Y-97905219D01*
X169175181Y-98905219D02*
X169175181Y-97905219D01*
X169651371Y-98905219D02*
X169651371Y-97905219D01*
X169651371Y-97905219D02*
X169889466Y-97905219D01*
X169889466Y-97905219D02*
X170032323Y-97952838D01*
X170032323Y-97952838D02*
X170127561Y-98048076D01*
X170127561Y-98048076D02*
X170175180Y-98143314D01*
X170175180Y-98143314D02*
X170222799Y-98333790D01*
X170222799Y-98333790D02*
X170222799Y-98476647D01*
X170222799Y-98476647D02*
X170175180Y-98667123D01*
X170175180Y-98667123D02*
X170127561Y-98762361D01*
X170127561Y-98762361D02*
X170032323Y-98857600D01*
X170032323Y-98857600D02*
X169889466Y-98905219D01*
X169889466Y-98905219D02*
X169651371Y-98905219D01*
X171175180Y-98905219D02*
X170603752Y-98905219D01*
X170889466Y-98905219D02*
X170889466Y-97905219D01*
X170889466Y-97905219D02*
X170794228Y-98048076D01*
X170794228Y-98048076D02*
X170698990Y-98143314D01*
X170698990Y-98143314D02*
X170603752Y-98190933D01*
X79370580Y-77382666D02*
X79418200Y-77430285D01*
X79418200Y-77430285D02*
X79465819Y-77573142D01*
X79465819Y-77573142D02*
X79465819Y-77668380D01*
X79465819Y-77668380D02*
X79418200Y-77811237D01*
X79418200Y-77811237D02*
X79322961Y-77906475D01*
X79322961Y-77906475D02*
X79227723Y-77954094D01*
X79227723Y-77954094D02*
X79037247Y-78001713D01*
X79037247Y-78001713D02*
X78894390Y-78001713D01*
X78894390Y-78001713D02*
X78703914Y-77954094D01*
X78703914Y-77954094D02*
X78608676Y-77906475D01*
X78608676Y-77906475D02*
X78513438Y-77811237D01*
X78513438Y-77811237D02*
X78465819Y-77668380D01*
X78465819Y-77668380D02*
X78465819Y-77573142D01*
X78465819Y-77573142D02*
X78513438Y-77430285D01*
X78513438Y-77430285D02*
X78561057Y-77382666D01*
X79465819Y-76430285D02*
X79465819Y-77001713D01*
X79465819Y-76715999D02*
X78465819Y-76715999D01*
X78465819Y-76715999D02*
X78608676Y-76811237D01*
X78608676Y-76811237D02*
X78703914Y-76906475D01*
X78703914Y-76906475D02*
X78751533Y-77001713D01*
X167052666Y-58992419D02*
X167052666Y-59706704D01*
X167052666Y-59706704D02*
X167005047Y-59849561D01*
X167005047Y-59849561D02*
X166909809Y-59944800D01*
X166909809Y-59944800D02*
X166766952Y-59992419D01*
X166766952Y-59992419D02*
X166671714Y-59992419D01*
X167957428Y-59325752D02*
X167957428Y-59992419D01*
X167719333Y-58944800D02*
X167481238Y-59659085D01*
X167481238Y-59659085D02*
X168100285Y-59659085D01*
X129663866Y-56858819D02*
X129663866Y-57573104D01*
X129663866Y-57573104D02*
X129616247Y-57715961D01*
X129616247Y-57715961D02*
X129521009Y-57811200D01*
X129521009Y-57811200D02*
X129378152Y-57858819D01*
X129378152Y-57858819D02*
X129282914Y-57858819D01*
X130044819Y-56858819D02*
X130663866Y-56858819D01*
X130663866Y-56858819D02*
X130330533Y-57239771D01*
X130330533Y-57239771D02*
X130473390Y-57239771D01*
X130473390Y-57239771D02*
X130568628Y-57287390D01*
X130568628Y-57287390D02*
X130616247Y-57335009D01*
X130616247Y-57335009D02*
X130663866Y-57430247D01*
X130663866Y-57430247D02*
X130663866Y-57668342D01*
X130663866Y-57668342D02*
X130616247Y-57763580D01*
X130616247Y-57763580D02*
X130568628Y-57811200D01*
X130568628Y-57811200D02*
X130473390Y-57858819D01*
X130473390Y-57858819D02*
X130187676Y-57858819D01*
X130187676Y-57858819D02*
X130092438Y-57811200D01*
X130092438Y-57811200D02*
X130044819Y-57763580D01*
X112290266Y-54166419D02*
X112290266Y-54880704D01*
X112290266Y-54880704D02*
X112242647Y-55023561D01*
X112242647Y-55023561D02*
X112147409Y-55118800D01*
X112147409Y-55118800D02*
X112004552Y-55166419D01*
X112004552Y-55166419D02*
X111909314Y-55166419D01*
X112718838Y-54261657D02*
X112766457Y-54214038D01*
X112766457Y-54214038D02*
X112861695Y-54166419D01*
X112861695Y-54166419D02*
X113099790Y-54166419D01*
X113099790Y-54166419D02*
X113195028Y-54214038D01*
X113195028Y-54214038D02*
X113242647Y-54261657D01*
X113242647Y-54261657D02*
X113290266Y-54356895D01*
X113290266Y-54356895D02*
X113290266Y-54452133D01*
X113290266Y-54452133D02*
X113242647Y-54594990D01*
X113242647Y-54594990D02*
X112671219Y-55166419D01*
X112671219Y-55166419D02*
X113290266Y-55166419D01*
X141741333Y-61755580D02*
X141693714Y-61803200D01*
X141693714Y-61803200D02*
X141550857Y-61850819D01*
X141550857Y-61850819D02*
X141455619Y-61850819D01*
X141455619Y-61850819D02*
X141312762Y-61803200D01*
X141312762Y-61803200D02*
X141217524Y-61707961D01*
X141217524Y-61707961D02*
X141169905Y-61612723D01*
X141169905Y-61612723D02*
X141122286Y-61422247D01*
X141122286Y-61422247D02*
X141122286Y-61279390D01*
X141122286Y-61279390D02*
X141169905Y-61088914D01*
X141169905Y-61088914D02*
X141217524Y-60993676D01*
X141217524Y-60993676D02*
X141312762Y-60898438D01*
X141312762Y-60898438D02*
X141455619Y-60850819D01*
X141455619Y-60850819D02*
X141550857Y-60850819D01*
X141550857Y-60850819D02*
X141693714Y-60898438D01*
X141693714Y-60898438D02*
X141741333Y-60946057D01*
X142646095Y-60850819D02*
X142169905Y-60850819D01*
X142169905Y-60850819D02*
X142122286Y-61327009D01*
X142122286Y-61327009D02*
X142169905Y-61279390D01*
X142169905Y-61279390D02*
X142265143Y-61231771D01*
X142265143Y-61231771D02*
X142503238Y-61231771D01*
X142503238Y-61231771D02*
X142598476Y-61279390D01*
X142598476Y-61279390D02*
X142646095Y-61327009D01*
X142646095Y-61327009D02*
X142693714Y-61422247D01*
X142693714Y-61422247D02*
X142693714Y-61660342D01*
X142693714Y-61660342D02*
X142646095Y-61755580D01*
X142646095Y-61755580D02*
X142598476Y-61803200D01*
X142598476Y-61803200D02*
X142503238Y-61850819D01*
X142503238Y-61850819D02*
X142265143Y-61850819D01*
X142265143Y-61850819D02*
X142169905Y-61803200D01*
X142169905Y-61803200D02*
X142122286Y-61755580D01*
X82521466Y-96990819D02*
X82521466Y-97705104D01*
X82521466Y-97705104D02*
X82473847Y-97847961D01*
X82473847Y-97847961D02*
X82378609Y-97943200D01*
X82378609Y-97943200D02*
X82235752Y-97990819D01*
X82235752Y-97990819D02*
X82140514Y-97990819D01*
X83521466Y-97990819D02*
X82950038Y-97990819D01*
X83235752Y-97990819D02*
X83235752Y-96990819D01*
X83235752Y-96990819D02*
X83140514Y-97133676D01*
X83140514Y-97133676D02*
X83045276Y-97228914D01*
X83045276Y-97228914D02*
X82950038Y-97276533D01*
X104613718Y-68774068D02*
X104613718Y-69250258D01*
X104613718Y-69250258D02*
X103613718Y-69250258D01*
X104613718Y-67916925D02*
X104613718Y-68488353D01*
X104613718Y-68202639D02*
X103613718Y-68202639D01*
X103613718Y-68202639D02*
X103756575Y-68297877D01*
X103756575Y-68297877D02*
X103851813Y-68393115D01*
X103851813Y-68393115D02*
X103899432Y-68488353D01*
X90717905Y-77559819D02*
X91336952Y-77559819D01*
X91336952Y-77559819D02*
X91003619Y-77940771D01*
X91003619Y-77940771D02*
X91146476Y-77940771D01*
X91146476Y-77940771D02*
X91241714Y-77988390D01*
X91241714Y-77988390D02*
X91289333Y-78036009D01*
X91289333Y-78036009D02*
X91336952Y-78131247D01*
X91336952Y-78131247D02*
X91336952Y-78369342D01*
X91336952Y-78369342D02*
X91289333Y-78464580D01*
X91289333Y-78464580D02*
X91241714Y-78512200D01*
X91241714Y-78512200D02*
X91146476Y-78559819D01*
X91146476Y-78559819D02*
X90860762Y-78559819D01*
X90860762Y-78559819D02*
X90765524Y-78512200D01*
X90765524Y-78512200D02*
X90717905Y-78464580D01*
X91956000Y-77559819D02*
X92051238Y-77559819D01*
X92051238Y-77559819D02*
X92146476Y-77607438D01*
X92146476Y-77607438D02*
X92194095Y-77655057D01*
X92194095Y-77655057D02*
X92241714Y-77750295D01*
X92241714Y-77750295D02*
X92289333Y-77940771D01*
X92289333Y-77940771D02*
X92289333Y-78178866D01*
X92289333Y-78178866D02*
X92241714Y-78369342D01*
X92241714Y-78369342D02*
X92194095Y-78464580D01*
X92194095Y-78464580D02*
X92146476Y-78512200D01*
X92146476Y-78512200D02*
X92051238Y-78559819D01*
X92051238Y-78559819D02*
X91956000Y-78559819D01*
X91956000Y-78559819D02*
X91860762Y-78512200D01*
X91860762Y-78512200D02*
X91813143Y-78464580D01*
X91813143Y-78464580D02*
X91765524Y-78369342D01*
X91765524Y-78369342D02*
X91717905Y-78178866D01*
X91717905Y-78178866D02*
X91717905Y-77940771D01*
X91717905Y-77940771D02*
X91765524Y-77750295D01*
X91765524Y-77750295D02*
X91813143Y-77655057D01*
X91813143Y-77655057D02*
X91860762Y-77607438D01*
X91860762Y-77607438D02*
X91956000Y-77559819D01*
X93194095Y-77559819D02*
X92717905Y-77559819D01*
X92717905Y-77559819D02*
X92670286Y-78036009D01*
X92670286Y-78036009D02*
X92717905Y-77988390D01*
X92717905Y-77988390D02*
X92813143Y-77940771D01*
X92813143Y-77940771D02*
X93051238Y-77940771D01*
X93051238Y-77940771D02*
X93146476Y-77988390D01*
X93146476Y-77988390D02*
X93194095Y-78036009D01*
X93194095Y-78036009D02*
X93241714Y-78131247D01*
X93241714Y-78131247D02*
X93241714Y-78369342D01*
X93241714Y-78369342D02*
X93194095Y-78464580D01*
X93194095Y-78464580D02*
X93146476Y-78512200D01*
X93146476Y-78512200D02*
X93051238Y-78559819D01*
X93051238Y-78559819D02*
X92813143Y-78559819D01*
X92813143Y-78559819D02*
X92717905Y-78512200D01*
X92717905Y-78512200D02*
X92670286Y-78464580D01*
X94098857Y-77893152D02*
X94098857Y-78559819D01*
X93670286Y-77893152D02*
X93670286Y-78416961D01*
X93670286Y-78416961D02*
X93717905Y-78512200D01*
X93717905Y-78512200D02*
X93813143Y-78559819D01*
X93813143Y-78559819D02*
X93956000Y-78559819D01*
X93956000Y-78559819D02*
X94051238Y-78512200D01*
X94051238Y-78512200D02*
X94098857Y-78464580D01*
X141057333Y-95283580D02*
X141009714Y-95331200D01*
X141009714Y-95331200D02*
X140866857Y-95378819D01*
X140866857Y-95378819D02*
X140771619Y-95378819D01*
X140771619Y-95378819D02*
X140628762Y-95331200D01*
X140628762Y-95331200D02*
X140533524Y-95235961D01*
X140533524Y-95235961D02*
X140485905Y-95140723D01*
X140485905Y-95140723D02*
X140438286Y-94950247D01*
X140438286Y-94950247D02*
X140438286Y-94807390D01*
X140438286Y-94807390D02*
X140485905Y-94616914D01*
X140485905Y-94616914D02*
X140533524Y-94521676D01*
X140533524Y-94521676D02*
X140628762Y-94426438D01*
X140628762Y-94426438D02*
X140771619Y-94378819D01*
X140771619Y-94378819D02*
X140866857Y-94378819D01*
X140866857Y-94378819D02*
X141009714Y-94426438D01*
X141009714Y-94426438D02*
X141057333Y-94474057D01*
X141914476Y-94378819D02*
X141724000Y-94378819D01*
X141724000Y-94378819D02*
X141628762Y-94426438D01*
X141628762Y-94426438D02*
X141581143Y-94474057D01*
X141581143Y-94474057D02*
X141485905Y-94616914D01*
X141485905Y-94616914D02*
X141438286Y-94807390D01*
X141438286Y-94807390D02*
X141438286Y-95188342D01*
X141438286Y-95188342D02*
X141485905Y-95283580D01*
X141485905Y-95283580D02*
X141533524Y-95331200D01*
X141533524Y-95331200D02*
X141628762Y-95378819D01*
X141628762Y-95378819D02*
X141819238Y-95378819D01*
X141819238Y-95378819D02*
X141914476Y-95331200D01*
X141914476Y-95331200D02*
X141962095Y-95283580D01*
X141962095Y-95283580D02*
X142009714Y-95188342D01*
X142009714Y-95188342D02*
X142009714Y-94950247D01*
X142009714Y-94950247D02*
X141962095Y-94855009D01*
X141962095Y-94855009D02*
X141914476Y-94807390D01*
X141914476Y-94807390D02*
X141819238Y-94759771D01*
X141819238Y-94759771D02*
X141628762Y-94759771D01*
X141628762Y-94759771D02*
X141533524Y-94807390D01*
X141533524Y-94807390D02*
X141485905Y-94855009D01*
X141485905Y-94855009D02*
X141438286Y-94950247D01*
X71497819Y-63960333D02*
X72212104Y-63960333D01*
X72212104Y-63960333D02*
X72354961Y-64007952D01*
X72354961Y-64007952D02*
X72450200Y-64103190D01*
X72450200Y-64103190D02*
X72497819Y-64246047D01*
X72497819Y-64246047D02*
X72497819Y-64341285D01*
X71497819Y-63007952D02*
X71497819Y-63484142D01*
X71497819Y-63484142D02*
X71974009Y-63531761D01*
X71974009Y-63531761D02*
X71926390Y-63484142D01*
X71926390Y-63484142D02*
X71878771Y-63388904D01*
X71878771Y-63388904D02*
X71878771Y-63150809D01*
X71878771Y-63150809D02*
X71926390Y-63055571D01*
X71926390Y-63055571D02*
X71974009Y-63007952D01*
X71974009Y-63007952D02*
X72069247Y-62960333D01*
X72069247Y-62960333D02*
X72307342Y-62960333D01*
X72307342Y-62960333D02*
X72402580Y-63007952D01*
X72402580Y-63007952D02*
X72450200Y-63055571D01*
X72450200Y-63055571D02*
X72497819Y-63150809D01*
X72497819Y-63150809D02*
X72497819Y-63388904D01*
X72497819Y-63388904D02*
X72450200Y-63484142D01*
X72450200Y-63484142D02*
X72402580Y-63531761D01*
X109866133Y-90123180D02*
X109818514Y-90170800D01*
X109818514Y-90170800D02*
X109675657Y-90218419D01*
X109675657Y-90218419D02*
X109580419Y-90218419D01*
X109580419Y-90218419D02*
X109437562Y-90170800D01*
X109437562Y-90170800D02*
X109342324Y-90075561D01*
X109342324Y-90075561D02*
X109294705Y-89980323D01*
X109294705Y-89980323D02*
X109247086Y-89789847D01*
X109247086Y-89789847D02*
X109247086Y-89646990D01*
X109247086Y-89646990D02*
X109294705Y-89456514D01*
X109294705Y-89456514D02*
X109342324Y-89361276D01*
X109342324Y-89361276D02*
X109437562Y-89266038D01*
X109437562Y-89266038D02*
X109580419Y-89218419D01*
X109580419Y-89218419D02*
X109675657Y-89218419D01*
X109675657Y-89218419D02*
X109818514Y-89266038D01*
X109818514Y-89266038D02*
X109866133Y-89313657D01*
X110723276Y-89551752D02*
X110723276Y-90218419D01*
X110485181Y-89170800D02*
X110247086Y-89885085D01*
X110247086Y-89885085D02*
X110866133Y-89885085D01*
X111390133Y-69898419D02*
X110913943Y-69898419D01*
X110913943Y-69898419D02*
X110913943Y-68898419D01*
X111675848Y-68993657D02*
X111723467Y-68946038D01*
X111723467Y-68946038D02*
X111818705Y-68898419D01*
X111818705Y-68898419D02*
X112056800Y-68898419D01*
X112056800Y-68898419D02*
X112152038Y-68946038D01*
X112152038Y-68946038D02*
X112199657Y-68993657D01*
X112199657Y-68993657D02*
X112247276Y-69088895D01*
X112247276Y-69088895D02*
X112247276Y-69184133D01*
X112247276Y-69184133D02*
X112199657Y-69326990D01*
X112199657Y-69326990D02*
X111628229Y-69898419D01*
X111628229Y-69898419D02*
X112247276Y-69898419D01*
X107364400Y-68847619D02*
X107983447Y-68847619D01*
X107983447Y-68847619D02*
X107650114Y-69228571D01*
X107650114Y-69228571D02*
X107792971Y-69228571D01*
X107792971Y-69228571D02*
X107888209Y-69276190D01*
X107888209Y-69276190D02*
X107935828Y-69323809D01*
X107935828Y-69323809D02*
X107983447Y-69419047D01*
X107983447Y-69419047D02*
X107983447Y-69657142D01*
X107983447Y-69657142D02*
X107935828Y-69752380D01*
X107935828Y-69752380D02*
X107888209Y-69800000D01*
X107888209Y-69800000D02*
X107792971Y-69847619D01*
X107792971Y-69847619D02*
X107507257Y-69847619D01*
X107507257Y-69847619D02*
X107412019Y-69800000D01*
X107412019Y-69800000D02*
X107364400Y-69752380D01*
X108412019Y-69752380D02*
X108459638Y-69800000D01*
X108459638Y-69800000D02*
X108412019Y-69847619D01*
X108412019Y-69847619D02*
X108364400Y-69800000D01*
X108364400Y-69800000D02*
X108412019Y-69752380D01*
X108412019Y-69752380D02*
X108412019Y-69847619D01*
X108792971Y-68847619D02*
X109412018Y-68847619D01*
X109412018Y-68847619D02*
X109078685Y-69228571D01*
X109078685Y-69228571D02*
X109221542Y-69228571D01*
X109221542Y-69228571D02*
X109316780Y-69276190D01*
X109316780Y-69276190D02*
X109364399Y-69323809D01*
X109364399Y-69323809D02*
X109412018Y-69419047D01*
X109412018Y-69419047D02*
X109412018Y-69657142D01*
X109412018Y-69657142D02*
X109364399Y-69752380D01*
X109364399Y-69752380D02*
X109316780Y-69800000D01*
X109316780Y-69800000D02*
X109221542Y-69847619D01*
X109221542Y-69847619D02*
X108935828Y-69847619D01*
X108935828Y-69847619D02*
X108840590Y-69800000D01*
X108840590Y-69800000D02*
X108792971Y-69752380D01*
X110269161Y-69180952D02*
X110269161Y-69847619D01*
X109840590Y-69180952D02*
X109840590Y-69704761D01*
X109840590Y-69704761D02*
X109888209Y-69800000D01*
X109888209Y-69800000D02*
X109983447Y-69847619D01*
X109983447Y-69847619D02*
X110126304Y-69847619D01*
X110126304Y-69847619D02*
X110221542Y-69800000D01*
X110221542Y-69800000D02*
X110269161Y-69752380D01*
X150980819Y-61253666D02*
X150504628Y-61586999D01*
X150980819Y-61825094D02*
X149980819Y-61825094D01*
X149980819Y-61825094D02*
X149980819Y-61444142D01*
X149980819Y-61444142D02*
X150028438Y-61348904D01*
X150028438Y-61348904D02*
X150076057Y-61301285D01*
X150076057Y-61301285D02*
X150171295Y-61253666D01*
X150171295Y-61253666D02*
X150314152Y-61253666D01*
X150314152Y-61253666D02*
X150409390Y-61301285D01*
X150409390Y-61301285D02*
X150457009Y-61348904D01*
X150457009Y-61348904D02*
X150504628Y-61444142D01*
X150504628Y-61444142D02*
X150504628Y-61825094D01*
X150314152Y-60396523D02*
X150980819Y-60396523D01*
X149933200Y-60634618D02*
X150647485Y-60872713D01*
X150647485Y-60872713D02*
X150647485Y-60253666D01*
X148461505Y-59687619D02*
X148461505Y-58687619D01*
X148461505Y-58687619D02*
X148699600Y-58687619D01*
X148699600Y-58687619D02*
X148842457Y-58735238D01*
X148842457Y-58735238D02*
X148937695Y-58830476D01*
X148937695Y-58830476D02*
X148985314Y-58925714D01*
X148985314Y-58925714D02*
X149032933Y-59116190D01*
X149032933Y-59116190D02*
X149032933Y-59259047D01*
X149032933Y-59259047D02*
X148985314Y-59449523D01*
X148985314Y-59449523D02*
X148937695Y-59544761D01*
X148937695Y-59544761D02*
X148842457Y-59640000D01*
X148842457Y-59640000D02*
X148699600Y-59687619D01*
X148699600Y-59687619D02*
X148461505Y-59687619D01*
X149985314Y-59687619D02*
X149413886Y-59687619D01*
X149699600Y-59687619D02*
X149699600Y-58687619D01*
X149699600Y-58687619D02*
X149604362Y-58830476D01*
X149604362Y-58830476D02*
X149509124Y-58925714D01*
X149509124Y-58925714D02*
X149413886Y-58973333D01*
X83510571Y-52025009D02*
X83177238Y-52025009D01*
X83177238Y-52548819D02*
X83177238Y-51548819D01*
X83177238Y-51548819D02*
X83653428Y-51548819D01*
X84034381Y-52548819D02*
X84034381Y-51548819D01*
X84510571Y-52548819D02*
X84510571Y-51548819D01*
X84510571Y-51548819D02*
X84748666Y-51548819D01*
X84748666Y-51548819D02*
X84891523Y-51596438D01*
X84891523Y-51596438D02*
X84986761Y-51691676D01*
X84986761Y-51691676D02*
X85034380Y-51786914D01*
X85034380Y-51786914D02*
X85081999Y-51977390D01*
X85081999Y-51977390D02*
X85081999Y-52120247D01*
X85081999Y-52120247D02*
X85034380Y-52310723D01*
X85034380Y-52310723D02*
X84986761Y-52405961D01*
X84986761Y-52405961D02*
X84891523Y-52501200D01*
X84891523Y-52501200D02*
X84748666Y-52548819D01*
X84748666Y-52548819D02*
X84510571Y-52548819D01*
X85462952Y-51644057D02*
X85510571Y-51596438D01*
X85510571Y-51596438D02*
X85605809Y-51548819D01*
X85605809Y-51548819D02*
X85843904Y-51548819D01*
X85843904Y-51548819D02*
X85939142Y-51596438D01*
X85939142Y-51596438D02*
X85986761Y-51644057D01*
X85986761Y-51644057D02*
X86034380Y-51739295D01*
X86034380Y-51739295D02*
X86034380Y-51834533D01*
X86034380Y-51834533D02*
X85986761Y-51977390D01*
X85986761Y-51977390D02*
X85415333Y-52548819D01*
X85415333Y-52548819D02*
X86034380Y-52548819D01*
D12*
%TO.C,C3*%
X99255000Y-86614252D02*
X99255000Y-84291748D01*
X102675000Y-86614252D02*
X102675000Y-84291748D01*
%TO.C,C1*%
X79951000Y-78377252D02*
X79951000Y-76054748D01*
X83371000Y-78377252D02*
X83371000Y-76054748D01*
%TO.C,J4*%
X156953000Y-53118000D02*
X156953000Y-57118000D01*
X157243000Y-52088000D02*
X157243000Y-58108000D01*
X157243000Y-58108000D02*
X167623000Y-58108000D01*
X157823000Y-52088000D02*
X157823000Y-52688000D01*
X157823000Y-52688000D02*
X159423000Y-52688000D01*
X158623000Y-57108000D02*
X158873000Y-56578000D01*
X158623000Y-57108000D02*
X166243000Y-57108000D01*
X158623000Y-58108000D02*
X158623000Y-57108000D01*
X158873000Y-56578000D02*
X165993000Y-56578000D01*
X158873000Y-58108000D02*
X158873000Y-57108000D01*
X159423000Y-52688000D02*
X159423000Y-52088000D01*
X160363000Y-52088000D02*
X160363000Y-52688000D01*
X160363000Y-52688000D02*
X161963000Y-52688000D01*
X161963000Y-52688000D02*
X161963000Y-52088000D01*
X162903000Y-52088000D02*
X162903000Y-52688000D01*
X162903000Y-52688000D02*
X164503000Y-52688000D01*
X164503000Y-52688000D02*
X164503000Y-52088000D01*
X165443000Y-52088000D02*
X165443000Y-52688000D01*
X165443000Y-52688000D02*
X167043000Y-52688000D01*
X165993000Y-56578000D02*
X166243000Y-57108000D01*
X165993000Y-58108000D02*
X165993000Y-57108000D01*
X166243000Y-57108000D02*
X166243000Y-58108000D01*
X167043000Y-52688000D02*
X167043000Y-52088000D01*
X167623000Y-52088000D02*
X157243000Y-52088000D01*
X167623000Y-58108000D02*
X167623000Y-52088000D01*
%TO.C,J3*%
X130116000Y-56552000D02*
X129066000Y-56552000D01*
X130116000Y-54052000D02*
X130116000Y-56552000D01*
X129066000Y-56552000D02*
X129066000Y-57542000D01*
X128946000Y-52082000D02*
X125066000Y-52082000D01*
X123896000Y-56552000D02*
X124946000Y-56552000D01*
X123896000Y-54052000D02*
X123896000Y-56552000D01*
%TO.C,J2*%
X120706000Y-56552000D02*
X119656000Y-56552000D01*
X120706000Y-54052000D02*
X120706000Y-56552000D01*
X119656000Y-56552000D02*
X119656000Y-57542000D01*
X119536000Y-52082000D02*
X115656000Y-52082000D01*
X114486000Y-56552000D02*
X115536000Y-56552000D01*
X114486000Y-54052000D02*
X114486000Y-56552000D01*
%TO.C,C5*%
X141196748Y-62336000D02*
X142619252Y-62336000D01*
X141196748Y-64156000D02*
X142619252Y-64156000D01*
%TO.C,J1*%
X84867400Y-97641200D02*
X83867400Y-98641200D01*
X84867400Y-88521200D02*
X84867400Y-97641200D01*
X84867400Y-88521200D02*
X82442400Y-88521200D01*
X83867400Y-98641200D02*
X75997400Y-98641200D01*
X80422400Y-88521200D02*
X79084167Y-88521200D01*
X75997400Y-98641200D02*
X74997400Y-97641200D01*
X74997400Y-97641200D02*
X74997400Y-88521200D01*
X74997400Y-88521200D02*
X77780633Y-88521200D01*
%TO.C,L1*%
X85875699Y-59806302D02*
X85875699Y-64948661D01*
X85875699Y-65607339D02*
X85875699Y-71048664D01*
X85875699Y-71707342D02*
X85875699Y-76849702D01*
X85875699Y-76849702D02*
X103122299Y-76849702D01*
X103122299Y-59806302D02*
X85875699Y-59806302D01*
X103122299Y-64948661D02*
X103122299Y-59806302D01*
X103122299Y-71048664D02*
X103122299Y-65607339D01*
X103122299Y-76849702D02*
X103122299Y-71707342D01*
X85090000Y-71378003D02*
G75*
G03*
X85090000Y-71378003I-381000J0D01*
G01*
D13*
%TO.C,PS1*%
X115853000Y-87565000D02*
X115853000Y-87565000D01*
X115953000Y-87565000D02*
X115953000Y-87565000D01*
D11*
X116413000Y-67245000D02*
X167213000Y-67245000D01*
X116413000Y-92645000D02*
X116413000Y-67245000D01*
X167213000Y-67245000D02*
X167213000Y-92645000D01*
X167213000Y-92645000D02*
X116413000Y-92645000D01*
D13*
X115953000Y-87565000D02*
G75*
G03*
X115853000Y-87565000I-50000J0D01*
G01*
X115853000Y-87565000D02*
G75*
G03*
X115953000Y-87565000I50000J0D01*
G01*
D12*
%TO.C,C6*%
X140512748Y-95864000D02*
X141935252Y-95864000D01*
X140512748Y-97684000D02*
X141935252Y-97684000D01*
%TO.C,J5*%
X75743000Y-71477000D02*
X78893000Y-71477000D01*
X78893000Y-71477000D02*
X81493000Y-68627000D01*
X73193000Y-68627000D02*
X75743000Y-71477000D01*
X81493000Y-68627000D02*
X81493000Y-55777000D01*
X73193000Y-55777000D02*
X73193000Y-68627000D01*
X81493000Y-55777000D02*
X73193000Y-55777000D01*
%TO.C,C4*%
X108016000Y-88737241D02*
X108016000Y-88107241D01*
X107701000Y-88422241D02*
X108331000Y-88422241D01*
X106625000Y-85237000D02*
X113085000Y-85237000D01*
X106625000Y-85197000D02*
X113085000Y-85197000D01*
X106625000Y-85157000D02*
X113085000Y-85157000D01*
X106627000Y-85117000D02*
X113083000Y-85117000D01*
X106628000Y-85077000D02*
X113082000Y-85077000D01*
X106631000Y-85037000D02*
X113079000Y-85037000D01*
X106633000Y-84997000D02*
X108815000Y-84997000D01*
X110895000Y-84997000D02*
X113077000Y-84997000D01*
X106637000Y-84957000D02*
X108815000Y-84957000D01*
X110895000Y-84957000D02*
X113073000Y-84957000D01*
X106640000Y-84917000D02*
X108815000Y-84917000D01*
X110895000Y-84917000D02*
X113070000Y-84917000D01*
X106644000Y-84877000D02*
X108815000Y-84877000D01*
X110895000Y-84877000D02*
X113066000Y-84877000D01*
X106649000Y-84837000D02*
X108815000Y-84837000D01*
X110895000Y-84837000D02*
X113061000Y-84837000D01*
X106654000Y-84797000D02*
X108815000Y-84797000D01*
X110895000Y-84797000D02*
X113056000Y-84797000D01*
X106660000Y-84757000D02*
X108815000Y-84757000D01*
X110895000Y-84757000D02*
X113050000Y-84757000D01*
X106666000Y-84717000D02*
X108815000Y-84717000D01*
X110895000Y-84717000D02*
X113044000Y-84717000D01*
X106673000Y-84677000D02*
X108815000Y-84677000D01*
X110895000Y-84677000D02*
X113037000Y-84677000D01*
X106680000Y-84637000D02*
X108815000Y-84637000D01*
X110895000Y-84637000D02*
X113030000Y-84637000D01*
X106688000Y-84597000D02*
X108815000Y-84597000D01*
X110895000Y-84597000D02*
X113022000Y-84597000D01*
X106696000Y-84557000D02*
X108815000Y-84557000D01*
X110895000Y-84557000D02*
X113014000Y-84557000D01*
X106705000Y-84516000D02*
X108815000Y-84516000D01*
X110895000Y-84516000D02*
X113005000Y-84516000D01*
X106714000Y-84476000D02*
X108815000Y-84476000D01*
X110895000Y-84476000D02*
X112996000Y-84476000D01*
X106724000Y-84436000D02*
X108815000Y-84436000D01*
X110895000Y-84436000D02*
X112986000Y-84436000D01*
X106734000Y-84396000D02*
X108815000Y-84396000D01*
X110895000Y-84396000D02*
X112976000Y-84396000D01*
X106745000Y-84356000D02*
X108815000Y-84356000D01*
X110895000Y-84356000D02*
X112965000Y-84356000D01*
X106757000Y-84316000D02*
X108815000Y-84316000D01*
X110895000Y-84316000D02*
X112953000Y-84316000D01*
X106769000Y-84276000D02*
X108815000Y-84276000D01*
X110895000Y-84276000D02*
X112941000Y-84276000D01*
X106781000Y-84236000D02*
X108815000Y-84236000D01*
X110895000Y-84236000D02*
X112929000Y-84236000D01*
X106794000Y-84196000D02*
X108815000Y-84196000D01*
X110895000Y-84196000D02*
X112916000Y-84196000D01*
X106808000Y-84156000D02*
X108815000Y-84156000D01*
X110895000Y-84156000D02*
X112902000Y-84156000D01*
X106822000Y-84116000D02*
X108815000Y-84116000D01*
X110895000Y-84116000D02*
X112888000Y-84116000D01*
X106837000Y-84076000D02*
X108815000Y-84076000D01*
X110895000Y-84076000D02*
X112873000Y-84076000D01*
X106853000Y-84036000D02*
X108815000Y-84036000D01*
X110895000Y-84036000D02*
X112857000Y-84036000D01*
X106869000Y-83996000D02*
X108815000Y-83996000D01*
X110895000Y-83996000D02*
X112841000Y-83996000D01*
X106885000Y-83956000D02*
X108815000Y-83956000D01*
X110895000Y-83956000D02*
X112825000Y-83956000D01*
X106903000Y-83916000D02*
X108815000Y-83916000D01*
X110895000Y-83916000D02*
X112807000Y-83916000D01*
X106921000Y-83876000D02*
X108815000Y-83876000D01*
X110895000Y-83876000D02*
X112789000Y-83876000D01*
X106939000Y-83836000D02*
X108815000Y-83836000D01*
X110895000Y-83836000D02*
X112771000Y-83836000D01*
X106959000Y-83796000D02*
X108815000Y-83796000D01*
X110895000Y-83796000D02*
X112751000Y-83796000D01*
X106979000Y-83756000D02*
X108815000Y-83756000D01*
X110895000Y-83756000D02*
X112731000Y-83756000D01*
X106999000Y-83716000D02*
X108815000Y-83716000D01*
X110895000Y-83716000D02*
X112711000Y-83716000D01*
X107021000Y-83676000D02*
X108815000Y-83676000D01*
X110895000Y-83676000D02*
X112689000Y-83676000D01*
X107043000Y-83636000D02*
X108815000Y-83636000D01*
X110895000Y-83636000D02*
X112667000Y-83636000D01*
X107065000Y-83596000D02*
X108815000Y-83596000D01*
X110895000Y-83596000D02*
X112645000Y-83596000D01*
X107089000Y-83556000D02*
X108815000Y-83556000D01*
X110895000Y-83556000D02*
X112621000Y-83556000D01*
X107113000Y-83516000D02*
X108815000Y-83516000D01*
X110895000Y-83516000D02*
X112597000Y-83516000D01*
X107139000Y-83476000D02*
X108815000Y-83476000D01*
X110895000Y-83476000D02*
X112571000Y-83476000D01*
X107165000Y-83436000D02*
X108815000Y-83436000D01*
X110895000Y-83436000D02*
X112545000Y-83436000D01*
X107191000Y-83396000D02*
X108815000Y-83396000D01*
X110895000Y-83396000D02*
X112519000Y-83396000D01*
X107219000Y-83356000D02*
X108815000Y-83356000D01*
X110895000Y-83356000D02*
X112491000Y-83356000D01*
X107248000Y-83316000D02*
X108815000Y-83316000D01*
X110895000Y-83316000D02*
X112462000Y-83316000D01*
X107277000Y-83276000D02*
X108815000Y-83276000D01*
X110895000Y-83276000D02*
X112433000Y-83276000D01*
X107307000Y-83236000D02*
X108815000Y-83236000D01*
X110895000Y-83236000D02*
X112403000Y-83236000D01*
X107339000Y-83196000D02*
X108815000Y-83196000D01*
X110895000Y-83196000D02*
X112371000Y-83196000D01*
X107371000Y-83156000D02*
X108815000Y-83156000D01*
X110895000Y-83156000D02*
X112339000Y-83156000D01*
X107405000Y-83116000D02*
X108815000Y-83116000D01*
X110895000Y-83116000D02*
X112305000Y-83116000D01*
X107439000Y-83076000D02*
X108815000Y-83076000D01*
X110895000Y-83076000D02*
X112271000Y-83076000D01*
X107475000Y-83036000D02*
X108815000Y-83036000D01*
X110895000Y-83036000D02*
X112235000Y-83036000D01*
X107512000Y-82996000D02*
X108815000Y-82996000D01*
X110895000Y-82996000D02*
X112198000Y-82996000D01*
X107550000Y-82956000D02*
X108815000Y-82956000D01*
X110895000Y-82956000D02*
X112160000Y-82956000D01*
X107590000Y-82916000D02*
X112120000Y-82916000D01*
X107631000Y-82876000D02*
X112079000Y-82876000D01*
X107673000Y-82836000D02*
X112037000Y-82836000D01*
X107718000Y-82796000D02*
X111992000Y-82796000D01*
X107763000Y-82756000D02*
X111947000Y-82756000D01*
X107811000Y-82716000D02*
X111899000Y-82716000D01*
X107860000Y-82676000D02*
X111850000Y-82676000D01*
X107911000Y-82636000D02*
X111799000Y-82636000D01*
X107965000Y-82596000D02*
X111745000Y-82596000D01*
X108021000Y-82556000D02*
X111689000Y-82556000D01*
X108079000Y-82516000D02*
X111631000Y-82516000D01*
X108141000Y-82476000D02*
X111569000Y-82476000D01*
X108205000Y-82436000D02*
X111505000Y-82436000D01*
X108274000Y-82396000D02*
X111436000Y-82396000D01*
X108346000Y-82356000D02*
X111364000Y-82356000D01*
X108423000Y-82316000D02*
X111287000Y-82316000D01*
X108505000Y-82276000D02*
X111205000Y-82276000D01*
X108593000Y-82236000D02*
X111117000Y-82236000D01*
X108690000Y-82196000D02*
X111020000Y-82196000D01*
X108796000Y-82156000D02*
X110914000Y-82156000D01*
X108915000Y-82116000D02*
X110795000Y-82116000D01*
X109053000Y-82076000D02*
X110657000Y-82076000D01*
X109222000Y-82036000D02*
X110488000Y-82036000D01*
X109453000Y-81996000D02*
X110257000Y-81996000D01*
X113125000Y-85237000D02*
G75*
G03*
X113125000Y-85237000I-3270000J0D01*
G01*
%TO.C,L2*%
X105308400Y-70510400D02*
X105308400Y-72463660D01*
X105308400Y-75618340D02*
X105308400Y-77571600D01*
X105308400Y-77571600D02*
X112369600Y-77571600D01*
X112369600Y-70510400D02*
X105308400Y-70510400D01*
X112369600Y-72463660D02*
X112369600Y-70510400D01*
X112369600Y-77571600D02*
X112369600Y-75618340D01*
%TO.C,R4*%
X151433500Y-61324258D02*
X151433500Y-60849742D01*
X152478500Y-61324258D02*
X152478500Y-60849742D01*
%TO.C,D1*%
X152897000Y-52431000D02*
X149617000Y-52431000D01*
X151255042Y-58030998D02*
G75*
G03*
X152896511Y-52431001I1958J3039998D01*
G01*
X149617489Y-52431001D02*
G75*
G03*
X151258958Y-58030998I1639511J-2559999D01*
G01*
X153757000Y-54991000D02*
G75*
G03*
X153757000Y-54991000I-2500000J0D01*
G01*
%TD*%
M02*
